rawline-800.ufo
<glyph name="exclam" format="2">
  <advance width="681"/>
  <unicode hex="0021"/>
  <outline>
    <contour>
      <point x="176" y="578" type="line"/>
      <point x="176" y="1468" type="line"/>
      <point x="504" y="1468" type="line"/>
      <point x="504" y="578" type="line"/>
    </contour>
    <contour>
      <point x="176" y="0" type="line"/>
      <point x="176" y="340" type="line"/>
      <point x="504" y="340" type="line"/>
      <point x="504" y="0" type="line"/>
    </contour>
  </outline>
</glyph>
<glyph name="quotedbl" format="2">
  <advance width="882"/>
  <unicode hex="0022"/>
  <outline>
    <contour>
      <point x="117" y="1020" type="line"/>
      <point x="117" y="1487" type="line"/>
      <point x="393" y="1487" type="line"/>
      <point x="393" y="1020" type="line"/>
    </contour>
    <contour>
      <point x="489" y="1020" type="line"/>
      <point x="489" y="1487" type="line"/>
      <point x="766" y="1487" type="line"/>
      <point x="766" y="1020" type="line"/>
    </contour>
  </outline>
</glyph>
<glyph name="numbersign" format="2">
  <advance width="1511"/>
  <unicode hex="0023"/>
  <outline>
    <contour>
      <point x="1438" y="844" type="line"/>
      <point x="1126" y="844" type="line"/>
      <point x="1071" y="610" type="line"/>
      <point x="1337" y="610" type="line"/>
      <point x="1337" y="367" type="line"/>
      <point x="1012" y="367" type="line"/>
      <point x="924" y="0" type="line"/>
      <point x="662" y="0" type="line"/>
      <point x="752" y="367" type="line"/>
      <point x="565" y="367" type="line"/>
      <point x="475" y="0" type="line"/>
      <point x="213" y="0" type="line"/>
      <point x="305" y="367" type="line"/>
      <point x="74" y="367" type="line"/>
      <point x="74" y="610" type="line"/>
      <point x="362" y="610" type="line"/>
      <point x="418" y="844" type="line"/>
      <point x="174" y="844" type="line"/>
      <point x="174" y="1069" type="line"/>
      <point x="473" y="1069" type="line"/>
      <point x="567" y="1454" type="line"/>
      <point x="829" y="1454" type="line"/>
      <point x="733" y="1069" type="line"/>
      <point x="922" y="1069" type="line"/>
      <point x="1016" y="1454" type="line"/>
      <point x="1278" y="1454" type="line"/>
      <point x="1182" y="1069" type="line"/>
      <point x="1438" y="1069" type="line"/>
    </contour>
    <contour>
      <point x="811" y="610" type="line"/>
      <point x="866" y="844" type="line"/>
      <point x="678" y="844" type="line"/>
      <point x="623" y="610" type="line"/>
    </contour>
  </outline>
</glyph>
<glyph name="dollar" format="2">
  <advance width="1312"/>
  <unicode hex="0024"/>
  <anchor x="674" y="1460" name="Anchor-1"/>
  <anchor x="690" y="0" name="Anchor-0"/>
  <outline>
    <contour>
      <point x="1233" y="428" type="qcurve" smooth="yes"/>
      <point x="1233" y="338"/>
      <point x="1180" y="192"/>
      <point x="1089" y="93"/>
      <point x="962" y="24"/>
      <point x="821" y="-10"/>
      <point x="741" y="-14" type="qcurve"/>
      <point x="741" y="-252" type="line"/>
      <point x="592" y="-252" type="line"/>
      <point x="592" y="-12" type="line"/>
      <point x="452" y="0"/>
      <point x="176" y="92"/>
      <point x="68" y="164" type="qcurve"/>
      <point x="215" y="457" type="line"/>
      <point x="244" y="426"/>
      <point x="488" y="309"/>
      <point x="616" y="293" type="qcurve"/>
      <point x="616" y="563" type="line" smooth="yes"/>
      <point x="614" y="564"/>
      <point x="520" y="592" type="qcurve" smooth="yes"/>
      <point x="416" y="624"/>
      <point x="275" y="694"/>
      <point x="175" y="788"/>
      <point x="129" y="911"/>
      <point x="129" y="993" type="qcurve" smooth="yes"/>
      <point x="129" y="1129"/>
      <point x="254" y="1336"/>
      <point x="460" y="1449"/>
      <point x="592" y="1462" type="qcurve"/>
      <point x="592" y="1669" type="line"/>
      <point x="741" y="1669" type="line"/>
      <point x="741" y="1462" type="line"/>
      <point x="958" y="1442"/>
      <point x="1190" y="1307" type="qcurve"/>
      <point x="1042" y="1028" type="line"/>
      <point x="1024" y="1051"/>
      <point x="821" y="1148"/>
      <point x="719" y="1163" type="qcurve"/>
      <point x="719" y="885" type="line"/>
      <point x="729" y="883"/>
      <point x="770" y="871"/>
      <point x="780" y="868" type="qcurve" smooth="yes"/>
      <point x="871" y="843"/>
      <point x="999" y="794"/>
      <point x="1119" y="721"/>
      <point x="1191" y="633"/>
      <point x="1233" y="507"/>
    </contour>
    <contour>
      <point x="475" y="1047" type="qcurve" smooth="yes"/>
      <point x="475" y="1000"/>
      <point x="542" y="941"/>
      <point x="616" y="915" type="qcurve"/>
      <point x="616" y="1165" type="line"/>
      <point x="475" y="1153"/>
    </contour>
    <contour>
      <point x="719" y="287" type="line"/>
      <point x="872" y="296"/>
      <point x="872" y="395" type="qcurve" smooth="yes"/>
      <point x="872" y="443"/>
      <point x="796" y="505"/>
      <point x="719" y="532" type="qcurve"/>
    </contour>
  </outline>
</glyph>
<glyph name="percent" format="2">
  <advance width="1671"/>
  <unicode hex="0025"/>
  <outline>
    <contour>
      <point x="70" y="1159" type="qcurve" smooth="yes"/>
      <point x="70" y="1290"/>
      <point x="274" y="1475"/>
      <point x="420" y="1475" type="qcurve" smooth="yes"/>
      <point x="567" y="1475"/>
      <point x="770" y="1290"/>
      <point x="770" y="1159" type="qcurve" smooth="yes"/>
      <point x="770" y="1027"/>
      <point x="567" y="842"/>
      <point x="420" y="842" type="qcurve" smooth="yes"/>
      <point x="274" y="842"/>
      <point x="70" y="1027"/>
    </contour>
    <contour>
      <point x="211" y="115" type="line"/>
      <point x="788" y="778" type="line"/>
      <point x="1313" y="1473" type="line"/>
      <point x="1460" y="1341" type="line"/>
      <point x="901" y="694" type="line"/>
      <point x="356" y="-18" type="line"/>
    </contour>
    <contour>
      <point x="543" y="1224"/>
      <point x="471" y="1315"/>
      <point x="369" y="1315"/>
      <point x="297" y="1222"/>
      <point x="297" y="1159" type="qcurve" smooth="yes"/>
      <point x="297" y="1094"/>
      <point x="369" y="1001"/>
      <point x="471" y="1001"/>
      <point x="543" y="1094"/>
    </contour>
    <contour>
      <point x="901" y="295" type="qcurve" smooth="yes"/>
      <point x="901" y="427"/>
      <point x="1105" y="612"/>
      <point x="1251" y="612" type="qcurve" smooth="yes"/>
      <point x="1398" y="612"/>
      <point x="1602" y="427"/>
      <point x="1602" y="295" type="qcurve" smooth="yes"/>
      <point x="1602" y="164"/>
      <point x="1398" y="-20"/>
      <point x="1251" y="-20" type="qcurve" smooth="yes"/>
      <point x="1105" y="-20"/>
      <point x="901" y="164"/>
    </contour>
    <contour>
      <point x="1376" y="295" type="qcurve" smooth="yes"/>
      <point x="1376" y="359"/>
      <point x="1302" y="453"/>
      <point x="1200" y="453"/>
      <point x="1128" y="360"/>
      <point x="1128" y="230"/>
      <point x="1200" y="139"/>
      <point x="1302" y="139"/>
      <point x="1376" y="232"/>
    </contour>
  </outline>
</glyph>
<glyph name="ampersand" format="2">
  <advance width="1492"/>
  <unicode hex="0026"/>
  <outline>
    <contour>
      <point x="1499" y="0" type="line"/>
      <point x="1069" y="0" type="line"/>
      <point x="973" y="102" type="line"/>
      <point x="796" y="-20"/>
      <point x="578" y="-20" type="qcurve" smooth="yes"/>
      <point x="463" y="-20"/>
      <point x="271" y="55"/>
      <point x="146" y="181"/>
      <point x="78" y="340"/>
      <point x="78" y="426" type="qcurve" smooth="yes"/>
      <point x="78" y="548"/>
      <point x="201" y="736"/>
      <point x="307" y="817" type="qcurve"/>
      <point x="231" y="906"/>
      <point x="170" y="1036"/>
      <point x="170" y="1112" type="qcurve" smooth="yes"/>
      <point x="170" y="1276"/>
      <point x="402" y="1473"/>
      <point x="580" y="1473" type="qcurve" smooth="yes"/>
      <point x="643" y="1473"/>
      <point x="760" y="1448"/>
      <point x="865" y="1394"/>
      <point x="942" y="1317"/>
      <point x="987" y="1206"/>
      <point x="987" y="1139" type="qcurve" smooth="yes"/>
      <point x="987" y="939"/>
      <point x="766" y="770" type="qcurve"/>
      <point x="995" y="530" type="line"/>
      <point x="1051" y="661"/>
      <point x="1051" y="821" type="qcurve"/>
      <point x="1315" y="821" type="line"/>
      <point x="1315" y="538"/>
      <point x="1188" y="328" type="qcurve"/>
    </contour>
    <contour>
      <point x="580" y="1233" type="qcurve" smooth="yes"/>
      <point x="530" y="1233"/>
      <point x="467" y="1171"/>
      <point x="467" y="1124" type="qcurve" smooth="yes"/>
      <point x="467" y="1093"/>
      <point x="503" y="1043"/>
      <point x="563" y="983" type="qcurve"/>
      <point x="628" y="1025"/>
      <point x="686" y="1093"/>
      <point x="686" y="1135" type="qcurve" smooth="yes"/>
      <point x="686" y="1179"/>
      <point x="627" y="1233"/>
    </contour>
    <contour>
      <point x="612" y="236" type="qcurve" smooth="yes"/>
      <point x="709" y="236"/>
      <point x="797" y="291" type="qcurve"/>
      <point x="508" y="598" type="line"/>
      <point x="391" y="512"/>
      <point x="391" y="424" type="qcurve" smooth="yes"/>
      <point x="391" y="352"/>
      <point x="512" y="236"/>
    </contour>
  </outline>
</glyph>
<glyph name="parenleft" format="2">
  <advance width="665"/>
  <unicode hex="0028"/>
  <outline>
    <contour>
      <point x="373" y="1565" type="qcurve"/>
      <point x="623" y="1462" type="line"/>
      <point x="589" y="1409"/>
      <point x="511" y="1254"/>
      <point x="424" y="1045"/>
      <point x="367" y="806"/>
      <point x="367" y="705" type="qcurve" smooth="yes"/>
      <point x="367" y="552"/>
      <point x="494" y="211"/>
      <point x="614" y="-4" type="qcurve"/>
      <point x="377" y="-121" type="line"/>
      <point x="61" y="351"/>
      <point x="61" y="711" type="qcurve" smooth="yes"/>
      <point x="61" y="903"/>
      <point x="221" y="1306"/>
    </contour>
  </outline>
</glyph>
<glyph name="parenright" format="2">
  <advance width="663"/>
  <unicode hex="0029"/>
  <outline>
    <contour>
      <point x="287" y="-121" type="qcurve"/>
      <point x="49" y="-4" type="line"/>
      <point x="169" y="212"/>
      <point x="297" y="552"/>
      <point x="297" y="705" type="qcurve" smooth="yes"/>
      <point x="297" y="806"/>
      <point x="240" y="1045"/>
      <point x="153" y="1254"/>
      <point x="75" y="1409"/>
      <point x="41" y="1462" type="qcurve"/>
      <point x="291" y="1565" type="line"/>
      <point x="442" y="1307"/>
      <point x="602" y="903"/>
      <point x="602" y="711" type="qcurve" smooth="yes"/>
      <point x="602" y="350"/>
    </contour>
  </outline>
</glyph>
<glyph name="asterisk" format="2">
  <advance width="724"/>
  <unicode hex="002A"/>
  <outline>
    <contour>
      <point x="145" y="1044" type="line"/>
      <point x="242" y="1198" type="line"/>
      <point x="96" y="1241" type="line"/>
      <point x="139" y="1378" type="line"/>
      <point x="289" y="1309" type="line"/>
      <point x="276" y="1473" type="line"/>
      <point x="446" y="1473" type="line"/>
      <point x="434" y="1309" type="line"/>
      <point x="586" y="1378" type="line"/>
      <point x="629" y="1241" type="line"/>
      <point x="483" y="1198" type="line"/>
      <point x="580" y="1044" type="line"/>
      <point x="459" y="965" type="line"/>
      <point x="362" y="1126" type="line"/>
      <point x="266" y="965" type="line"/>
    </contour>
  </outline>
</glyph>
<glyph name="plus" format="2">
  <advance width="868"/>
  <unicode hex="002B"/>
  <outline>
    <contour>
      <point x="776" y="858" type="line"/>
      <point x="776" y="596" type="line"/>
      <point x="582" y="596" type="line"/>
      <point x="582" y="383" type="line"/>
      <point x="287" y="383" type="line"/>
      <point x="287" y="596" type="line"/>
      <point x="94" y="596" type="line"/>
      <point x="94" y="858" type="line"/>
      <point x="287" y="858" type="line"/>
      <point x="287" y="1071" type="line"/>
      <point x="582" y="1071" type="line"/>
      <point x="582" y="858" type="line"/>
    </contour>
  </outline>
</glyph>
<glyph name="comma" format="2">
  <advance width="497"/>
  <unicode hex="002C"/>
  <outline>
    <contour>
      <point x="147" y="-276" type="line"/>
      <point x="211" y="4" type="line"/>
      <point x="111" y="4" type="line"/>
      <point x="111" y="334" type="line"/>
      <point x="387" y="334" type="line"/>
      <point x="387" y="4" type="line"/>
      <point x="291" y="-276" type="line"/>
    </contour>
  </outline>
</glyph>
<glyph name="hyphen" format="2">
  <advance width="851"/>
  <unicode hex="002D"/>
  <outline>
    <contour>
      <point x="111" y="416" type="line"/>
      <point x="111" y="711" type="line"/>
      <point x="741" y="711" type="line"/>
      <point x="741" y="416" type="line"/>
    </contour>
  </outline>
</glyph>
<glyph name="period" format="2">
  <advance width="489"/>
  <unicode hex="002E"/>
  <outline>
    <contour>
      <point x="111" y="0" type="line"/>
      <point x="111" y="334" type="line"/>
      <point x="379" y="334" type="line"/>
      <point x="379" y="0" type="line"/>
    </contour>
  </outline>
</glyph>
<glyph name="slash" format="2">
  <advance width="1505"/>
  <unicode hex="002F"/>
  <outline>
    <contour>
      <point x="1450" y="1454" type="line"/>
      <point x="416" y="0" type="line"/>
      <point x="53" y="0" type="line"/>
      <point x="1087" y="1454" type="line"/>
    </contour>
  </outline>
</glyph>
<glyph name="zero" format="2">
  <advance width="1447"/>
  <unicode hex="0030"/>
  <outline>
    <contour>
      <point x="80" y="717" type="qcurve" smooth="yes"/>
      <point x="80" y="822"/>
      <point x="136" y="1033"/>
      <point x="249" y="1222"/>
      <point x="401" y="1368"/>
      <point x="608" y="1454"/>
      <point x="723" y="1454" type="qcurve" smooth="yes"/>
      <point x="846" y="1454"/>
      <point x="1060" y="1362"/>
      <point x="1209" y="1210"/>
      <point x="1317" y="1017"/>
      <point x="1368" y="814"/>
      <point x="1368" y="717" type="qcurve" smooth="yes"/>
      <point x="1368" y="611"/>
      <point x="1311" y="399"/>
      <point x="1199" y="211"/>
      <point x="1047" y="66"/>
      <point x="839" y="-19"/>
      <point x="723" y="-20" type="qcurve" smooth="yes"/>
      <point x="620" y="-20"/>
      <point x="437" y="44"/>
      <point x="298" y="154"/>
      <point x="187" y="298"/>
      <point x="117" y="463"/>
      <point x="80" y="634"/>
    </contour>
    <contour>
      <point x="723" y="279" type="qcurve" smooth="yes"/>
      <point x="801" y="279"/>
      <point x="924" y="363"/>
      <point x="993" y="497"/>
      <point x="1028" y="644"/>
      <point x="1028" y="717" type="qcurve" smooth="yes"/>
      <point x="1028" y="796"/>
      <point x="990" y="948"/>
      <point x="917" y="1077"/>
      <point x="797" y="1155"/>
      <point x="723" y="1155" type="qcurve" smooth="yes"/>
      <point x="646" y="1155"/>
      <point x="524" y="1071"/>
      <point x="455" y="937"/>
      <point x="420" y="790"/>
      <point x="420" y="717" type="qcurve" smooth="yes"/>
      <point x="421" y="637"/>
      <point x="458" y="486"/>
      <point x="529" y="357"/>
      <point x="648" y="279"/>
    </contour>
  </outline>
</glyph>
<glyph name="one" format="2">
  <advance width="1060"/>
  <unicode hex="0031"/>
  <outline>
    <contour>
      <point x="1016" y="295" type="line"/>
      <point x="1016" y="0" type="line"/>
      <point x="133" y="0" type="line"/>
      <point x="133" y="295" type="line"/>
      <point x="422" y="295" type="line"/>
      <point x="422" y="1145" type="line"/>
      <point x="385" y="1093"/>
      <point x="164" y="969"/>
      <point x="86" y="969" type="qcurve"/>
      <point x="86" y="1270" type="line"/>
      <point x="127" y="1270"/>
      <point x="226" y="1309"/>
      <point x="308" y="1364"/>
      <point x="380" y="1423"/>
      <point x="420" y="1462"/>
      <point x="422" y="1466" type="qcurve"/>
      <point x="756" y="1466" type="line"/>
      <point x="756" y="295" type="line"/>
    </contour>
  </outline>
</glyph>
<glyph name="two" format="2">
  <advance width="1267"/>
  <unicode hex="0032"/>
  <outline>
    <contour>
      <point x="80" y="0" type="line"/>
      <point x="80" y="259"/>
      <point x="200" y="529"/>
      <point x="371" y="633" type="qcurve" smooth="yes"/>
      <point x="408" y="656"/>
      <point x="553" y="733"/>
      <point x="642" y="786"/>
      <point x="742" y="865"/>
      <point x="791" y="958"/>
      <point x="791" y="1014" type="qcurve" smooth="yes"/>
      <point x="791" y="1094"/>
      <point x="694" y="1180"/>
      <point x="614" y="1180" type="qcurve" smooth="yes"/>
      <point x="524" y="1180"/>
      <point x="352" y="1085"/>
      <point x="287" y="1018" type="qcurve"/>
      <point x="82" y="1235" type="line"/>
      <point x="163" y="1327"/>
      <point x="469" y="1470"/>
      <point x="659" y="1470" type="qcurve" smooth="yes"/>
      <point x="898" y="1470"/>
      <point x="1163" y="1234"/>
      <point x="1163" y="1034" type="qcurve" smooth="yes"/>
      <point x="1163" y="967"/>
      <point x="1129" y="849"/>
      <point x="1073" y="758"/>
      <point x="986" y="672"/>
      <point x="897" y="607"/>
      <point x="838" y="571" type="qcurve" smooth="yes"/>
      <point x="665" y="473"/>
      <point x="527" y="361"/>
      <point x="487" y="295" type="qcurve"/>
      <point x="1165" y="295" type="line"/>
      <point x="1165" y="0" type="line"/>
    </contour>
  </outline>
</glyph>
<glyph name="six" format="2">
  <advance width="1245"/>
  <unicode hex="0036"/>
  <outline>
    <contour>
      <point x="657" y="969" type="qcurve" smooth="yes"/>
      <point x="476" y="969"/>
      <point x="389" y="852" type="qcurve"/>
      <point x="393" y="1008"/>
      <point x="535" y="1182"/>
      <point x="655" y="1182" type="qcurve" smooth="yes"/>
      <point x="736" y="1182"/>
      <point x="881" y="1108"/>
      <point x="932" y="1042" type="qcurve"/>
      <point x="1116" y="1251" type="line"/>
      <point x="1028" y="1355"/>
      <point x="795" y="1466"/>
      <point x="662" y="1466" type="qcurve" smooth="yes"/>
      <point x="394" y="1466"/>
      <point x="88" y="1048"/>
      <point x="88" y="670" type="qcurve" smooth="yes"/>
      <point x="88" y="345"/>
      <point x="375" y="-20"/>
      <point x="629" y="-20" type="qcurve" smooth="yes"/>
      <point x="779" y="-20"/>
      <point x="1025" y="115"/>
      <point x="1165" y="348"/>
      <point x="1165" y="489" type="qcurve" smooth="yes"/>
      <point x="1165" y="693"/>
      <point x="874" y="969"/>
    </contour>
    <contour>
      <point x="403" y="489" type="qcurve" smooth="yes"/>
      <point x="403" y="581"/>
      <point x="535" y="711"/>
      <point x="629" y="711" type="qcurve" smooth="yes"/>
      <point x="722" y="711"/>
      <point x="854" y="581"/>
      <point x="854" y="489" type="qcurve" smooth="yes"/>
      <point x="854" y="394"/>
      <point x="720" y="256"/>
      <point x="538" y="256"/>
      <point x="403" y="394"/>
    </contour>
  </outline>
</glyph>
<glyph name="eight" format="2">
  <advance width="1243"/>
  <unicode hex="0038"/>
  <outline>
    <contour>
      <point x="621" y="-18" type="qcurve" smooth="yes"/>
      <point x="475" y="-18"/>
      <point x="231" y="98"/>
      <point x="84" y="315"/>
      <point x="84" y="453" type="qcurve" smooth="yes"/>
      <point x="84" y="560"/>
      <point x="203" y="725"/>
      <point x="287" y="776" type="qcurve"/>
      <point x="218" y="814"/>
      <point x="127" y="958"/>
      <point x="127" y="1114"/>
      <point x="187" y="1251"/>
      <point x="287" y="1349"/>
      <point x="415" y="1420"/>
      <point x="553" y="1454"/>
      <point x="621" y="1454" type="qcurve" smooth="yes"/>
      <point x="707" y="1454"/>
      <point x="879" y="1399"/>
      <point x="1026" y="1299"/>
      <point x="1118" y="1137"/>
      <point x="1118" y="1040" type="qcurve" smooth="yes"/>
      <point x="1118" y="962"/>
      <point x="1023" y="812"/>
      <point x="954" y="776" type="qcurve"/>
      <point x="1040" y="725"/>
      <point x="1159" y="552"/>
      <point x="1159" y="440" type="qcurve" smooth="yes"/>
      <point x="1159" y="305"/>
      <point x="1013" y="94"/>
      <point x="769" y="-18"/>
    </contour>
    <contour>
      <point x="621" y="887" type="qcurve" smooth="yes"/>
      <point x="685" y="887"/>
      <point x="784" y="964"/>
      <point x="784" y="1030" type="qcurve" smooth="yes"/>
      <point x="784" y="1088"/>
      <point x="689" y="1165"/>
      <point x="553" y="1165"/>
      <point x="459" y="1088"/>
      <point x="459" y="1030" type="qcurve" smooth="yes"/>
      <point x="459" y="963"/>
      <point x="558" y="887"/>
    </contour>
    <contour>
      <point x="621" y="641" type="qcurve" smooth="yes"/>
      <point x="534" y="641"/>
      <point x="416" y="540"/>
      <point x="416" y="459" type="qcurve" smooth="yes"/>
      <point x="416" y="381"/>
      <point x="539" y="279"/>
      <point x="707" y="279"/>
      <point x="827" y="384"/>
      <point x="827" y="461" type="qcurve" smooth="yes"/>
      <point x="827" y="544"/>
      <point x="707" y="641"/>
    </contour>
  </outline>
</glyph>
<glyph name="colon" format="2">
  <advance width="561"/>
  <unicode hex="003A"/>
  <outline>
    <contour>
      <point x="147" y="729" type="line"/>
      <point x="147" y="1063" type="line"/>
      <point x="414" y="1063" type="line"/>
      <point x="414" y="729" type="line"/>
    </contour>
    <contour>
      <point x="147" y="0" type="line"/>
      <point x="147" y="334" type="line"/>
      <point x="414" y="334" type="line"/>
      <point x="414" y="0" type="line"/>
    </contour>
  </outline>
</glyph>
<glyph name="semicolon" format="2">
  <advance width="573"/>
  <unicode hex="003B"/>
  <outline>
    <contour>
      <point x="152" y="729" type="line"/>
      <point x="152" y="1063" type="line"/>
      <point x="418" y="1063" type="line"/>
      <point x="418" y="729" type="line"/>
    </contour>
    <contour>
      <point x="184" y="-276" type="line"/>
      <point x="250" y="4" type="line"/>
      <point x="150" y="4" type="line"/>
      <point x="150" y="334" type="line"/>
      <point x="426" y="334" type="line"/>
      <point x="426" y="4" type="line"/>
      <point x="330" y="-276" type="line"/>
    </contour>
  </outline>
</glyph>
<glyph name="less" format="2">
  <advance width="1060"/>
  <unicode hex="003C"/>
  <outline>
    <contour>
      <point x="66" y="600" type="line"/>
      <point x="930" y="1124" type="line"/>
      <point x="930" y="776" type="line"/>
      <point x="541" y="530" type="line"/>
      <point x="930" y="299" type="line"/>
      <point x="930" y="-68" type="line"/>
      <point x="66" y="444" type="line"/>
    </contour>
  </outline>
</glyph>
<glyph name="equal" format="2">
  <advance width="890"/>
  <unicode hex="003D"/>
  <outline>
    <contour>
      <point x="121" y="668" type="line"/>
      <point x="121" y="877" type="line"/>
      <point x="770" y="877" type="line"/>
      <point x="770" y="668" type="line"/>
    </contour>
    <contour>
      <point x="121" y="254" type="line"/>
      <point x="121" y="463" type="line"/>
      <point x="770" y="463" type="line"/>
      <point x="770" y="254" type="line"/>
    </contour>
  </outline>
</glyph>
<glyph name="greater" format="2">
  <advance width="1060"/>
  <unicode hex="003E"/>
  <outline>
    <contour>
      <point x="995" y="444" type="line"/>
      <point x="129" y="-68" type="line"/>
      <point x="129" y="299" type="line"/>
      <point x="520" y="530" type="line"/>
      <point x="129" y="776" type="line"/>
      <point x="129" y="1124" type="line"/>
      <point x="995" y="600" type="line"/>
    </contour>
  </outline>
</glyph>
<glyph name="question" format="2">
  <advance width="1003"/>
  <unicode hex="003F"/>
  <outline>
    <contour>
      <point x="223" y="502" type="line"/>
      <point x="223" y="610"/>
      <point x="290" y="759"/>
      <point x="389" y="813" type="qcurve" smooth="yes"/>
      <point x="397" y="818"/>
      <point x="467" y="855"/>
      <point x="512" y="880"/>
      <point x="579" y="928"/>
      <point x="619" y="972"/>
      <point x="649" y="1033"/>
      <point x="649" y="1065" type="qcurve" smooth="yes"/>
      <point x="649" y="1130"/>
      <point x="553" y="1208"/>
      <point x="487" y="1208" type="qcurve" smooth="yes"/>
      <point x="449" y="1208"/>
      <point x="382" y="1181"/>
      <point x="329" y="1128"/>
      <point x="300" y="1091"/>
      <point x="281" y="1061" type="qcurve"/>
      <point x="70" y="1208" type="line"/>
      <point x="124" y="1332"/>
      <point x="354" y="1473"/>
      <point x="500" y="1473" type="qcurve" smooth="yes"/>
      <point x="581" y="1473"/>
      <point x="730" y="1426"/>
      <point x="858" y="1332"/>
      <point x="934" y="1169"/>
      <point x="934" y="1063" type="qcurve" smooth="yes"/>
      <point x="934" y="950"/>
      <point x="839" y="791"/>
      <point x="743" y="729" type="qcurve" smooth="yes"/>
      <point x="717" y="712"/>
      <point x="631" y="666"/>
      <point x="578" y="634"/>
      <point x="521" y="590"/>
      <point x="494" y="535"/>
      <point x="494" y="502" type="qcurve"/>
    </contour>
    <contour>
      <point x="229" y="0" type="line"/>
      <point x="229" y="307" type="line"/>
      <point x="498" y="307" type="line"/>
      <point x="498" y="0" type="line"/>
    </contour>
  </outline>
</glyph>
<glyph name="at" format="2">
  <advance width="1736"/>
  <unicode hex="0040"/>
  <outline>
    <contour>
      <point x="1640" y="453" type="qcurve" smooth="yes"/>
      <point x="1640" y="421"/>
      <point x="1637" y="358"/>
      <point x="1622" y="257"/>
      <point x="1597" y="170"/>
      <point x="1547" y="76"/>
      <point x="1482" y="10"/>
      <point x="1380" y="-33"/>
      <point x="1317" y="-33" type="qcurve" smooth="yes"/>
      <point x="1216" y="-33"/>
      <point x="1123" y="60"/>
      <point x="1114" y="127" type="qcurve"/>
      <point x="1048" y="63"/>
      <point x="866" y="-8"/>
      <point x="766" y="-8" type="qcurve" smooth="yes"/>
      <point x="616" y="-8"/>
      <point x="451" y="151"/>
      <point x="451" y="283" type="qcurve" smooth="yes"/>
      <point x="451" y="350"/>
      <point x="495" y="457"/>
      <point x="568" y="525"/>
      <point x="668" y="571"/>
      <point x="775" y="590"/>
      <point x="834" y="590" type="qcurve" smooth="yes"/>
      <point x="950" y="590"/>
      <point x="1055" y="547" type="qcurve"/>
      <point x="1055" y="654"/>
      <point x="954" y="768"/>
      <point x="827" y="768" type="qcurve" smooth="yes"/>
      <point x="662" y="768"/>
      <point x="561" y="680" type="qcurve"/>
      <point x="504" y="850" type="line"/>
      <point x="653" y="952"/>
      <point x="860" y="952" type="qcurve" smooth="yes"/>
      <point x="921" y="952"/>
      <point x="1022" y="934"/>
      <point x="1097" y="904"/>
      <point x="1156" y="856"/>
      <point x="1194" y="808"/>
      <point x="1222" y="741"/>
      <point x="1237" y="686"/>
      <point x="1245" y="610"/>
      <point x="1247" y="557"/>
      <point x="1247" y="520" type="qcurve" smooth="yes"/>
      <point x="1247" y="352" type="line" smooth="yes"/>
      <point x="1247" y="309"/>
      <point x="1250" y="250"/>
      <point x="1261" y="180"/>
      <point x="1282" y="138"/>
      <point x="1321" y="109"/>
      <point x="1348" y="109" type="qcurve" smooth="yes"/>
      <point x="1397" y="109"/>
      <point x="1466" y="187"/>
      <point x="1497" y="309"/>
      <point x="1509" y="412"/>
      <point x="1509" y="461" type="qcurve" smooth="yes"/>
      <point x="1509" y="647"/>
      <point x="1349" y="941"/>
      <point x="1050" y="1110"/>
      <point x="856" y="1110" type="qcurve" smooth="yes"/>
      <point x="665" y="1110"/>
      <point x="371" y="945"/>
      <point x="213" y="654"/>
      <point x="213" y="469" type="qcurve" smooth="yes"/>
      <point x="213" y="336"/>
      <point x="299" y="102"/>
      <point x="456" y="-73"/>
      <point x="689" y="-174"/>
      <point x="829" y="-174" type="qcurve" smooth="yes"/>
      <point x="892" y="-174"/>
      <point x="1017" y="-148"/>
      <point x="1078" y="-125"/>
      <point x="1151" y="-96" type="qcurve"/>
      <point x="1188" y="-217" type="line"/>
      <point x="1017" y="-299"/>
      <point x="825" y="-299" type="qcurve" smooth="yes"/>
      <point x="672" y="-299"/>
      <point x="400" y="-188"/>
      <point x="199" y="10"/>
      <point x="82" y="302"/>
      <point x="82" y="473" type="qcurve" smooth="yes"/>
      <point x="82" y="652"/>
      <point x="210" y="945"/>
      <point x="428" y="1133"/>
      <point x="709" y="1235"/>
      <point x="866" y="1235" type="qcurve" smooth="yes"/>
      <point x="988" y="1235"/>
      <point x="1214" y="1174"/>
      <point x="1411" y="1047"/>
      <point x="1556" y="865"/>
      <point x="1640" y="607"/>
    </contour>
    <contour>
      <point x="1053" y="317" type="qcurve" smooth="yes"/>
      <point x="1053" y="399" type="line"/>
      <point x="926" y="438"/>
      <point x="836" y="438" type="qcurve" smooth="yes"/>
      <point x="643" y="438"/>
      <point x="643" y="287" type="qcurve" smooth="yes"/>
      <point x="643" y="222"/>
      <point x="717" y="152"/>
      <point x="788" y="152" type="qcurve" smooth="yes"/>
      <point x="886" y="152"/>
      <point x="958" y="190" type="qcurve" smooth="yes"/>
      <point x="1002" y="211"/>
      <point x="1053" y="278"/>
    </contour>
  </outline>
</glyph>
<glyph name="C" format="2">
  <advance width="1409"/>
  <unicode hex="0043"/>
  <anchor x="0" y="0" name="Anchor-11"/>
  <anchor x="0" y="0" name="Anchor-10"/>
  <anchor x="782" y="1452" name="Anchor-9"/>
  <anchor x="0" y="0" name="Anchor-8"/>
  <anchor x="772" y="0" name="Anchor-7"/>
  <outline>
    <contour>
      <point x="784" y="1462" type="qcurve" smooth="yes"/>
      <point x="983" y="1462"/>
      <point x="1289" y="1290"/>
      <point x="1364" y="1145" type="qcurve"/>
      <point x="1106" y="965" type="line"/>
      <point x="1082" y="1020"/>
      <point x="1006" y="1101"/>
      <point x="915" y="1144"/>
      <point x="824" y="1163"/>
      <point x="776" y="1163" type="qcurve" smooth="yes"/>
      <point x="701" y="1163"/>
      <point x="575" y="1113"/>
      <point x="487" y="1028"/>
      <point x="426" y="915"/>
      <point x="397" y="792"/>
      <point x="397" y="727" type="qcurve" smooth="yes"/>
      <point x="397" y="611"/>
      <point x="490" y="411"/>
      <point x="667" y="287"/>
      <point x="780" y="287" type="qcurve" smooth="yes"/>
      <point x="845" y="287"/>
      <point x="966" y="325"/>
      <point x="1078" y="418"/>
      <point x="1106" y="487" type="qcurve"/>
      <point x="1380" y="326" type="line"/>
      <point x="1339" y="223"/>
      <point x="1139" y="65"/>
      <point x="896" y="-12"/>
      <point x="772" y="-12" type="qcurve" smooth="yes"/>
      <point x="619" y="-12"/>
      <point x="347" y="118"/>
      <point x="162" y="329"/>
      <point x="55" y="600"/>
      <point x="55" y="739" type="qcurve" smooth="yes"/>
      <point x="55" y="845"/>
      <point x="117" y="1053"/>
      <point x="243" y="1238"/>
      <point x="415" y="1379"/>
      <point x="650" y="1462"/>
    </contour>
  </outline>
</glyph>
<glyph name="G" format="2">
  <advance width="1499"/>
  <unicode hex="0047"/>
  <anchor x="0" y="0" name="Anchor-11"/>
  <anchor x="0" y="0" name="Anchor-10"/>
  <anchor x="782" y="1452" name="Anchor-9"/>
  <anchor x="0" y="0" name="Anchor-8"/>
  <anchor x="758" y="0" name="Anchor-7"/>
  <outline>
    <contour>
      <point x="856" y="760" type="line"/>
      <point x="1417" y="760" type="line"/>
      <point x="1417" y="0" type="line"/>
      <point x="1139" y="0" type="line"/>
      <point x="1139" y="143" type="line"/>
      <point x="973" y="-10"/>
      <point x="756" y="-10" type="qcurve" smooth="yes"/>
      <point x="614" y="-10"/>
      <point x="358" y="100"/>
      <point x="169" y="293"/>
      <point x="57" y="574"/>
      <point x="57" y="737" type="qcurve" smooth="yes"/>
      <point x="57" y="885"/>
      <point x="169" y="1154"/>
      <point x="360" y="1349"/>
      <point x="630" y="1464"/>
      <point x="782" y="1464" type="qcurve" smooth="yes"/>
      <point x="981" y="1464"/>
      <point x="1288" y="1295"/>
      <point x="1364" y="1147" type="qcurve"/>
      <point x="1114" y="958" type="line"/>
      <point x="1065" y="1054"/>
      <point x="878" y="1165"/>
      <point x="770" y="1165" type="qcurve" smooth="yes"/>
      <point x="606" y="1165"/>
      <point x="397" y="912"/>
      <point x="397" y="725" type="qcurve" smooth="yes"/>
      <point x="397" y="535"/>
      <point x="614" y="289"/>
      <point x="784" y="289" type="qcurve" smooth="yes"/>
      <point x="983" y="289"/>
      <point x="1139" y="471" type="qcurve"/>
      <point x="1139" y="516" type="line"/>
      <point x="856" y="516" type="line"/>
    </contour>
  </outline>
</glyph>
<glyph name="I" format="2">
  <advance width="614"/>
  <unicode hex="0049"/>
  <anchor x="0" y="0" name="Anchor-11"/>
  <anchor x="0" y="0" name="Anchor-10"/>
  <anchor x="307" y="1452" name="Anchor-9"/>
  <anchor x="475" y="0" name="Anchor-8"/>
  <anchor x="307" y="0" name="Anchor-7"/>
  <outline>
    <contour>
      <point x="139" y="0" type="line"/>
      <point x="139" y="1454" type="line"/>
      <point x="475" y="1454" type="line"/>
      <point x="475" y="0" type="line"/>
    </contour>
  </outline>
</glyph>
<glyph name="K" format="2">
  <advance width="1390"/>
  <unicode hex="004B"/>
  <anchor x="0" y="0" name="Anchor-11"/>
  <anchor x="0" y="0" name="Anchor-10"/>
  <anchor x="0" y="0" name="Anchor-9"/>
  <anchor x="0" y="0" name="Anchor-8"/>
  <anchor x="739" y="0" name="Anchor-7"/>
  <outline>
    <contour>
      <point x="139" y="0" type="line"/>
      <point x="139" y="1454" type="line"/>
      <point x="475" y="1454" type="line"/>
      <point x="475" y="827" type="line"/>
      <point x="1008" y="1454" type="line"/>
      <point x="1384" y="1454" type="line"/>
      <point x="840" y="805" type="line"/>
      <point x="1421" y="0" type="line"/>
      <point x="1036" y="0" type="line"/>
      <point x="627" y="584" type="line"/>
      <point x="475" y="428" type="line"/>
      <point x="475" y="0" type="line"/>
    </contour>
  </outline>
</glyph>
<glyph name="M" format="2">
  <advance width="1761"/>
  <unicode hex="004D"/>
  <anchor x="0" y="0" name="Anchor-11"/>
  <anchor x="0" y="0" name="Anchor-10"/>
  <anchor x="881" y="1454" name="Anchor-9"/>
  <anchor x="0" y="0" name="Anchor-8"/>
  <anchor x="881" y="0" name="Anchor-7"/>
  <outline>
    <contour>
      <point x="1286" y="0" type="line"/>
      <point x="1286" y="866" type="line"/>
      <point x="973" y="236" type="line"/>
      <point x="788" y="236" type="line"/>
      <point x="475" y="866" type="line"/>
      <point x="475" y="0" type="line"/>
      <point x="139" y="0" type="line"/>
      <point x="139" y="1454" type="line"/>
      <point x="504" y="1454" type="line"/>
      <point x="881" y="694" type="line"/>
      <point x="1260" y="1454" type="line"/>
      <point x="1622" y="1454" type="line"/>
      <point x="1622" y="0" type="line"/>
    </contour>
  </outline>
</glyph>
<glyph name="Q" format="2">
  <advance width="1554"/>
  <unicode hex="0051"/>
  <outline>
    <contour>
      <point x="1522" y="0" type="line"/>
      <point x="1206" y="0" type="line"/>
      <point x="1130" y="82" type="line"/>
      <point x="965" y="-10"/>
      <point x="776" y="-10" type="qcurve" smooth="yes"/>
      <point x="619" y="-10"/>
      <point x="345" y="116"/>
      <point x="160" y="322"/>
      <point x="55" y="589"/>
      <point x="55" y="729" type="qcurve" smooth="yes"/>
      <point x="55" y="921"/>
      <point x="241" y="1257"/>
      <point x="578" y="1464"/>
      <point x="782" y="1464" type="qcurve" smooth="yes"/>
      <point x="939" y="1464"/>
      <point x="1213" y="1336"/>
      <point x="1396" y="1127"/>
      <point x="1501" y="861"/>
      <point x="1501" y="723" type="qcurve" smooth="yes"/>
      <point x="1501" y="587"/>
      <point x="1403" y="331"/>
      <point x="1313" y="231" type="qcurve"/>
    </contour>
    <contour>
      <point x="778" y="289" type="qcurve" smooth="yes"/>
      <point x="852" y="289"/>
      <point x="922" y="315" type="qcurve"/>
      <point x="688" y="573" type="line"/>
      <point x="1004" y="573" type="line"/>
      <point x="1094" y="473" type="line"/>
      <point x="1159" y="583"/>
      <point x="1159" y="729" type="qcurve" smooth="yes"/>
      <point x="1159" y="814"/>
      <point x="1108" y="970"/>
      <point x="1014" y="1092"/>
      <point x="867" y="1165"/>
      <point x="778" y="1165" type="qcurve" smooth="yes"/>
      <point x="686" y="1165"/>
      <point x="538" y="1090"/>
      <point x="446" y="964"/>
      <point x="397" y="809"/>
      <point x="397" y="725" type="qcurve" smooth="yes"/>
      <point x="397" y="640"/>
      <point x="447" y="485"/>
      <point x="541" y="362"/>
      <point x="688" y="289"/>
    </contour>
  </outline>
</glyph>
<glyph name="R" format="2">
  <advance width="1372"/>
  <unicode hex="0052"/>
  <anchor x="0" y="0" name="Anchor-11"/>
  <anchor x="0" y="0" name="Anchor-10"/>
  <anchor x="647" y="1452" name="Anchor-9"/>
  <anchor x="0" y="0" name="Anchor-8"/>
  <anchor x="713" y="0" name="Anchor-7"/>
  <outline>
    <contour>
      <point x="139" y="0" type="line"/>
      <point x="139" y="1454" type="line"/>
      <point x="795" y="1454" type="line" smooth="yes"/>
      <point x="927" y="1454"/>
      <point x="1149" y="1309"/>
      <point x="1270" y="1084"/>
      <point x="1270" y="963" type="qcurve" smooth="yes"/>
      <point x="1270" y="830"/>
      <point x="1141" y="601"/>
      <point x="1032" y="541" type="qcurve"/>
      <point x="1352" y="0" type="line"/>
      <point x="981" y="0" type="line"/>
      <point x="702" y="469" type="line"/>
      <point x="475" y="469" type="line"/>
      <point x="475" y="0" type="line"/>
    </contour>
    <contour>
      <point x="475" y="762" type="line"/>
      <point x="782" y="762" type="line" smooth="yes"/>
      <point x="843" y="762"/>
      <point x="928" y="876"/>
      <point x="928" y="963" type="qcurve" smooth="yes"/>
      <point x="928" y="1048"/>
      <point x="832" y="1159"/>
      <point x="772" y="1159" type="qcurve" smooth="yes"/>
      <point x="475" y="1159" type="line"/>
    </contour>
  </outline>
</glyph>
<glyph name="T" format="2">
  <advance width="1271"/>
  <unicode hex="0054"/>
  <anchor x="0" y="0" name="Anchor-11"/>
  <anchor x="0" y="0" name="Anchor-10"/>
  <anchor x="649" y="1452" name="Anchor-9"/>
  <anchor x="0" y="0" name="Anchor-8"/>
  <anchor x="637" y="0" name="Anchor-7"/>
  <outline>
    <contour>
      <point x="1247" y="1159" type="line"/>
      <point x="805" y="1159" type="line"/>
      <point x="805" y="0" type="line"/>
      <point x="469" y="0" type="line"/>
      <point x="469" y="1159" type="line"/>
      <point x="25" y="1159" type="line"/>
      <point x="25" y="1454" type="line"/>
      <point x="1247" y="1454" type="line"/>
    </contour>
  </outline>
</glyph>
<glyph name="U" format="2">
  <advance width="1529"/>
  <unicode hex="0055"/>
  <anchor x="1391" y="1311" name="Anchor-11"/>
  <anchor x="0" y="0" name="Anchor-10"/>
  <anchor x="764" y="1452" name="Anchor-9"/>
  <anchor x="940" y="10" name="Anchor-8"/>
  <anchor x="764" y="0" name="Anchor-7"/>
  <outline>
    <contour>
      <point x="764" y="-12" type="qcurve" smooth="yes"/>
      <point x="628" y="-12"/>
      <point x="409" y="66"/>
      <point x="262" y="199"/>
      <point x="163" y="385"/>
      <point x="119" y="594"/>
      <point x="119" y="711" type="qcurve" smooth="yes"/>
      <point x="119" y="1454" type="line"/>
      <point x="455" y="1454" type="line"/>
      <point x="455" y="711" type="line" smooth="yes"/>
      <point x="455" y="624"/>
      <point x="489" y="477"/>
      <point x="559" y="356"/>
      <point x="682" y="287"/>
      <point x="764" y="287" type="qcurve" smooth="yes"/>
      <point x="847" y="287"/>
      <point x="971" y="358"/>
      <point x="1040" y="481"/>
      <point x="1073" y="626"/>
      <point x="1073" y="711" type="qcurve" smooth="yes"/>
      <point x="1073" y="1454" type="line"/>
      <point x="1409" y="1454" type="line"/>
      <point x="1409" y="711" type="line" smooth="yes"/>
      <point x="1409" y="557"/>
      <point x="1332" y="299"/>
      <point x="1179" y="100"/>
      <point x="928" y="-12"/>
    </contour>
  </outline>
</glyph>
<glyph name="V" format="2">
  <advance width="1380"/>
  <unicode hex="0056"/>
  <outline>
    <contour>
      <point x="350" y="1454" type="line"/>
      <point x="692" y="393" type="line"/>
      <point x="1030" y="1454" type="line"/>
      <point x="1384" y="1454" type="line"/>
      <point x="856" y="0" type="line"/>
      <point x="526" y="0" type="line"/>
      <point x="-6" y="1454" type="line"/>
    </contour>
  </outline>
</glyph>
<glyph name="W" format="2">
  <advance width="2160"/>
  <unicode hex="0057"/>
  <anchor x="0" y="0" name="Anchor-11"/>
  <anchor x="0" y="0" name="Anchor-10"/>
  <anchor x="1079" y="1452" name="Anchor-9"/>
  <anchor x="0" y="0" name="Anchor-8"/>
  <anchor x="0" y="0" name="Anchor-7"/>
  <outline>
    <contour>
      <point x="618" y="1452" type="line"/>
      <point x="928" y="1452" type="line"/>
      <point x="1079" y="987" type="line"/>
      <point x="1231" y="1452" type="line"/>
      <point x="1542" y="1452" type="line"/>
      <point x="1294" y="776" type="line"/>
      <point x="1442" y="389" type="line"/>
      <point x="1806" y="1454" type="line"/>
      <point x="2173" y="1454" type="line"/>
      <point x="1606" y="0" type="line"/>
      <point x="1315" y="0" type="line"/>
      <point x="1079" y="569" type="line"/>
      <point x="846" y="0" type="line"/>
      <point x="553" y="0" type="line"/>
      <point x="-12" y="1454" type="line"/>
      <point x="352" y="1454" type="line"/>
      <point x="719" y="389" type="line"/>
      <point x="862" y="776" type="line"/>
    </contour>
  </outline>
</glyph>
<glyph name="bracketleft" format="2">
  <advance width="698"/>
  <unicode hex="005B"/>
  <outline>
    <contour>
      <point x="164" y="-82" type="line"/>
      <point x="164" y="1516" type="line"/>
      <point x="604" y="1516" type="line"/>
      <point x="604" y="1255" type="line"/>
      <point x="467" y="1255" type="line"/>
      <point x="467" y="178" type="line"/>
      <point x="604" y="178" type="line"/>
      <point x="604" y="-82" type="line"/>
    </contour>
  </outline>
</glyph>
<glyph name="backslash" format="2">
  <advance width="1357"/>
  <unicode hex="005C"/>
  <outline>
    <contour>
      <point x="416" y="1454" type="line"/>
      <point x="1307" y="0" type="line"/>
      <point x="946" y="0" type="line"/>
      <point x="53" y="1454" type="line"/>
    </contour>
  </outline>
</glyph>
<glyph name="bracketright" format="2">
  <advance width="698"/>
  <unicode hex="005D"/>
  <outline>
    <contour>
      <point x="96" y="-82" type="line"/>
      <point x="96" y="178" type="line"/>
      <point x="231" y="178" type="line"/>
      <point x="231" y="1255" type="line"/>
      <point x="96" y="1255" type="line"/>
      <point x="96" y="1516" type="line"/>
      <point x="535" y="1516" type="line"/>
      <point x="535" y="-82" type="line"/>
    </contour>
  </outline>
</glyph>
<glyph name="asciicircum" format="2">
  <advance width="1236"/>
  <unicode hex="005E"/>
  <outline>
    <contour>
      <point x="78" y="621" type="line"/>
      <point x="483" y="1454" type="line"/>
      <point x="756" y="1454" type="line"/>
      <point x="1159" y="621" type="line"/>
      <point x="893" y="621" type="line"/>
      <point x="618" y="1184" type="line"/>
      <point x="340" y="621" type="line"/>
    </contour>
  </outline>
</glyph>
<glyph name="underscore" format="2">
  <advance width="940"/>
  <unicode hex="005F"/>
  <outline>
    <contour>
      <point x="102" y="-295" type="line"/>
      <point x="102" y="0" type="line"/>
      <point x="840" y="0" type="line"/>
      <point x="840" y="-295" type="line"/>
    </contour>
  </outline>
</glyph>
<glyph name="grave" format="2">
  <advance width="550"/>
  <unicode hex="0060"/>
  <outline>
    <contour>
      <point x="94" y="1495" type="line"/>
      <point x="391" y="1495" type="line"/>
      <point x="498" y="1229" type="line"/>
      <point x="291" y="1171" type="line"/>
    </contour>
  </outline>
</glyph>
<glyph name="b" format="2">
  <advance width="1310"/>
  <unicode hex="0062"/>
  <outline>
    <contour>
      <point x="397" y="178" type="qcurve"/>
      <point x="397" y="0" type="line"/>
      <point x="113" y="0" type="line"/>
      <point x="113" y="1495" type="line"/>
      <point x="440" y="1495" type="line"/>
      <point x="440" y="899" type="line"/>
      <point x="493" y="993"/>
      <point x="675" y="1096"/>
      <point x="793" y="1096" type="qcurve" smooth="yes"/>
      <point x="926" y="1096"/>
      <point x="1141" y="945"/>
      <point x="1260" y="687"/>
      <point x="1260" y="532" type="qcurve" smooth="yes"/>
      <point x="1260" y="378"/>
      <point x="1130" y="125"/>
      <point x="899" y="-20"/>
      <point x="758" y="-20" type="qcurve" smooth="yes"/>
      <point x="636" y="-20"/>
      <point x="452" y="83"/>
    </contour>
    <contour>
      <point x="924" y="532" type="qcurve" smooth="yes"/>
      <point x="924" y="649"/>
      <point x="785" y="817"/>
      <point x="682" y="817" type="qcurve" smooth="yes"/>
      <point x="606" y="817"/>
      <point x="475" y="713"/>
      <point x="440" y="631" type="qcurve"/>
      <point x="440" y="406" type="line"/>
      <point x="472" y="338"/>
      <point x="597" y="256"/>
      <point x="666" y="256" type="qcurve" smooth="yes"/>
      <point x="779" y="256"/>
      <point x="924" y="414"/>
    </contour>
  </outline>
</glyph>
<glyph name="f" format="2">
  <advance width="788"/>
  <unicode hex="0066"/>
  <outline>
    <contour>
      <point x="182" y="0" type="line"/>
      <point x="182" y="739" type="line"/>
      <point x="45" y="739" type="line"/>
      <point x="45" y="987" type="line"/>
      <point x="182" y="987" type="line"/>
      <point x="182" y="1075" type="line" smooth="yes"/>
      <point x="182" y="1275"/>
      <point x="388" y="1516"/>
      <point x="557" y="1516" type="qcurve" smooth="yes"/>
      <point x="688" y="1516"/>
      <point x="838" y="1452" type="qcurve"/>
      <point x="778" y="1206" type="line"/>
      <point x="699" y="1239"/>
      <point x="631" y="1239" type="qcurve" smooth="yes"/>
      <point x="510" y="1239"/>
      <point x="510" y="1087" type="qcurve" smooth="yes"/>
      <point x="510" y="987" type="line"/>
      <point x="760" y="987" type="line"/>
      <point x="760" y="739" type="line"/>
      <point x="510" y="739" type="line"/>
      <point x="510" y="0" type="line"/>
    </contour>
  </outline>
</glyph>
<glyph name="i" format="2">
  <advance width="552"/>
  <unicode hex="0069"/>
  <anchor x="0" y="0" name="Anchor-11"/>
  <anchor x="0" y="0" name="Anchor-10"/>
  <anchor x="0" y="0" name="Anchor-9"/>
  <anchor x="440" y="0" name="Anchor-8"/>
  <anchor x="276" y="0" name="Anchor-7"/>
  <outline>
    <contour>
      <point x="113" y="1198" type="line"/>
      <point x="113" y="1495" type="line"/>
      <point x="440" y="1495" type="line"/>
      <point x="440" y="1198" type="line"/>
    </contour>
    <contour>
      <point x="113" y="0" type="line"/>
      <point x="113" y="1075" type="line"/>
      <point x="440" y="1075" type="line"/>
      <point x="440" y="0" type="line"/>
    </contour>
  </outline>
</glyph>
<glyph name="j" format="2">
  <advance width="561"/>
  <unicode hex="006A"/>
  <outline>
    <contour>
      <point x="123" y="1198" type="line"/>
      <point x="123" y="1495" type="line"/>
      <point x="451" y="1495" type="line"/>
      <point x="451" y="1198" type="line"/>
    </contour>
    <contour>
      <point x="-233" y="-311" type="qcurve"/>
      <point x="-96" y="-88" type="line"/>
      <point x="-53" y="-131"/>
      <point x="14" y="-131" type="qcurve" smooth="yes"/>
      <point x="61" y="-131"/>
      <point x="123" y="-68"/>
      <point x="123" y="-18" type="qcurve" smooth="yes"/>
      <point x="123" y="1075" type="line"/>
      <point x="451" y="1075" type="line"/>
      <point x="451" y="6" type="line" smooth="yes"/>
      <point x="451" y="-178"/>
      <point x="225" y="-414"/>
      <point x="-115" y="-414"/>
    </contour>
  </outline>
</glyph>
<glyph name="k" format="2">
  <advance width="1165"/>
  <unicode hex="006B"/>
  <anchor x="0" y="0" name="Anchor-11"/>
  <anchor x="0" y="0" name="Anchor-10"/>
  <anchor x="0" y="0" name="Anchor-9"/>
  <anchor x="0" y="0" name="Anchor-8"/>
  <anchor x="602" y="0" name="Anchor-7"/>
  <outline>
    <contour>
      <point x="836" y="0" type="line"/>
      <point x="555" y="430" type="line"/>
      <point x="440" y="313" type="line"/>
      <point x="440" y="0" type="line"/>
      <point x="113" y="0" type="line"/>
      <point x="113" y="1495" type="line"/>
      <point x="440" y="1495" type="line"/>
      <point x="440" y="631" type="line"/>
      <point x="805" y="1075" type="line"/>
      <point x="1151" y="1075" type="line"/>
      <point x="764" y="612" type="line"/>
      <point x="1184" y="0" type="line"/>
    </contour>
  </outline>
</glyph>
<glyph name="n" format="2">
  <advance width="1253"/>
  <unicode hex="006E"/>
  <anchor x="0" y="0" name="Anchor-11"/>
  <anchor x="0" y="0" name="Anchor-10"/>
  <anchor x="664" y="1075" name="Anchor-9"/>
  <anchor x="0" y="0" name="Anchor-8"/>
  <anchor x="627" y="0" name="Anchor-7"/>
  <outline>
    <contour>
      <point x="1149" y="0" type="line"/>
      <point x="821" y="0" type="line"/>
      <point x="821" y="604" type="line" smooth="yes"/>
      <point x="821" y="706"/>
      <point x="743" y="807"/>
      <point x="676" y="807" type="qcurve" smooth="yes"/>
      <point x="607" y="807"/>
      <point x="469" y="698"/>
      <point x="440" y="616" type="qcurve"/>
      <point x="440" y="0" type="line"/>
      <point x="113" y="0" type="line"/>
      <point x="113" y="1075" type="line"/>
      <point x="408" y="1075" type="line"/>
      <point x="408" y="895" type="line"/>
      <point x="467" y="991"/>
      <point x="684" y="1096"/>
      <point x="825" y="1096" type="qcurve" smooth="yes"/>
      <point x="1149" y="1096"/>
      <point x="1149" y="688" type="qcurve" smooth="yes"/>
    </contour>
  </outline>
</glyph>
<glyph name="q" format="2">
  <advance width="1310"/>
  <unicode hex="0071"/>
  <outline>
    <contour>
      <point x="53" y="541" type="qcurve" smooth="yes"/>
      <point x="53" y="696"/>
      <point x="182" y="950"/>
      <point x="412" y="1096"/>
      <point x="553" y="1096" type="qcurve" smooth="yes"/>
      <point x="784" y="1096"/>
      <point x="913" y="899" type="qcurve"/>
      <point x="913" y="1075" type="line"/>
      <point x="1198" y="1075" type="line"/>
      <point x="1198" y="-438" type="line"/>
      <point x="870" y="-438" type="line"/>
      <point x="870" y="174" type="line"/>
      <point x="760" y="-20"/>
      <point x="518" y="-20" type="qcurve" smooth="yes"/>
      <point x="385" y="-20"/>
      <point x="172" y="129"/>
      <point x="53" y="385"/>
    </contour>
    <contour>
      <point x="870" y="401" type="qcurve"/>
      <point x="870" y="629" type="line"/>
      <point x="845" y="708"/>
      <point x="707" y="817"/>
      <point x="633" y="817" type="qcurve" smooth="yes"/>
      <point x="529" y="817"/>
      <point x="387" y="648"/>
      <point x="387" y="532" type="qcurve" smooth="yes"/>
      <point x="387" y="411"/>
      <point x="530" y="256"/>
      <point x="643" y="256" type="qcurve" smooth="yes"/>
      <point x="779" y="256"/>
    </contour>
  </outline>
</glyph>
<glyph name="r" format="2">
  <advance width="819"/>
  <unicode hex="0072"/>
  <anchor x="0" y="0" name="Anchor-11"/>
  <anchor x="0" y="0" name="Anchor-10"/>
  <anchor x="446" y="1075" name="Anchor-9"/>
  <anchor x="0" y="0" name="Anchor-8"/>
  <anchor x="264" y="0" name="Anchor-7"/>
  <outline>
    <contour>
      <point x="795" y="795" type="line"/>
      <point x="672" y="793"/>
      <point x="482" y="716"/>
      <point x="440" y="645" type="qcurve"/>
      <point x="440" y="0" type="line"/>
      <point x="113" y="0" type="line"/>
      <point x="113" y="1075" type="line"/>
      <point x="414" y="1075" type="line"/>
      <point x="414" y="858" type="line"/>
      <point x="470" y="965"/>
      <point x="644" y="1091"/>
      <point x="741" y="1092" type="qcurve" smooth="yes"/>
      <point x="783" y="1092"/>
      <point x="795" y="1090" type="qcurve"/>
    </contour>
  </outline>
</glyph>
<glyph name="v" format="2">
  <advance width="1138"/>
  <unicode hex="0076"/>
  <outline>
    <contour>
      <point x="391" y="0" type="line"/>
      <point x="10" y="1075" type="line"/>
      <point x="348" y="1075" type="line"/>
      <point x="584" y="295" type="line"/>
      <point x="819" y="1075" type="line"/>
      <point x="1126" y="1075" type="line"/>
      <point x="748" y="0" type="line"/>
    </contour>
  </outline>
</glyph>
<glyph name="w" format="2">
  <advance width="1740"/>
  <unicode hex="0077"/>
  <anchor x="0" y="0" name="Anchor-11"/>
  <anchor x="0" y="0" name="Anchor-10"/>
  <anchor x="870" y="1075" name="Anchor-9"/>
  <anchor x="0" y="0" name="Anchor-8"/>
  <anchor x="0" y="0" name="Anchor-7"/>
  <outline>
    <contour>
      <point x="1438" y="1075" type="line"/>
      <point x="1749" y="1075" type="line"/>
      <point x="1305" y="0" type="line"/>
      <point x="1034" y="0" type="line"/>
      <point x="870" y="438" type="line"/>
      <point x="707" y="0" type="line"/>
      <point x="436" y="0" type="line"/>
      <point x="-8" y="1075" type="line"/>
      <point x="301" y="1075" type="line"/>
      <point x="590" y="309" type="line"/>
      <point x="692" y="608" type="line"/>
      <point x="500" y="1075" type="line"/>
      <point x="768" y="1075" type="line"/>
      <point x="870" y="752" type="line"/>
      <point x="973" y="1075" type="line"/>
      <point x="1239" y="1075" type="line"/>
      <point x="1049" y="608" type="line"/>
      <point x="1151" y="309" type="line"/>
    </contour>
  </outline>
</glyph>
<glyph name="braceleft" format="2">
  <advance width="704"/>
  <unicode hex="007B"/>
  <outline>
    <contour>
      <point x="485" y="1255" type="line"/>
      <point x="485" y="885" type="line" smooth="yes"/>
      <point x="485" y="807"/>
      <point x="408" y="737" type="qcurve"/>
      <point x="485" y="668"/>
      <point x="485" y="590" type="qcurve" smooth="yes"/>
      <point x="485" y="197" type="line"/>
      <point x="598" y="197" type="line"/>
      <point x="598" y="-63" type="line"/>
      <point x="238" y="-63" type="line" smooth="yes"/>
      <point x="221" y="-63"/>
      <point x="190" y="-34"/>
      <point x="190" y="-2" type="qcurve" smooth="yes"/>
      <point x="190" y="479" type="line" smooth="yes"/>
      <point x="190" y="535"/>
      <point x="124" y="617"/>
      <point x="80" y="627" type="qcurve"/>
      <point x="80" y="852" type="line"/>
      <point x="122" y="852"/>
      <point x="190" y="944"/>
      <point x="190" y="995" type="qcurve" smooth="yes"/>
      <point x="190" y="1454" type="line" smooth="yes"/>
      <point x="190" y="1486"/>
      <point x="223" y="1516"/>
      <point x="238" y="1516" type="qcurve" smooth="yes"/>
      <point x="598" y="1516" type="line"/>
      <point x="598" y="1255" type="line"/>
    </contour>
  </outline>
</glyph>
<glyph name="bar" format="2">
  <advance width="595"/>
  <unicode hex="007C"/>
  <outline>
    <contour>
      <point x="160" y="-266" type="line"/>
      <point x="160" y="1587" type="line"/>
      <point x="436" y="1587" type="line"/>
      <point x="436" y="-266" type="line"/>
    </contour>
  </outline>
</glyph>
<glyph name="braceright" format="2">
  <advance width="704"/>
  <unicode hex="007D"/>
  <outline>
    <contour>
      <point x="106" y="1255" type="line"/>
      <point x="106" y="1516" type="line"/>
      <point x="465" y="1516" type="line" smooth="yes"/>
      <point x="481" y="1516"/>
      <point x="512" y="1487"/>
      <point x="512" y="1454" type="qcurve" smooth="yes"/>
      <point x="512" y="995" type="line" smooth="yes"/>
      <point x="512" y="944"/>
      <point x="583" y="852"/>
      <point x="625" y="852" type="qcurve"/>
      <point x="625" y="627" type="line"/>
      <point x="581" y="617"/>
      <point x="512" y="535"/>
      <point x="512" y="479" type="qcurve" smooth="yes"/>
      <point x="512" y="-2" type="line" smooth="yes"/>
      <point x="512" y="-35"/>
      <point x="483" y="-63"/>
      <point x="465" y="-63" type="qcurve" smooth="yes"/>
      <point x="106" y="-63" type="line"/>
      <point x="106" y="197" type="line"/>
      <point x="219" y="197" type="line"/>
      <point x="219" y="590" type="line" smooth="yes"/>
      <point x="219" y="668"/>
      <point x="295" y="737" type="qcurve"/>
      <point x="219" y="806"/>
      <point x="219" y="885" type="qcurve" smooth="yes"/>
      <point x="219" y="1255" type="line"/>
    </contour>
  </outline>
</glyph>
<glyph name="asciitilde" format="2">
  <advance width="1202"/>
  <unicode hex="007E"/>
  <outline>
    <contour>
      <point x="414" y="752" type="qcurve" smooth="yes"/>
      <point x="466" y="752"/>
      <point x="574" y="718"/>
      <point x="649" y="677"/>
      <point x="745" y="643"/>
      <point x="786" y="643" type="qcurve" smooth="yes"/>
      <point x="819" y="643"/>
      <point x="873" y="664"/>
      <point x="902" y="692"/>
      <point x="922" y="724"/>
      <point x="928" y="744"/>
      <point x="928" y="748" type="qcurve"/>
      <point x="1104" y="748" type="line"/>
      <point x="1104" y="734"/>
      <point x="1086" y="674"/>
      <point x="1038" y="586"/>
      <point x="969" y="510"/>
      <point x="853" y="455"/>
      <point x="784" y="455" type="qcurve" smooth="yes"/>
      <point x="733" y="455"/>
      <point x="626" y="488"/>
      <point x="550" y="526"/>
      <point x="453" y="559"/>
      <point x="412" y="559" type="qcurve" smooth="yes"/>
      <point x="379" y="559"/>
      <point x="327" y="538"/>
      <point x="301" y="510"/>
      <point x="285" y="477"/>
      <point x="281" y="459"/>
      <point x="281" y="455" type="qcurve"/>
      <point x="104" y="455" type="line"/>
      <point x="104" y="475"/>
      <point x="122" y="541"/>
      <point x="169" y="627"/>
      <point x="236" y="701"/>
      <point x="347" y="752"/>
    </contour>
  </outline>
</glyph>
<glyph name="exclamdown" format="2">
  <advance width="677"/>
  <unicode hex="00A1"/>
  <outline>
    <contour>
      <point x="502" y="1456" type="line"/>
      <point x="502" y="1116" type="line"/>
      <point x="174" y="1116" type="line"/>
      <point x="174" y="1456" type="line"/>
    </contour>
    <contour>
      <point x="502" y="879" type="line"/>
      <point x="502" y="-12" type="line"/>
      <point x="174" y="-12" type="line"/>
      <point x="174" y="879" type="line"/>
    </contour>
  </outline>
</glyph>
<glyph name="cent" format="2">
  <advance width="1236"/>
  <unicode hex="00A2"/>
  <outline>
    <contour>
      <point x="565" y="-246" type="line"/>
      <point x="565" y="-18" type="line"/>
      <point x="427" y="-7"/>
      <point x="200" y="157"/>
      <point x="78" y="398"/>
      <point x="78" y="528" type="qcurve" smooth="yes"/>
      <point x="78" y="668"/>
      <point x="186" y="902"/>
      <point x="410" y="1067"/>
      <point x="565" y="1092" type="qcurve"/>
      <point x="565" y="1321" type="line"/>
      <point x="707" y="1321" type="line"/>
      <point x="707" y="1092" type="line"/>
      <point x="851" y="1087"/>
      <point x="1091" y="944"/>
      <point x="1161" y="811" type="qcurve"/>
      <point x="842" y="715" type="line"/>
      <point x="821" y="753"/>
      <point x="746" y="802"/>
      <point x="707" y="807" type="qcurve"/>
      <point x="707" y="264" type="line"/>
      <point x="754" y="277"/>
      <point x="830" y="328"/>
      <point x="844" y="362" type="qcurve"/>
      <point x="1163" y="264" type="line"/>
      <point x="1123" y="175"/>
      <point x="953" y="40"/>
      <point x="780" y="-20"/>
      <point x="707" y="-20" type="qcurve"/>
      <point x="707" y="-246" type="line"/>
    </contour>
    <contour>
      <point x="565" y="281" type="qcurve"/>
      <point x="565" y="793" type="line"/>
      <point x="496" y="772"/>
      <point x="416" y="624"/>
      <point x="416" y="528" type="qcurve" smooth="yes"/>
      <point x="416" y="447"/>
      <point x="496" y="311"/>
    </contour>
  </outline>
</glyph>
<glyph name="sterling" format="2">
  <advance width="1155"/>
  <unicode hex="00A3"/>
  <outline>
    <contour>
      <point x="1001" y="276" type="qcurve"/>
      <point x="1081" y="35" type="line"/>
      <point x="1033" y="6"/>
      <point x="902" y="-31"/>
      <point x="842" y="-31" type="qcurve" smooth="yes"/>
      <point x="780" y="-31"/>
      <point x="516" y="33"/>
      <point x="449" y="33" type="qcurve" smooth="yes"/>
      <point x="325" y="33"/>
      <point x="170" y="-18" type="qcurve"/>
      <point x="102" y="215" type="line"/>
      <point x="189" y="278"/>
      <point x="297" y="453"/>
      <point x="305" y="543" type="qcurve"/>
      <point x="121" y="543" type="line"/>
      <point x="121" y="786" type="line"/>
      <point x="252" y="786" type="line"/>
      <point x="245" y="802"/>
      <point x="207" y="886"/>
      <point x="189" y="930"/>
      <point x="165" y="1000"/>
      <point x="154" y="1063"/>
      <point x="154" y="1094" type="qcurve" smooth="yes"/>
      <point x="154" y="1249"/>
      <point x="410" y="1464"/>
      <point x="596" y="1464" type="qcurve" smooth="yes"/>
      <point x="725" y="1464"/>
      <point x="960" y="1350"/>
      <point x="1042" y="1249" type="qcurve"/>
      <point x="872" y="1049" type="line"/>
      <point x="821" y="1114"/>
      <point x="662" y="1200"/>
      <point x="592" y="1200" type="qcurve" smooth="yes"/>
      <point x="526" y="1200"/>
      <point x="444" y="1122"/>
      <point x="444" y="1059" type="qcurve" smooth="yes"/>
      <point x="444" y="1022"/>
      <point x="474" y="939"/>
      <point x="532" y="819"/>
      <point x="545" y="786" type="qcurve"/>
      <point x="928" y="786" type="line"/>
      <point x="928" y="543" type="line"/>
      <point x="586" y="543" type="line"/>
      <point x="579" y="469"/>
      <point x="504" y="331"/>
      <point x="430" y="252" type="qcurve"/>
      <point x="518" y="281"/>
      <point x="586" y="281" type="qcurve" smooth="yes"/>
      <point x="634" y="281"/>
      <point x="814" y="248"/>
      <point x="858" y="248" type="qcurve" smooth="yes"/>
      <point x="915" y="248"/>
    </contour>
  </outline>
</glyph>
<glyph name="currency" format="2">
  <advance width="1146"/>
  <unicode hex="00A4"/>
  <outline>
    <contour>
      <point x="360" y="1026" type="line"/>
      <point x="455" y="1079"/>
      <point x="575" y="1079" type="qcurve" smooth="yes"/>
      <point x="689" y="1079"/>
      <point x="786" y="1028" type="qcurve"/>
      <point x="928" y="1171" type="line"/>
      <point x="1055" y="1044" type="line"/>
      <point x="920" y="909" type="line"/>
      <point x="983" y="815"/>
      <point x="983" y="692" type="qcurve" smooth="yes"/>
      <point x="983" y="566"/>
      <point x="918" y="471" type="qcurve"/>
      <point x="1055" y="336" type="line"/>
      <point x="938" y="219" type="line"/>
      <point x="791" y="356" type="line"/>
      <point x="700" y="305"/>
      <point x="575" y="305" type="qcurve" smooth="yes"/>
      <point x="451" y="305"/>
      <point x="356" y="358" type="qcurve"/>
      <point x="209" y="219" type="line"/>
      <point x="90" y="336" type="line"/>
      <point x="229" y="475" type="line"/>
      <point x="168" y="574"/>
      <point x="168" y="692" type="qcurve" smooth="yes"/>
      <point x="168" y="813"/>
      <point x="227" y="905" type="qcurve"/>
      <point x="90" y="1044" type="line"/>
      <point x="219" y="1171" type="line"/>
    </contour>
    <contour>
      <point x="575" y="504" type="qcurve" smooth="yes"/>
      <point x="650" y="504"/>
      <point x="748" y="608"/>
      <point x="748" y="776"/>
      <point x="650" y="879"/>
      <point x="500" y="879"/>
      <point x="403" y="775"/>
      <point x="403" y="690" type="qcurve" smooth="yes"/>
      <point x="403" y="608"/>
      <point x="501" y="504"/>
    </contour>
  </outline>
</glyph>
<glyph name="yen" format="2">
  <advance width="1486"/>
  <unicode hex="00A5"/>
  <outline>
    <contour>
      <point x="1092" y="852" type="line"/>
      <point x="1233" y="852" type="line"/>
      <point x="1233" y="641" type="line"/>
      <point x="983" y="641" type="line"/>
      <point x="905" y="496" type="line"/>
      <point x="905" y="432" type="line"/>
      <point x="1235" y="432" type="line"/>
      <point x="1235" y="221" type="line"/>
      <point x="905" y="221" type="line"/>
      <point x="905" y="0" type="line"/>
      <point x="571" y="0" type="line"/>
      <point x="571" y="221" type="line"/>
      <point x="244" y="221" type="line"/>
      <point x="244" y="432" type="line"/>
      <point x="571" y="432" type="line"/>
      <point x="571" y="500" type="line"/>
      <point x="496" y="641" type="line"/>
      <point x="246" y="641" type="line"/>
      <point x="246" y="852" type="line"/>
      <point x="389" y="852" type="line"/>
      <point x="61" y="1454" type="line"/>
      <point x="424" y="1454" type="line"/>
      <point x="737" y="786" type="line"/>
      <point x="1057" y="1454" type="line"/>
      <point x="1423" y="1454" type="line"/>
    </contour>
  </outline>
</glyph>
<glyph name="brokenbar" format="2">
  <advance width="602"/>
  <unicode hex="00A6"/>
  <outline>
    <contour>
      <point x="440" y="1587" type="line"/>
      <point x="440" y="788" type="line"/>
      <point x="162" y="788" type="line"/>
      <point x="162" y="1587" type="line"/>
    </contour>
    <contour>
      <point x="440" y="532" type="line"/>
      <point x="440" y="-266" type="line"/>
      <point x="162" y="-266" type="line"/>
      <point x="162" y="532" type="line"/>
    </contour>
  </outline>
</glyph>
<glyph name="section" format="2">
  <advance width="1107"/>
  <unicode hex="00A7"/>
  <outline>
    <contour>
      <point x="1026" y="250" type="qcurve" smooth="yes"/>
      <point x="1026" y="159"/>
      <point x="965" y="9"/>
      <point x="867" y="-87"/>
      <point x="741" y="-152"/>
      <point x="616" y="-180"/>
      <point x="555" y="-180" type="qcurve" smooth="yes"/>
      <point x="476" y="-180"/>
      <point x="322" y="-133"/>
      <point x="206" y="-59"/>
      <point x="126" y="10"/>
      <point x="98" y="43" type="qcurve"/>
      <point x="307" y="244" type="line"/>
      <point x="414" y="131"/>
      <point x="539" y="131" type="qcurve" smooth="yes"/>
      <point x="601" y="131"/>
      <point x="686" y="188"/>
      <point x="686" y="238" type="qcurve" smooth="yes"/>
      <point x="686" y="259"/>
      <point x="670" y="289"/>
      <point x="648" y="306"/>
      <point x="610" y="317"/>
      <point x="582" y="321"/>
      <point x="561" y="322" type="qcurve" smooth="yes"/>
      <point x="350" y="339"/>
      <point x="127" y="539"/>
      <point x="127" y="698" type="qcurve" smooth="yes"/>
      <point x="127" y="726"/>
      <point x="135" y="778"/>
      <point x="143" y="803"/>
      <point x="158" y="841"/>
      <point x="158" y="842" type="qcurve" smooth="yes"/>
      <point x="131" y="873"/>
      <point x="84" y="991"/>
      <point x="84" y="1061" type="qcurve" smooth="yes"/>
      <point x="84" y="1139"/>
      <point x="152" y="1286"/>
      <point x="269" y="1397"/>
      <point x="435" y="1464"/>
      <point x="528" y="1464" type="qcurve" smooth="yes"/>
      <point x="599" y="1464"/>
      <point x="731" y="1424"/>
      <point x="822" y="1370"/>
      <point x="910" y="1287"/>
      <point x="958" y="1228"/>
      <point x="985" y="1190" type="qcurve"/>
      <point x="735" y="1071" type="line"/>
      <point x="674" y="1174"/>
      <point x="549" y="1174" type="qcurve" smooth="yes"/>
      <point x="487" y="1174"/>
      <point x="414" y="1115"/>
      <point x="414" y="1067" type="qcurve" smooth="yes"/>
      <point x="414" y="1012"/>
      <point x="483" y="973"/>
      <point x="547" y="971" type="qcurve" smooth="yes"/>
      <point x="613" y="969"/>
      <point x="735" y="946"/>
      <point x="856" y="893"/>
      <point x="944" y="815"/>
      <point x="999" y="692"/>
      <point x="999" y="616" type="qcurve" smooth="yes"/>
      <point x="999" y="522"/>
      <point x="965" y="457" type="qcurve"/>
      <point x="1026" y="393"/>
    </contour>
    <contour>
      <point x="662" y="537" type="qcurve"/>
      <point x="690" y="559"/>
      <point x="690" y="606" type="qcurve" smooth="yes"/>
      <point x="690" y="659"/>
      <point x="610" y="709"/>
      <point x="561" y="709" type="qcurve" smooth="yes"/>
      <point x="494" y="709"/>
      <point x="471" y="723" type="qcurve"/>
      <point x="444" y="699"/>
      <point x="444" y="653" type="qcurve" smooth="yes"/>
      <point x="444" y="611"/>
      <point x="496" y="563"/>
      <point x="557" y="553"/>
      <point x="644" y="543"/>
    </contour>
  </outline>
</glyph>
<glyph name="dieresis" format="2">
  <advance width="1040"/>
  <unicode hex="00A8"/>
  <anchor x="520" y="1475" name="Anchor-13"/>
  <outline>
    <contour>
      <point x="170" y="1214" type="line"/>
      <point x="170" y="1479" type="line"/>
      <point x="440" y="1479" type="line"/>
      <point x="440" y="1214" type="line"/>
    </contour>
    <contour>
      <point x="600" y="1214" type="line"/>
      <point x="600" y="1479" type="line"/>
      <point x="870" y="1479" type="line"/>
      <point x="870" y="1214" type="line"/>
    </contour>
  </outline>
</glyph>
<glyph name="copyright" format="2">
  <advance width="1728"/>
  <unicode hex="00A9"/>
  <outline>
    <contour>
      <point x="84" y="727" type="qcurve" smooth="yes"/>
      <point x="84" y="883"/>
      <point x="201" y="1157"/>
      <point x="405" y="1352"/>
      <point x="692" y="1464"/>
      <point x="856" y="1464" type="qcurve" smooth="yes"/>
      <point x="1024" y="1464"/>
      <point x="1318" y="1352"/>
      <point x="1527" y="1157"/>
      <point x="1647" y="883"/>
      <point x="1647" y="727" type="qcurve" smooth="yes"/>
      <point x="1647" y="570"/>
      <point x="1527" y="295"/>
      <point x="1318" y="99"/>
      <point x="1024" y="-14"/>
      <point x="856" y="-14" type="qcurve" smooth="yes"/>
      <point x="692" y="-14"/>
      <point x="405" y="99"/>
      <point x="201" y="295"/>
      <point x="84" y="570"/>
    </contour>
    <contour>
      <point x="1518" y="725" type="qcurve" smooth="yes"/>
      <point x="1518" y="853"/>
      <point x="1417" y="1082"/>
      <point x="1242" y="1249"/>
      <point x="996" y="1346"/>
      <point x="856" y="1346" type="qcurve" smooth="yes"/>
      <point x="721" y="1346"/>
      <point x="481" y="1249"/>
      <point x="312" y="1083"/>
      <point x="213" y="854"/>
      <point x="213" y="727" type="qcurve" smooth="yes"/>
      <point x="213" y="555"/>
      <point x="379" y="270"/>
      <point x="675" y="104"/>
      <point x="856" y="104" type="qcurve" smooth="yes"/>
      <point x="1040" y="104"/>
      <point x="1342" y="260"/>
      <point x="1518" y="545"/>
    </contour>
    <contour>
      <point x="356" y="725" type="qcurve" smooth="yes"/>
      <point x="356" y="820"/>
      <point x="424" y="992"/>
      <point x="550" y="1126"/>
      <point x="749" y="1206"/>
      <point x="872" y="1206" type="qcurve" smooth="yes"/>
      <point x="1037" y="1206"/>
      <point x="1278" y="1061"/>
      <point x="1335" y="936" type="qcurve"/>
      <point x="1028" y="842" type="line"/>
      <point x="1003" y="891"/>
      <point x="919" y="938"/>
      <point x="870" y="938" type="qcurve" smooth="yes"/>
      <point x="786" y="938"/>
      <point x="682" y="818"/>
      <point x="682" y="725" type="qcurve" smooth="yes"/>
      <point x="682" y="630"/>
      <point x="796" y="514"/>
      <point x="872" y="514" type="qcurve" smooth="yes"/>
      <point x="922" y="514"/>
      <point x="1007" y="566"/>
      <point x="1032" y="612" type="qcurve"/>
      <point x="1339" y="518" type="line"/>
      <point x="1283" y="398"/>
      <point x="1042" y="246"/>
      <point x="877" y="246" type="qcurve" smooth="yes"/>
      <point x="759" y="246"/>
      <point x="561" y="322"/>
      <point x="429" y="452"/>
      <point x="356" y="627"/>
    </contour>
  </outline>
</glyph>
<glyph name="ordfeminine" format="2">
  <advance width="915"/>
  <unicode hex="00AA"/>
  <anchor x="0" y="0" name="Anchor-11"/>
  <anchor x="0" y="0" name="Anchor-10"/>
  <anchor x="500" y="1063" name="Anchor-9"/>
  <anchor x="0" y="0" name="Anchor-8"/>
  <anchor x="895" y="23" name="Anchor-7"/>
  <outline>
    <contour>
      <point x="76" y="926" type="qcurve" smooth="yes"/>
      <point x="76" y="1036"/>
      <point x="248" y="1176"/>
      <point x="383" y="1176" type="qcurve" smooth="yes"/>
      <point x="475" y="1176"/>
      <point x="539" y="1145" type="qcurve"/>
      <point x="539" y="1176" type="line" smooth="yes"/>
      <point x="539" y="1303"/>
      <point x="401" y="1303" type="qcurve" smooth="yes"/>
      <point x="299" y="1303"/>
      <point x="178" y="1221" type="qcurve"/>
      <point x="109" y="1366" type="line"/>
      <point x="249" y="1462"/>
      <point x="424" y="1462" type="qcurve" smooth="yes"/>
      <point x="589" y="1462"/>
      <point x="768" y="1302"/>
      <point x="768" y="1149" type="qcurve" smooth="yes"/>
      <point x="768" y="967" type="line" smooth="yes"/>
      <point x="768" y="933"/>
      <point x="794" y="902"/>
      <point x="825" y="901" type="qcurve"/>
      <point x="825" y="702" type="line"/>
      <point x="764" y="690"/>
      <point x="719" y="690" type="qcurve" smooth="yes"/>
      <point x="599" y="690"/>
      <point x="580" y="788" type="qcurve"/>
      <point x="575" y="821" type="line"/>
      <point x="473" y="688"/>
      <point x="324" y="688" type="qcurve" smooth="yes"/>
      <point x="218" y="688"/>
      <point x="76" y="825"/>
    </contour>
    <contour>
      <point x="508" y="901" type="qcurve" smooth="yes"/>
      <point x="539" y="925"/>
      <point x="539" y="954" type="qcurve" smooth="yes"/>
      <point x="539" y="1022" type="line"/>
      <point x="484" y="1047"/>
      <point x="422" y="1047" type="qcurve" smooth="yes"/>
      <point x="365" y="1047"/>
      <point x="293" y="990"/>
      <point x="293" y="946" type="qcurve" smooth="yes"/>
      <point x="293" y="909"/>
      <point x="350" y="858"/>
      <point x="391" y="858" type="qcurve" smooth="yes"/>
      <point x="462" y="858"/>
    </contour>
  </outline>
</glyph>
<glyph name="guillemotleft" format="2">
  <advance width="1390"/>
  <unicode hex="00AB"/>
  <outline>
    <contour>
      <point x="68" y="600" type="line"/>
      <point x="621" y="995" type="line"/>
      <point x="621" y="731" type="line"/>
      <point x="326" y="530" type="line"/>
      <point x="621" y="344" type="line"/>
      <point x="621" y="80" type="line"/>
      <point x="68" y="444" type="line"/>
    </contour>
    <contour>
      <point x="721" y="600" type="line"/>
      <point x="1274" y="995" type="line"/>
      <point x="1274" y="731" type="line"/>
      <point x="979" y="530" type="line"/>
      <point x="1274" y="344" type="line"/>
      <point x="1274" y="80" type="line"/>
      <point x="721" y="444" type="line"/>
    </contour>
  </outline>
</glyph>
<glyph name="logicalnot" format="2">
  <advance width="1275"/>
  <unicode hex="00AC"/>
  <outline>
    <contour>
      <point x="1149" y="850" type="line"/>
      <point x="1149" y="201" type="line"/>
      <point x="872" y="201" type="line"/>
      <point x="872" y="555" type="line"/>
      <point x="111" y="555" type="line"/>
      <point x="111" y="850" type="line"/>
    </contour>
  </outline>
</glyph>
<glyph name="sfthyphen" format="2">
  <advance width="1259"/>
  <unicode hex="00AD"/>
  <outline>
    <contour>
      <point x="111" y="416" type="line"/>
      <point x="111" y="711" type="line"/>
      <point x="1149" y="711" type="line"/>
      <point x="1149" y="416" type="line"/>
    </contour>
  </outline>
</glyph>
<glyph name="registered" format="2">
  <advance width="1728"/>
  <unicode hex="00AE"/>
  <outline>
    <contour>
      <point x="84" y="727" type="qcurve" smooth="yes"/>
      <point x="84" y="883"/>
      <point x="201" y="1156"/>
      <point x="404" y="1352"/>
      <point x="694" y="1464"/>
      <point x="860" y="1464" type="qcurve" smooth="yes"/>
      <point x="1081" y="1464"/>
      <point x="1442" y="1273"/>
      <point x="1647" y="935"/>
      <point x="1647" y="727" type="qcurve" smooth="yes"/>
      <point x="1647" y="570"/>
      <point x="1527" y="295"/>
      <point x="1318" y="99"/>
      <point x="1026" y="-14"/>
      <point x="694" y="-14"/>
      <point x="404" y="99"/>
      <point x="201" y="295"/>
      <point x="84" y="570"/>
    </contour>
    <contour>
      <point x="1509" y="723" type="qcurve" smooth="yes"/>
      <point x="1509" y="895"/>
      <point x="1343" y="1180"/>
      <point x="1045" y="1346"/>
      <point x="862" y="1346" type="qcurve" smooth="yes"/>
      <point x="723" y="1346"/>
      <point x="482" y="1249"/>
      <point x="315" y="1082"/>
      <point x="219" y="853"/>
      <point x="219" y="597"/>
      <point x="315" y="367"/>
      <point x="482" y="200"/>
      <point x="723" y="102"/>
      <point x="862" y="102" type="qcurve" smooth="yes"/>
      <point x="997" y="102"/>
      <point x="1236" y="196"/>
      <point x="1409" y="359"/>
      <point x="1509" y="590"/>
    </contour>
    <contour>
      <point x="520" y="1176" type="line"/>
      <point x="924" y="1176" type="line" smooth="yes"/>
      <point x="1047" y="1176"/>
      <point x="1217" y="987"/>
      <point x="1217" y="872" type="qcurve" smooth="yes"/>
      <point x="1217" y="793"/>
      <point x="1134" y="652"/>
      <point x="1069" y="616" type="qcurve"/>
      <point x="1272" y="287" type="line"/>
      <point x="1016" y="287" type="line"/>
      <point x="838" y="573" type="line"/>
      <point x="752" y="573" type="line"/>
      <point x="752" y="287" type="line"/>
      <point x="520" y="287" type="line"/>
    </contour>
    <contour>
      <point x="901" y="762" type="line" smooth="yes"/>
      <point x="941" y="762"/>
      <point x="989" y="816"/>
      <point x="989" y="872" type="qcurve" smooth="yes"/>
      <point x="989" y="929"/>
      <point x="936" y="983"/>
      <point x="897" y="983" type="qcurve" smooth="yes"/>
      <point x="752" y="983" type="line"/>
      <point x="752" y="762" type="line"/>
    </contour>
  </outline>
</glyph>
<glyph name="macron" format="2">
  <advance width="876"/>
  <unicode hex="00AF"/>
  <anchor x="438" y="1470" name="Anchor-13"/>
  <outline>
    <contour>
      <point x="127" y="1272" type="line"/>
      <point x="127" y="1470" type="line"/>
      <point x="750" y="1470" type="line"/>
      <point x="750" y="1272" type="line"/>
    </contour>
  </outline>
</glyph>
<glyph name="degree" format="2">
  <advance width="598"/>
  <unicode hex="00B0"/>
  <outline>
    <contour>
      <point x="397" y="1483"/>
      <point x="524" y="1359"/>
      <point x="524" y="1266" type="qcurve" smooth="yes"/>
      <point x="524" y="1161"/>
      <point x="398" y="1032"/>
      <point x="299" y="1032" type="qcurve" smooth="yes"/>
      <point x="201" y="1032"/>
      <point x="74" y="1163"/>
      <point x="74" y="1266" type="qcurve" smooth="yes"/>
      <point x="74" y="1359"/>
      <point x="201" y="1483"/>
    </contour>
    <contour>
      <point x="227" y="1257" type="qcurve" smooth="yes"/>
      <point x="227" y="1226"/>
      <point x="248" y="1208" type="qcurve"/>
      <point x="267" y="1186"/>
      <point x="299" y="1186" type="qcurve" smooth="yes"/>
      <point x="332" y="1186"/>
      <point x="348" y="1208" type="qcurve"/>
      <point x="369" y="1223"/>
      <point x="369" y="1257" type="qcurve" smooth="yes"/>
      <point x="369" y="1289"/>
      <point x="348" y="1307" type="qcurve"/>
      <point x="334" y="1327"/>
      <point x="299" y="1327" type="qcurve" smooth="yes"/>
      <point x="265" y="1327"/>
      <point x="248" y="1307" type="qcurve" smooth="yes"/>
      <point x="227" y="1286"/>
    </contour>
  </outline>
</glyph>
<glyph name="plusminus" format="2">
  <advance width="974"/>
  <unicode hex="00B1"/>
  <outline>
    <contour>
      <point x="862" y="911" type="line"/>
      <point x="862" y="651" type="line"/>
      <point x="635" y="651" type="line"/>
      <point x="635" y="403" type="line"/>
      <point x="340" y="403" type="line"/>
      <point x="340" y="651" type="line"/>
      <point x="113" y="651" type="line"/>
      <point x="113" y="911" type="line"/>
      <point x="340" y="911" type="line"/>
      <point x="340" y="1159" type="line"/>
      <point x="635" y="1159" type="line"/>
      <point x="635" y="911" type="line"/>
    </contour>
    <contour>
      <point x="111" y="33" type="line"/>
      <point x="111" y="293" type="line"/>
      <point x="860" y="293" type="line"/>
      <point x="860" y="33" type="line"/>
    </contour>
  </outline>
</glyph>
<glyph name="twosuperior" format="2">
  <advance width="876"/>
  <unicode hex="00B2"/>
  <outline>
    <contour>
      <point x="57" y="784" type="line"/>
      <point x="57" y="948"/>
      <point x="171" y="1120"/>
      <point x="328" y="1190" type="qcurve" smooth="yes"/>
      <point x="347" y="1198"/>
      <point x="431" y="1233"/>
      <point x="476" y="1252"/>
      <point x="541" y="1288"/>
      <point x="574" y="1319"/>
      <point x="600" y="1364"/>
      <point x="600" y="1389" type="qcurve" smooth="yes"/>
      <point x="600" y="1441"/>
      <point x="509" y="1503"/>
      <point x="434" y="1503" type="qcurve" smooth="yes"/>
      <point x="288" y="1503"/>
      <point x="184" y="1395" type="qcurve"/>
      <point x="63" y="1534" type="line"/>
      <point x="105" y="1590"/>
      <point x="321" y="1675"/>
      <point x="457" y="1675" type="qcurve" smooth="yes"/>
      <point x="628" y="1675"/>
      <point x="811" y="1530"/>
      <point x="811" y="1401" type="qcurve" smooth="yes"/>
      <point x="811" y="1191"/>
      <point x="549" y="1110" type="qcurve" smooth="yes"/>
      <point x="460" y="1083"/>
      <point x="373" y="1017"/>
      <point x="373" y="971" type="qcurve"/>
      <point x="809" y="971" type="line"/>
      <point x="809" y="784" type="line"/>
    </contour>
  </outline>
</glyph>
<glyph name="threesuperior" format="2">
  <advance width="847"/>
  <unicode hex="00B3"/>
  <outline>
    <contour>
      <point x="53" y="926" type="qcurve"/>
      <point x="152" y="1055" type="line"/>
      <point x="236" y="956"/>
      <point x="395" y="956" type="qcurve" smooth="yes"/>
      <point x="473" y="956"/>
      <point x="575" y="1006"/>
      <point x="575" y="1057" type="qcurve" smooth="yes"/>
      <point x="575" y="1109"/>
      <point x="458" y="1157"/>
      <point x="328" y="1157" type="qcurve" smooth="yes"/>
      <point x="279" y="1157" type="line"/>
      <point x="279" y="1325" type="line"/>
      <point x="328" y="1325" type="line" smooth="yes"/>
      <point x="441" y="1325"/>
      <point x="545" y="1369"/>
      <point x="545" y="1415" type="qcurve" smooth="yes"/>
      <point x="545" y="1463"/>
      <point x="456" y="1505"/>
      <point x="395" y="1505" type="qcurve" smooth="yes"/>
      <point x="254" y="1505"/>
      <point x="166" y="1413" type="qcurve"/>
      <point x="51" y="1556" type="line"/>
      <point x="98" y="1612"/>
      <point x="305" y="1675"/>
      <point x="412" y="1675" type="qcurve" smooth="yes"/>
      <point x="567" y="1675"/>
      <point x="762" y="1539"/>
      <point x="762" y="1434" type="qcurve" smooth="yes"/>
      <point x="762" y="1364"/>
      <point x="672" y="1266"/>
      <point x="594" y="1251" type="qcurve"/>
      <point x="680" y="1238"/>
      <point x="782" y="1111"/>
      <point x="782" y="1024" type="qcurve" smooth="yes"/>
      <point x="782" y="938"/>
      <point x="674" y="820"/>
      <point x="509" y="770"/>
      <point x="406" y="770" type="qcurve" smooth="yes"/>
      <point x="279" y="770"/>
      <point x="86" y="852"/>
    </contour>
  </outline>
</glyph>
<glyph name="acute" format="2">
  <advance width="550"/>
  <unicode hex="00B4"/>
  <anchor x="297" y="1495" name="Anchor-13"/>
  <outline>
    <contour>
      <point x="303" y="1171" type="line"/>
      <point x="94" y="1229" type="line"/>
      <point x="201" y="1495" type="line"/>
      <point x="498" y="1495" type="line"/>
    </contour>
  </outline>
</glyph>
<glyph name="mu" format="2">
  <advance width="1400"/>
  <unicode hex="00B5"/>
  <outline>
    <contour>
      <point x="156" y="1075" type="line"/>
      <point x="483" y="1075" type="line"/>
      <point x="483" y="459" type="line" smooth="yes"/>
      <point x="483" y="256"/>
      <point x="641" y="256" type="qcurve" smooth="yes"/>
      <point x="703" y="256"/>
      <point x="826" y="332"/>
      <point x="870" y="412" type="qcurve"/>
      <point x="870" y="1075" type="line"/>
      <point x="1198" y="1075" type="line"/>
      <point x="1198" y="369" type="line" smooth="yes"/>
      <point x="1198" y="320"/>
      <point x="1234" y="279"/>
      <point x="1280" y="276" type="qcurve"/>
      <point x="1280" y="0" type="line"/>
      <point x="1192" y="-16"/>
      <point x="1126" y="-16" type="qcurve" smooth="yes"/>
      <point x="1041" y="-16"/>
      <point x="937" y="58"/>
      <point x="926" y="125" type="qcurve"/>
      <point x="920" y="186" type="line"/>
      <point x="890" y="117"/>
      <point x="712" y="-20"/>
      <point x="621" y="-20" type="qcurve" smooth="yes"/>
      <point x="556" y="-20"/>
      <point x="471" y="47"/>
      <point x="463" y="78" type="qcurve"/>
      <point x="483" y="-436" type="line"/>
      <point x="156" y="-436" type="line"/>
    </contour>
  </outline>
</glyph>
<glyph name="paragraph" format="2">
  <advance width="1390"/>
  <unicode hex="00B6"/>
  <outline>
    <contour>
      <point x="647" y="1454" type="qcurve" smooth="yes"/>
      <point x="1296" y="1454" type="line"/>
      <point x="1296" y="1210" type="line"/>
      <point x="1153" y="1210" type="line"/>
      <point x="1153" y="-164" type="line"/>
      <point x="874" y="-164" type="line"/>
      <point x="874" y="408" type="line"/>
      <point x="791" y="408" type="line"/>
      <point x="791" y="-164" type="line"/>
      <point x="512" y="-164" type="line"/>
      <point x="512" y="408" type="line"/>
      <point x="314" y="408"/>
      <point x="70" y="692"/>
      <point x="70" y="924" type="qcurve" smooth="yes"/>
      <point x="70" y="1176"/>
      <point x="373" y="1454"/>
    </contour>
    <contour>
      <point x="512" y="649" type="qcurve"/>
      <point x="512" y="1210" type="line"/>
      <point x="434" y="1204"/>
      <point x="342" y="1051"/>
      <point x="342" y="932" type="qcurve" smooth="yes"/>
      <point x="342" y="812"/>
      <point x="439" y="658"/>
    </contour>
    <contour>
      <point x="874" y="1210" type="line"/>
      <point x="791" y="1210" type="line"/>
      <point x="791" y="649" type="line"/>
      <point x="874" y="649" type="line"/>
    </contour>
  </outline>
</glyph>
<glyph name="periodcentered" format="2">
  <advance width="489"/>
  <unicode hex="00B7"/>
  <outline>
    <contour>
      <point x="111" y="492" type="line"/>
      <point x="111" y="831" type="line"/>
      <point x="379" y="831" type="line"/>
      <point x="379" y="492" type="line"/>
    </contour>
  </outline>
</glyph>
<glyph name="cedilla" format="2">
  <advance width="702"/>
  <unicode hex="00B8"/>
  <outline>
    <contour>
      <point x="303" y="-430" type="qcurve" smooth="yes"/>
      <point x="174" y="-430"/>
      <point x="53" y="-365" type="qcurve"/>
      <point x="131" y="-195" type="line"/>
      <point x="187" y="-236"/>
      <point x="248" y="-236" type="qcurve" smooth="yes"/>
      <point x="293" y="-236"/>
      <point x="346" y="-191"/>
      <point x="346" y="-150" type="qcurve" smooth="yes"/>
      <point x="346" y="-74"/>
      <point x="246" y="0" type="qcurve"/>
      <point x="352" y="66" type="line"/>
      <point x="442" y="2"/>
      <point x="541" y="-128"/>
      <point x="541" y="-213" type="qcurve" smooth="yes"/>
      <point x="541" y="-307"/>
      <point x="418" y="-430"/>
    </contour>
  </outline>
</glyph>
<glyph name="onesuperior" format="2">
  <advance width="632"/>
  <unicode hex="00B9"/>
  <outline>
    <contour>
      <point x="590" y="975" type="line"/>
      <point x="590" y="786" type="line"/>
      <point x="98" y="786" type="line"/>
      <point x="98" y="975" type="line"/>
      <point x="256" y="975" type="line"/>
      <point x="256" y="1473" type="line"/>
      <point x="232" y="1440"/>
      <point x="107" y="1366"/>
      <point x="63" y="1366" type="qcurve"/>
      <point x="63" y="1556" type="line"/>
      <point x="100" y="1556"/>
      <point x="197" y="1616"/>
      <point x="253" y="1669"/>
      <point x="256" y="1675" type="qcurve"/>
      <point x="449" y="1675" type="line"/>
      <point x="449" y="975" type="line"/>
    </contour>
  </outline>
</glyph>
<glyph name="ordmasculine" format="2">
  <advance width="903"/>
  <unicode hex="00BA"/>
  <anchor x="0" y="0" name="Anchor-11"/>
  <anchor x="0" y="0" name="Anchor-10"/>
  <anchor x="569" y="1063" name="Anchor-9"/>
  <anchor x="0" y="0" name="Anchor-8"/>
  <anchor x="567" y="0" name="Anchor-7"/>
  <outline>
    <contour>
      <point x="66" y="1075" type="qcurve" smooth="yes"/>
      <point x="66" y="1180"/>
      <point x="154" y="1354"/>
      <point x="332" y="1462"/>
      <point x="451" y="1462" type="qcurve" smooth="yes"/>
      <point x="571" y="1462"/>
      <point x="750" y="1354"/>
      <point x="838" y="1180"/>
      <point x="838" y="1075" type="qcurve" smooth="yes"/>
      <point x="838" y="997"/>
      <point x="786" y="858"/>
      <point x="691" y="751"/>
      <point x="542" y="688"/>
      <point x="451" y="688" type="qcurve" smooth="yes"/>
      <point x="274" y="688"/>
      <point x="66" y="913"/>
    </contour>
    <contour>
      <point x="451" y="887" type="qcurve" smooth="yes"/>
      <point x="516" y="887"/>
      <point x="602" y="991"/>
      <point x="602" y="1159"/>
      <point x="516" y="1264"/>
      <point x="451" y="1264" type="qcurve" smooth="yes"/>
      <point x="387" y="1264"/>
      <point x="301" y="1159"/>
      <point x="301" y="1075" type="qcurve" smooth="yes"/>
      <point x="301" y="992"/>
      <point x="387" y="887"/>
    </contour>
  </outline>
</glyph>
<glyph name="guillemotright" format="2">
  <advance width="1390"/>
  <unicode hex="00BB"/>
  <outline>
    <contour>
      <point x="670" y="444" type="line"/>
      <point x="117" y="80" type="line"/>
      <point x="117" y="344" type="line"/>
      <point x="412" y="530" type="line"/>
      <point x="117" y="731" type="line"/>
      <point x="117" y="995" type="line"/>
      <point x="670" y="600" type="line"/>
    </contour>
    <contour>
      <point x="1323" y="444" type="line"/>
      <point x="770" y="80" type="line"/>
      <point x="770" y="344" type="line"/>
      <point x="1065" y="530" type="line"/>
      <point x="770" y="731" type="line"/>
      <point x="770" y="995" type="line"/>
      <point x="1323" y="600" type="line"/>
    </contour>
  </outline>
</glyph>
<glyph name="onequarter" format="2">
  <advance width="1875"/>
  <unicode hex="00BC"/>
  <outline>
    <contour>
      <point x="590" y="797" type="line"/>
      <point x="590" y="608" type="line"/>
      <point x="98" y="608" type="line"/>
      <point x="98" y="797" type="line"/>
      <point x="256" y="797" type="line"/>
      <point x="256" y="1294" type="line"/>
      <point x="232" y="1261"/>
      <point x="107" y="1188"/>
      <point x="63" y="1188" type="qcurve"/>
      <point x="63" y="1378" type="line"/>
      <point x="100" y="1378"/>
      <point x="197" y="1438"/>
      <point x="253" y="1491"/>
      <point x="256" y="1497" type="qcurve"/>
      <point x="449" y="1497" type="line"/>
      <point x="449" y="797" type="line"/>
    </contour>
    <contour>
      <point x="231" y="115" type="line"/>
      <point x="809" y="778" type="line"/>
      <point x="1333" y="1473" type="line"/>
      <point x="1481" y="1341" type="line"/>
      <point x="922" y="694" type="line"/>
      <point x="377" y="-18" type="line"/>
    </contour>
    <contour>
      <point x="1489" y="2" type="line"/>
      <point x="1489" y="197" type="line"/>
      <point x="1057" y="197" type="line"/>
      <point x="1057" y="369" type="line"/>
      <point x="1563" y="883" type="line"/>
      <point x="1708" y="883" type="line"/>
      <point x="1708" y="352" type="line"/>
      <point x="1821" y="352" type="line"/>
      <point x="1821" y="197" type="line"/>
      <point x="1708" y="197" type="line"/>
      <point x="1708" y="2" type="line"/>
    </contour>
    <contour>
      <point x="1237" y="352" type="line"/>
      <point x="1497" y="352" type="line"/>
      <point x="1497" y="623" type="line"/>
    </contour>
  </outline>
</glyph>
<glyph name="onehalf" format="2">
  <advance width="1959"/>
  <unicode hex="00BD"/>
  <outline>
    <contour>
      <point x="590" y="797" type="line"/>
      <point x="590" y="608" type="line"/>
      <point x="98" y="608" type="line"/>
      <point x="98" y="797" type="line"/>
      <point x="256" y="797" type="line"/>
      <point x="256" y="1294" type="line"/>
      <point x="232" y="1261"/>
      <point x="107" y="1188"/>
      <point x="63" y="1188" type="qcurve"/>
      <point x="63" y="1378" type="line"/>
      <point x="100" y="1378"/>
      <point x="197" y="1438"/>
      <point x="253" y="1491"/>
      <point x="256" y="1497" type="qcurve"/>
      <point x="449" y="1497" type="line"/>
      <point x="449" y="797" type="line"/>
    </contour>
    <contour>
      <point x="231" y="115" type="line"/>
      <point x="809" y="778" type="line"/>
      <point x="1333" y="1473" type="line"/>
      <point x="1481" y="1341" type="line"/>
      <point x="922" y="694" type="line"/>
      <point x="377" y="-18" type="line"/>
    </contour>
    <contour>
      <point x="1139" y="0" type="line"/>
      <point x="1139" y="164"/>
      <point x="1250" y="336"/>
      <point x="1405" y="406" type="qcurve" smooth="yes"/>
      <point x="1424" y="414"/>
      <point x="1508" y="449"/>
      <point x="1552" y="468"/>
      <point x="1616" y="503"/>
      <point x="1650" y="534"/>
      <point x="1675" y="579"/>
      <point x="1675" y="604" type="qcurve" smooth="yes"/>
      <point x="1675" y="656"/>
      <point x="1585" y="719"/>
      <point x="1511" y="719" type="qcurve" smooth="yes"/>
      <point x="1371" y="719"/>
      <point x="1264" y="608" type="qcurve"/>
      <point x="1145" y="750" type="line"/>
      <point x="1185" y="806"/>
      <point x="1400" y="891"/>
      <point x="1534" y="891" type="qcurve" smooth="yes"/>
      <point x="1702" y="891"/>
      <point x="1884" y="745"/>
      <point x="1884" y="616" type="qcurve" smooth="yes"/>
      <point x="1884" y="407"/>
      <point x="1624" y="326" type="qcurve" smooth="yes"/>
      <point x="1450" y="272"/>
      <point x="1450" y="186" type="qcurve"/>
      <point x="1886" y="186" type="line"/>
      <point x="1886" y="0" type="line"/>
    </contour>
  </outline>
</glyph>
<glyph name="threequarters" format="2">
  <advance width="2091"/>
  <unicode hex="00BE"/>
  <outline>
    <contour>
      <point x="53" y="748" type="qcurve"/>
      <point x="152" y="877" type="line"/>
      <point x="236" y="778"/>
      <point x="395" y="778" type="qcurve" smooth="yes"/>
      <point x="473" y="778"/>
      <point x="575" y="828"/>
      <point x="575" y="879" type="qcurve" smooth="yes"/>
      <point x="575" y="931"/>
      <point x="458" y="979"/>
      <point x="328" y="979" type="qcurve" smooth="yes"/>
      <point x="279" y="979" type="line"/>
      <point x="279" y="1147" type="line"/>
      <point x="328" y="1147" type="line" smooth="yes"/>
      <point x="441" y="1147"/>
      <point x="545" y="1191"/>
      <point x="545" y="1237" type="qcurve" smooth="yes"/>
      <point x="545" y="1285"/>
      <point x="456" y="1327"/>
      <point x="395" y="1327" type="qcurve" smooth="yes"/>
      <point x="254" y="1327"/>
      <point x="166" y="1235" type="qcurve"/>
      <point x="51" y="1378" type="line"/>
      <point x="98" y="1434"/>
      <point x="305" y="1497"/>
      <point x="412" y="1497" type="qcurve" smooth="yes"/>
      <point x="567" y="1497"/>
      <point x="762" y="1360"/>
      <point x="762" y="1255" type="qcurve" smooth="yes"/>
      <point x="762" y="1185"/>
      <point x="672" y="1088"/>
      <point x="594" y="1073" type="qcurve"/>
      <point x="680" y="1060"/>
      <point x="782" y="933"/>
      <point x="782" y="846" type="qcurve" smooth="yes"/>
      <point x="782" y="760"/>
      <point x="674" y="642"/>
      <point x="509" y="592"/>
      <point x="406" y="592" type="qcurve" smooth="yes"/>
      <point x="279" y="592"/>
      <point x="86" y="674"/>
    </contour>
    <contour>
      <point x="446" y="115" type="line"/>
      <point x="1024" y="778" type="line"/>
      <point x="1548" y="1473" type="line"/>
      <point x="1696" y="1341" type="line"/>
      <point x="1137" y="694" type="line"/>
      <point x="592" y="-18" type="line"/>
    </contour>
    <contour>
      <point x="1704" y="2" type="line"/>
      <point x="1704" y="197" type="line"/>
      <point x="1272" y="197" type="line"/>
      <point x="1272" y="369" type="line"/>
      <point x="1778" y="883" type="line"/>
      <point x="1923" y="883" type="line"/>
      <point x="1923" y="352" type="line"/>
      <point x="2036" y="352" type="line"/>
      <point x="2036" y="197" type="line"/>
      <point x="1923" y="197" type="line"/>
      <point x="1923" y="2" type="line"/>
    </contour>
    <contour>
      <point x="1452" y="352" type="line"/>
      <point x="1712" y="352" type="line"/>
      <point x="1712" y="623" type="line"/>
    </contour>
  </outline>
</glyph>
<glyph name="questiondown" format="2">
  <advance width="989"/>
  <unicode hex="00BF"/>
  <outline>
    <contour>
      <point x="766" y="1036" type="line"/>
      <point x="766" y="729" type="line"/>
      <point x="498" y="729" type="line"/>
      <point x="498" y="1036" type="line"/>
    </contour>
    <contour>
      <point x="772" y="535" type="line"/>
      <point x="772" y="427"/>
      <point x="705" y="277"/>
      <point x="606" y="223" type="qcurve" smooth="yes"/>
      <point x="598" y="218"/>
      <point x="528" y="181"/>
      <point x="483" y="156"/>
      <point x="416" y="108"/>
      <point x="376" y="64"/>
      <point x="346" y="3"/>
      <point x="346" y="-29" type="qcurve" smooth="yes"/>
      <point x="346" y="-94"/>
      <point x="442" y="-172"/>
      <point x="508" y="-172" type="qcurve" smooth="yes"/>
      <point x="546" y="-172"/>
      <point x="613" y="-145"/>
      <point x="666" y="-92"/>
      <point x="696" y="-54"/>
      <point x="715" y="-25" type="qcurve"/>
      <point x="926" y="-172" type="line"/>
      <point x="872" y="-296"/>
      <point x="642" y="-436"/>
      <point x="496" y="-436" type="qcurve" smooth="yes"/>
      <point x="432" y="-436"/>
      <point x="310" y="-408"/>
      <point x="197" y="-345"/>
      <point x="112" y="-252"/>
      <point x="61" y="-112"/>
      <point x="61" y="-27" type="qcurve" smooth="yes"/>
      <point x="61" y="86"/>
      <point x="156" y="245"/>
      <point x="252" y="307" type="qcurve" smooth="yes"/>
      <point x="278" y="324"/>
      <point x="364" y="370"/>
      <point x="418" y="402"/>
      <point x="474" y="447"/>
      <point x="502" y="502"/>
      <point x="502" y="535" type="qcurve"/>
    </contour>
  </outline>
</glyph>
<glyph name="Agrave" format="2">
  <advance width="1372"/>
  <unicode hex="00C0"/>
  <anchor x="0" y="0" name="Anchor-11"/>
  <anchor x="0" y="0" name="Anchor-10"/>
  <anchor x="610" y="1872" name="Anchor-9"/>
  <anchor x="1368" y="0" name="Anchor-8"/>
  <anchor x="709" y="0" name="Anchor-7"/>
  <outline>
    <contour>
      <point x="408" y="1872" type="line"/>
      <point x="705" y="1872" type="line"/>
      <point x="811" y="1606" type="line"/>
      <point x="604" y="1548" type="line"/>
    </contour>
    <contour>
      <point x="506" y="1454" type="line"/>
      <point x="868" y="1454" type="line"/>
      <point x="1368" y="0" type="line"/>
      <point x="1024" y="0" type="line"/>
      <point x="911" y="326" type="line"/>
      <point x="459" y="326" type="line"/>
      <point x="348" y="0" type="line"/>
      <point x="4" y="0" type="line"/>
    </contour>
    <contour>
      <point x="856" y="557" type="line"/>
      <point x="686" y="1116" type="line"/>
      <point x="512" y="557" type="line"/>
    </contour>
  </outline>
</glyph>
<glyph name="Aacute" format="2">
  <advance width="1372"/>
  <unicode hex="00C1"/>
  <anchor x="0" y="0" name="Anchor-11"/>
  <anchor x="0" y="0" name="Anchor-10"/>
  <anchor x="786" y="1872" name="Anchor-9"/>
  <anchor x="1368" y="0" name="Anchor-8"/>
  <anchor x="709" y="0" name="Anchor-7"/>
  <outline>
    <contour>
      <point x="793" y="1548" type="line"/>
      <point x="584" y="1606" type="line"/>
      <point x="690" y="1872" type="line"/>
      <point x="987" y="1872" type="line"/>
    </contour>
    <contour>
      <point x="506" y="1454" type="line"/>
      <point x="868" y="1454" type="line"/>
      <point x="1368" y="0" type="line"/>
      <point x="1024" y="0" type="line"/>
      <point x="911" y="326" type="line"/>
      <point x="459" y="326" type="line"/>
      <point x="348" y="0" type="line"/>
      <point x="4" y="0" type="line"/>
    </contour>
    <contour>
      <point x="856" y="557" type="line"/>
      <point x="686" y="1116" type="line"/>
      <point x="512" y="557" type="line"/>
    </contour>
  </outline>
</glyph>
<glyph name="Acircumflex" format="2">
  <advance width="1372"/>
  <unicode hex="00C2"/>
  <anchor x="0" y="0" name="Anchor-11"/>
  <anchor x="0" y="0" name="Anchor-10"/>
  <anchor x="686" y="1872" name="Anchor-9"/>
  <anchor x="1368" y="0" name="Anchor-8"/>
  <anchor x="709" y="0" name="Anchor-7"/>
  <outline>
    <contour>
      <point x="344" y="1651" type="line"/>
      <point x="569" y="1872" type="line"/>
      <point x="805" y="1872" type="line"/>
      <point x="1028" y="1651" type="line"/>
      <point x="860" y="1577" type="line"/>
      <point x="686" y="1706" type="line"/>
      <point x="512" y="1577" type="line"/>
    </contour>
    <contour>
      <point x="506" y="1454" type="line"/>
      <point x="868" y="1454" type="line"/>
      <point x="1368" y="0" type="line"/>
      <point x="1024" y="0" type="line"/>
      <point x="911" y="326" type="line"/>
      <point x="459" y="326" type="line"/>
      <point x="348" y="0" type="line"/>
      <point x="4" y="0" type="line"/>
    </contour>
    <contour>
      <point x="856" y="557" type="line"/>
      <point x="686" y="1116" type="line"/>
      <point x="512" y="557" type="line"/>
    </contour>
  </outline>
</glyph>
<glyph name="Atilde" format="2">
  <advance width="1372"/>
  <unicode hex="00C3"/>
  <anchor x="0" y="0" name="Anchor-11"/>
  <anchor x="0" y="0" name="Anchor-10"/>
  <anchor x="686" y="1872" name="Anchor-9"/>
  <anchor x="1368" y="0" name="Anchor-8"/>
  <anchor x="709" y="0" name="Anchor-7"/>
  <outline>
    <contour>
      <point x="551" y="1675" type="qcurve" smooth="yes"/>
      <point x="526" y="1675"/>
      <point x="488" y="1655"/>
      <point x="469" y="1630"/>
      <point x="457" y="1598"/>
      <point x="455" y="1581"/>
      <point x="455" y="1577" type="qcurve"/>
      <point x="279" y="1577" type="line"/>
      <point x="279" y="1598"/>
      <point x="295" y="1664"/>
      <point x="335" y="1748"/>
      <point x="392" y="1819"/>
      <point x="484" y="1868"/>
      <point x="539" y="1868" type="qcurve" smooth="yes"/>
      <point x="582" y="1868"/>
      <point x="662" y="1837"/>
      <point x="713" y="1800"/>
      <point x="779" y="1769"/>
      <point x="811" y="1769" type="qcurve" smooth="yes"/>
      <point x="837" y="1769"/>
      <point x="879" y="1790"/>
      <point x="900" y="1817"/>
      <point x="914" y="1849"/>
      <point x="918" y="1868"/>
      <point x="918" y="1872" type="qcurve"/>
      <point x="1094" y="1872" type="line"/>
      <point x="1094" y="1856"/>
      <point x="1077" y="1794"/>
      <point x="1035" y="1708"/>
      <point x="976" y="1633"/>
      <point x="880" y="1581"/>
      <point x="823" y="1581" type="qcurve" smooth="yes"/>
      <point x="770" y="1581"/>
      <point x="673" y="1628"/>
      <point x="588" y="1675"/>
    </contour>
    <contour>
      <point x="506" y="1454" type="line"/>
      <point x="868" y="1454" type="line"/>
      <point x="1368" y="0" type="line"/>
      <point x="1024" y="0" type="line"/>
      <point x="911" y="326" type="line"/>
      <point x="459" y="326" type="line"/>
      <point x="348" y="0" type="line"/>
      <point x="4" y="0" type="line"/>
    </contour>
    <contour>
      <point x="856" y="557" type="line"/>
      <point x="686" y="1116" type="line"/>
      <point x="512" y="557" type="line"/>
    </contour>
  </outline>
</glyph>
<glyph name="Aring" format="2">
  <advance width="1372"/>
  <unicode hex="00C5"/>
  <anchor x="0" y="0" name="Anchor-11"/>
  <anchor x="0" y="0" name="Anchor-10"/>
  <anchor x="686" y="1886" name="Anchor-9"/>
  <anchor x="1368" y="0" name="Anchor-8"/>
  <anchor x="709" y="0" name="Anchor-7"/>
  <outline>
    <contour>
      <point x="686" y="1896" type="qcurve" smooth="yes"/>
      <point x="788" y="1896"/>
      <point x="911" y="1793"/>
      <point x="911" y="1706" type="qcurve" smooth="yes"/>
      <point x="911" y="1620"/>
      <point x="788" y="1520"/>
      <point x="686" y="1520" type="qcurve" smooth="yes"/>
      <point x="583" y="1520"/>
      <point x="459" y="1620"/>
      <point x="459" y="1706" type="qcurve" smooth="yes"/>
      <point x="459" y="1793"/>
      <point x="583" y="1896"/>
    </contour>
    <contour>
      <point x="600" y="1708" type="qcurve" smooth="yes"/>
      <point x="600" y="1674"/>
      <point x="650" y="1624"/>
      <point x="686" y="1624" type="qcurve" smooth="yes"/>
      <point x="721" y="1624"/>
      <point x="772" y="1674"/>
      <point x="772" y="1708" type="qcurve" smooth="yes"/>
      <point x="772" y="1743"/>
      <point x="723" y="1790"/>
      <point x="649" y="1790"/>
      <point x="600" y="1743"/>
    </contour>
    <contour>
      <point x="506" y="1454" type="line"/>
      <point x="868" y="1454" type="line"/>
      <point x="1368" y="0" type="line"/>
      <point x="1024" y="0" type="line"/>
      <point x="911" y="326" type="line"/>
      <point x="459" y="326" type="line"/>
      <point x="348" y="0" type="line"/>
      <point x="4" y="0" type="line"/>
    </contour>
    <contour>
      <point x="856" y="557" type="line"/>
      <point x="686" y="1116" type="line"/>
      <point x="512" y="557" type="line"/>
    </contour>
  </outline>
</glyph>
<glyph name="AE" format="2">
  <advance width="1982"/>
  <unicode hex="00C6"/>
  <anchor x="0" y="0" name="Anchor-11"/>
  <anchor x="0" y="0" name="Anchor-10"/>
  <anchor x="1266" y="1452" name="Anchor-9"/>
  <anchor x="0" y="0" name="Anchor-8"/>
  <anchor x="0" y="0" name="Anchor-7"/>
  <outline>
    <contour>
      <point x="844" y="1454" type="line"/>
      <point x="1898" y="1454" type="line"/>
      <point x="1898" y="1159" type="line"/>
      <point x="1266" y="1159" type="line"/>
      <point x="1266" y="887" type="line"/>
      <point x="1788" y="887" type="line"/>
      <point x="1788" y="594" type="line"/>
      <point x="1266" y="594" type="line"/>
      <point x="1266" y="295" type="line"/>
      <point x="1917" y="295" type="line"/>
      <point x="1917" y="0" type="line"/>
      <point x="932" y="0" type="line"/>
      <point x="932" y="326" type="line"/>
      <point x="492" y="326" type="line"/>
      <point x="305" y="0" type="line"/>
      <point x="-53" y="0" type="line"/>
    </contour>
    <contour>
      <point x="905" y="621" type="line"/>
      <point x="905" y="1079" type="line"/>
      <point x="633" y="621" type="line"/>
    </contour>
  </outline>
</glyph>
<glyph name="Eacute" format="2">
  <advance width="1226"/>
  <unicode hex="00C9"/>
  <anchor x="0" y="0" name="Anchor-11"/>
  <anchor x="0" y="0" name="Anchor-10"/>
  <anchor x="758" y="1872" name="Anchor-9"/>
  <anchor x="1161" y="0" name="Anchor-8"/>
  <anchor x="657" y="0" name="Anchor-7"/>
  <outline>
    <contour>
      <point x="764" y="1548" type="line"/>
      <point x="555" y="1606" type="line"/>
      <point x="662" y="1872" type="line"/>
      <point x="958" y="1872" type="line"/>
    </contour>
    <contour>
      <point x="1161" y="295" type="line"/>
      <point x="1161" y="0" type="line"/>
      <point x="139" y="0" type="line"/>
      <point x="139" y="1454" type="line"/>
      <point x="1143" y="1454" type="line"/>
      <point x="1143" y="1159" type="line"/>
      <point x="475" y="1159" type="line"/>
      <point x="475" y="877" type="line"/>
      <point x="1049" y="877" type="line"/>
      <point x="1049" y="604" type="line"/>
      <point x="475" y="604" type="line"/>
      <point x="475" y="295" type="line"/>
    </contour>
  </outline>
</glyph>
<glyph name="Edieresis" format="2">
  <advance width="1226"/>
  <unicode hex="00CB"/>
  <anchor x="0" y="0" name="Anchor-11"/>
  <anchor x="0" y="0" name="Anchor-10"/>
  <anchor x="657" y="1853" name="Anchor-9"/>
  <anchor x="1161" y="0" name="Anchor-8"/>
  <anchor x="657" y="0" name="Anchor-7"/>
  <outline>
    <contour>
      <point x="307" y="1593" type="line"/>
      <point x="307" y="1858" type="line"/>
      <point x="578" y="1858" type="line"/>
      <point x="578" y="1593" type="line"/>
    </contour>
    <contour>
      <point x="737" y="1593" type="line"/>
      <point x="737" y="1858" type="line"/>
      <point x="1008" y="1858" type="line"/>
      <point x="1008" y="1593" type="line"/>
    </contour>
    <contour>
      <point x="1161" y="295" type="line"/>
      <point x="1161" y="0" type="line"/>
      <point x="139" y="0" type="line"/>
      <point x="139" y="1454" type="line"/>
      <point x="1143" y="1454" type="line"/>
      <point x="1143" y="1159" type="line"/>
      <point x="475" y="1159" type="line"/>
      <point x="475" y="877" type="line"/>
      <point x="1049" y="877" type="line"/>
      <point x="1049" y="604" type="line"/>
      <point x="475" y="604" type="line"/>
      <point x="475" y="295" type="line"/>
    </contour>
  </outline>
</glyph>
<glyph name="Igrave" format="2">
  <advance width="614"/>
  <unicode hex="00CC"/>
  <anchor x="0" y="0" name="Anchor-11"/>
  <anchor x="0" y="0" name="Anchor-10"/>
  <anchor x="231" y="1872" name="Anchor-9"/>
  <anchor x="475" y="0" name="Anchor-8"/>
  <anchor x="307" y="0" name="Anchor-7"/>
  <outline>
    <contour>
      <point x="29" y="1872" type="line"/>
      <point x="326" y="1872" type="line"/>
      <point x="432" y="1606" type="line"/>
      <point x="225" y="1548" type="line"/>
    </contour>
    <contour>
      <point x="139" y="0" type="line"/>
      <point x="139" y="1454" type="line"/>
      <point x="475" y="1454" type="line"/>
      <point x="475" y="0" type="line"/>
    </contour>
  </outline>
</glyph>
<glyph name="Iacute" format="2">
  <advance width="614"/>
  <unicode hex="00CD"/>
  <anchor x="0" y="0" name="Anchor-11"/>
  <anchor x="0" y="0" name="Anchor-10"/>
  <anchor x="408" y="1872" name="Anchor-9"/>
  <anchor x="475" y="0" name="Anchor-8"/>
  <anchor x="307" y="0" name="Anchor-7"/>
  <outline>
    <contour>
      <point x="414" y="1548" type="line"/>
      <point x="205" y="1606" type="line"/>
      <point x="311" y="1872" type="line"/>
      <point x="608" y="1872" type="line"/>
    </contour>
    <contour>
      <point x="139" y="0" type="line"/>
      <point x="139" y="1454" type="line"/>
      <point x="475" y="1454" type="line"/>
      <point x="475" y="0" type="line"/>
    </contour>
  </outline>
</glyph>
<glyph name="Icircumflex" format="2">
  <advance width="614"/>
  <unicode hex="00CE"/>
  <anchor x="0" y="0" name="Anchor-11"/>
  <anchor x="0" y="0" name="Anchor-10"/>
  <anchor x="307" y="1872" name="Anchor-9"/>
  <anchor x="475" y="0" name="Anchor-8"/>
  <anchor x="307" y="0" name="Anchor-7"/>
  <outline>
    <contour>
      <point x="-35" y="1651" type="line"/>
      <point x="190" y="1872" type="line"/>
      <point x="426" y="1872" type="line"/>
      <point x="649" y="1651" type="line"/>
      <point x="481" y="1577" type="line"/>
      <point x="307" y="1706" type="line"/>
      <point x="133" y="1577" type="line"/>
    </contour>
    <contour>
      <point x="139" y="0" type="line"/>
      <point x="139" y="1454" type="line"/>
      <point x="475" y="1454" type="line"/>
      <point x="475" y="0" type="line"/>
    </contour>
  </outline>
</glyph>
<glyph name="Idieresis" format="2">
  <advance width="614"/>
  <unicode hex="00CF"/>
  <anchor x="0" y="0" name="Anchor-11"/>
  <anchor x="0" y="0" name="Anchor-10"/>
  <anchor x="307" y="1853" name="Anchor-9"/>
  <anchor x="475" y="0" name="Anchor-8"/>
  <anchor x="307" y="0" name="Anchor-7"/>
  <outline>
    <contour>
      <point x="-43" y="1593" type="line"/>
      <point x="-43" y="1858" type="line"/>
      <point x="227" y="1858" type="line"/>
      <point x="227" y="1593" type="line"/>
    </contour>
    <contour>
      <point x="387" y="1593" type="line"/>
      <point x="387" y="1858" type="line"/>
      <point x="657" y="1858" type="line"/>
      <point x="657" y="1593" type="line"/>
    </contour>
    <contour>
      <point x="139" y="0" type="line"/>
      <point x="139" y="1454" type="line"/>
      <point x="475" y="1454" type="line"/>
      <point x="475" y="0" type="line"/>
    </contour>
  </outline>
</glyph>
<glyph name="Eth" format="2">
  <advance width="1476"/>
  <unicode hex="00D0"/>
  <anchor x="0" y="0" name="Anchor-11"/>
  <anchor x="743" y="727" name="Anchor-10"/>
  <anchor x="674" y="1452" name="Anchor-9"/>
  <anchor x="0" y="0" name="Anchor-8"/>
  <anchor x="743" y="0" name="Anchor-7"/>
  <outline>
    <contour>
      <point x="692" y="1454" type="line" smooth="yes"/>
      <point x="867" y="1454"/>
      <point x="1146" y="1341"/>
      <point x="1324" y="1142"/>
      <point x="1417" y="881"/>
      <point x="1417" y="729" type="qcurve" smooth="yes"/>
      <point x="1417" y="399"/>
      <point x="1020" y="0"/>
      <point x="692" y="0" type="qcurve" smooth="yes"/>
      <point x="150" y="0" type="line"/>
      <point x="150" y="610" type="line"/>
      <point x="61" y="610" type="line"/>
      <point x="61" y="852" type="line"/>
      <point x="150" y="852" type="line"/>
      <point x="150" y="1454" type="line"/>
    </contour>
    <contour>
      <point x="692" y="295" type="line" smooth="yes"/>
      <point x="872" y="295"/>
      <point x="1075" y="536"/>
      <point x="1075" y="729" type="qcurve" smooth="yes"/>
      <point x="1075" y="924"/>
      <point x="871" y="1159"/>
      <point x="692" y="1159" type="qcurve" smooth="yes"/>
      <point x="485" y="1159" type="line"/>
      <point x="485" y="852" type="line"/>
      <point x="748" y="852" type="line"/>
      <point x="748" y="610" type="line"/>
      <point x="485" y="610" type="line"/>
      <point x="485" y="295" type="line"/>
    </contour>
  </outline>
</glyph>
<glyph name="Ntilde" format="2">
  <advance width="1554"/>
  <unicode hex="00D1"/>
  <anchor x="0" y="0" name="Anchor-11"/>
  <anchor x="0" y="0" name="Anchor-10"/>
  <anchor x="774" y="1872" name="Anchor-9"/>
  <anchor x="0" y="0" name="Anchor-8"/>
  <anchor x="774" y="0" name="Anchor-7"/>
  <outline>
    <contour>
      <point x="639" y="1675" type="qcurve" smooth="yes"/>
      <point x="614" y="1675"/>
      <point x="576" y="1655"/>
      <point x="557" y="1630"/>
      <point x="545" y="1598"/>
      <point x="543" y="1581"/>
      <point x="543" y="1577" type="qcurve"/>
      <point x="367" y="1577" type="line"/>
      <point x="367" y="1598"/>
      <point x="383" y="1664"/>
      <point x="423" y="1748"/>
      <point x="480" y="1819"/>
      <point x="572" y="1868"/>
      <point x="627" y="1868" type="qcurve" smooth="yes"/>
      <point x="670" y="1868"/>
      <point x="750" y="1837"/>
      <point x="801" y="1800"/>
      <point x="867" y="1769"/>
      <point x="899" y="1769" type="qcurve" smooth="yes"/>
      <point x="925" y="1769"/>
      <point x="967" y="1790"/>
      <point x="988" y="1817"/>
      <point x="1002" y="1849"/>
      <point x="1006" y="1868"/>
      <point x="1006" y="1872" type="qcurve"/>
      <point x="1182" y="1872" type="line"/>
      <point x="1182" y="1856"/>
      <point x="1165" y="1794"/>
      <point x="1123" y="1708"/>
      <point x="1064" y="1633"/>
      <point x="968" y="1581"/>
      <point x="911" y="1581" type="qcurve" smooth="yes"/>
      <point x="858" y="1581"/>
      <point x="761" y="1628"/>
      <point x="676" y="1675"/>
    </contour>
    <contour>
      <point x="475" y="831" type="line"/>
      <point x="475" y="0" type="line"/>
      <point x="139" y="0" type="line"/>
      <point x="139" y="1454" type="line"/>
      <point x="406" y="1454" type="line"/>
      <point x="1079" y="598" type="line"/>
      <point x="1079" y="1454" type="line"/>
      <point x="1415" y="1454" type="line"/>
      <point x="1415" y="0" type="line"/>
      <point x="1141" y="0" type="line"/>
    </contour>
  </outline>
</glyph>
<glyph name="multiply" format="2">
  <advance width="991"/>
  <unicode hex="00D7"/>
  <outline>
    <contour>
      <point x="895" y="371" type="line"/>
      <point x="690" y="168" type="line"/>
      <point x="494" y="362" type="line"/>
      <point x="299" y="168" type="line"/>
      <point x="96" y="371" type="line"/>
      <point x="289" y="565" type="line"/>
      <point x="106" y="752" type="line"/>
      <point x="311" y="954" type="line"/>
      <point x="496" y="770" type="line"/>
      <point x="680" y="954" type="line"/>
      <point x="883" y="752" type="line"/>
      <point x="698" y="567" type="line"/>
    </contour>
  </outline>
</glyph>
<glyph name="Oslash" format="2">
  <advance width="1554"/>
  <unicode hex="00D8"/>
  <anchor x="1094" y="1309" name="Anchor-11"/>
  <anchor x="778" y="727" name="Anchor-10"/>
  <anchor x="782" y="1452" name="Anchor-9"/>
  <anchor x="952" y="12" name="Anchor-8"/>
  <anchor x="776" y="0" name="Anchor-7"/>
  <outline>
    <contour>
      <point x="1311" y="1223" type="line"/>
      <point x="1402" y="1119"/>
      <point x="1501" y="858"/>
      <point x="1501" y="723" type="qcurve" smooth="yes"/>
      <point x="1501" y="532"/>
      <point x="1317" y="196"/>
      <point x="981" y="-12"/>
      <point x="776" y="-12" type="qcurve" smooth="yes"/>
      <point x="614" y="-12"/>
      <point x="479" y="51" type="qcurve"/>
      <point x="442" y="0" type="line"/>
      <point x="80" y="0" type="line"/>
      <point x="244" y="229" type="line"/>
      <point x="153" y="332"/>
      <point x="55" y="592"/>
      <point x="55" y="729" type="qcurve" smooth="yes"/>
      <point x="55" y="921"/>
      <point x="241" y="1256"/>
      <point x="578" y="1462"/>
      <point x="782" y="1462" type="qcurve" smooth="yes"/>
      <point x="940" y="1462"/>
      <point x="1075" y="1399" type="qcurve"/>
      <point x="1114" y="1454" type="line"/>
      <point x="1477" y="1454" type="line"/>
    </contour>
    <contour>
      <point x="397" y="725" type="qcurve" smooth="yes"/>
      <point x="397" y="606"/>
      <point x="442" y="510" type="qcurve"/>
      <point x="895" y="1145" type="line"/>
      <point x="842" y="1163"/>
      <point x="778" y="1163" type="qcurve" smooth="yes"/>
      <point x="686" y="1163"/>
      <point x="538" y="1088"/>
      <point x="446" y="963"/>
      <point x="397" y="809"/>
    </contour>
    <contour>
      <point x="778" y="287" type="qcurve" smooth="yes"/>
      <point x="870" y="287"/>
      <point x="1019" y="363"/>
      <point x="1111" y="490"/>
      <point x="1159" y="646"/>
      <point x="1159" y="729" type="qcurve" smooth="yes"/>
      <point x="1159" y="842"/>
      <point x="1114" y="944" type="qcurve"/>
      <point x="659" y="305" type="line"/>
      <point x="715" y="287"/>
    </contour>
  </outline>
</glyph>
<glyph name="Yacute" format="2">
  <advance width="1357"/>
  <unicode hex="00DD"/>
  <anchor x="0" y="0" name="Anchor-11"/>
  <anchor x="0" y="0" name="Anchor-10"/>
  <anchor x="778" y="1872" name="Anchor-9"/>
  <anchor x="0" y="0" name="Anchor-8"/>
  <anchor x="680" y="0" name="Anchor-7"/>
  <outline>
    <contour>
      <point x="784" y="1548" type="line"/>
      <point x="575" y="1606" type="line"/>
      <point x="682" y="1872" type="line"/>
      <point x="979" y="1872" type="line"/>
    </contour>
    <contour>
      <point x="365" y="1454" type="line"/>
      <point x="678" y="811" type="line"/>
      <point x="995" y="1454" type="line"/>
      <point x="1362" y="1454" type="line"/>
      <point x="844" y="496" type="line"/>
      <point x="844" y="0" type="line"/>
      <point x="510" y="0" type="line"/>
      <point x="510" y="500" type="line"/>
      <point x="0" y="1454" type="line"/>
    </contour>
  </outline>
</glyph>
<glyph name="Thorn" format="2">
  <advance width="1239"/>
  <unicode hex="00DE"/>
  <outline>
    <contour>
      <point x="1202" y="711" type="qcurve" smooth="yes"/>
      <point x="1202" y="582"/>
      <point x="1088" y="358"/>
      <point x="873" y="217"/>
      <point x="739" y="217" type="qcurve" smooth="yes"/>
      <point x="475" y="217" type="line"/>
      <point x="475" y="0" type="line"/>
      <point x="139" y="0" type="line"/>
      <point x="139" y="1454" type="line"/>
      <point x="475" y="1454" type="line"/>
      <point x="475" y="1200" type="line"/>
      <point x="727" y="1200" type="line" smooth="yes"/>
      <point x="827" y="1200"/>
      <point x="1007" y="1115"/>
      <point x="1130" y="978"/>
      <point x="1202" y="801"/>
    </contour>
    <contour>
      <point x="866" y="797"/>
      <point x="772" y="907"/>
      <point x="711" y="907" type="qcurve" smooth="yes"/>
      <point x="475" y="907" type="line"/>
      <point x="475" y="512" type="line"/>
      <point x="721" y="512" type="line" smooth="yes"/>
      <point x="783" y="512"/>
      <point x="866" y="625"/>
    </contour>
  </outline>
</glyph>
<glyph name="germandbls" format="2">
  <advance width="1146"/>
  <unicode hex="00DF"/>
  <outline>
    <contour>
      <point x="512" y="289" type="line"/>
      <point x="620" y="289"/>
      <point x="754" y="383"/>
      <point x="754" y="473" type="qcurve" smooth="yes"/>
      <point x="754" y="558"/>
      <point x="637" y="653"/>
      <point x="563" y="653" type="qcurve" smooth="yes"/>
      <point x="518" y="653" type="line"/>
      <point x="518" y="946" type="line"/>
      <point x="561" y="946" type="line" smooth="yes"/>
      <point x="618" y="946"/>
      <point x="682" y="1011"/>
      <point x="682" y="1065" type="qcurve" smooth="yes"/>
      <point x="682" y="1101"/>
      <point x="654" y="1152"/>
      <point x="610" y="1176"/>
      <point x="572" y="1186"/>
      <point x="555" y="1186" type="qcurve" smooth="yes"/>
      <point x="516" y="1186"/>
      <point x="460" y="1152"/>
      <point x="435" y="1096"/>
      <point x="424" y="1045"/>
      <point x="424" y="1018" type="qcurve" smooth="yes"/>
      <point x="424" y="0" type="line"/>
      <point x="113" y="0" type="line"/>
      <point x="113" y="1075" type="line" smooth="yes"/>
      <point x="113" y="1242"/>
      <point x="382" y="1462"/>
      <point x="584" y="1462" type="qcurve" smooth="yes"/>
      <point x="765" y="1462"/>
      <point x="993" y="1279"/>
      <point x="993" y="1122" type="qcurve" smooth="yes"/>
      <point x="993" y="1021"/>
      <point x="896" y="854"/>
      <point x="829" y="825" type="qcurve"/>
      <point x="955" y="783"/>
      <point x="1098" y="579"/>
      <point x="1098" y="434" type="qcurve" smooth="yes"/>
      <point x="1098" y="337"/>
      <point x="1032" y="183"/>
      <point x="921" y="83"/>
      <point x="768" y="17"/>
      <point x="604" y="-11"/>
      <point x="512" y="-12" type="qcurve"/>
    </contour>
  </outline>
</glyph>
<glyph name="atilde" format="2">
  <advance width="1200"/>
  <unicode hex="00E3"/>
  <anchor x="0" y="0" name="Anchor-11"/>
  <anchor x="0" y="0" name="Anchor-10"/>
  <anchor x="565" y="1495" name="Anchor-9"/>
  <anchor x="1145" y="0" name="Anchor-8"/>
  <anchor x="612" y="0" name="Anchor-7"/>
  <outline>
    <contour>
      <point x="430" y="1298" type="qcurve" smooth="yes"/>
      <point x="405" y="1298"/>
      <point x="367" y="1278"/>
      <point x="348" y="1253"/>
      <point x="336" y="1221"/>
      <point x="334" y="1204"/>
      <point x="334" y="1200" type="qcurve"/>
      <point x="158" y="1200" type="line"/>
      <point x="158" y="1221"/>
      <point x="174" y="1287"/>
      <point x="214" y="1371"/>
      <point x="271" y="1442"/>
      <point x="363" y="1491"/>
      <point x="418" y="1491" type="qcurve" smooth="yes"/>
      <point x="461" y="1491"/>
      <point x="541" y="1460"/>
      <point x="592" y="1424"/>
      <point x="658" y="1393"/>
      <point x="690" y="1393" type="qcurve" smooth="yes"/>
      <point x="716" y="1393"/>
      <point x="758" y="1413"/>
      <point x="779" y="1441"/>
      <point x="793" y="1473"/>
      <point x="797" y="1491"/>
      <point x="797" y="1495" type="qcurve"/>
      <point x="973" y="1495" type="line"/>
      <point x="973" y="1479"/>
      <point x="956" y="1417"/>
      <point x="914" y="1331"/>
      <point x="855" y="1256"/>
      <point x="759" y="1204"/>
      <point x="702" y="1204" type="qcurve" smooth="yes"/>
      <point x="649" y="1204"/>
      <point x="552" y="1251"/>
      <point x="467" y="1298"/>
    </contour>
    <contour>
      <point x="45" y="322" type="qcurve" smooth="yes"/>
      <point x="45" y="481"/>
      <point x="303" y="680"/>
      <point x="508" y="680" type="qcurve" smooth="yes"/>
      <point x="648" y="680"/>
      <point x="748" y="637" type="qcurve"/>
      <point x="748" y="684" type="line" smooth="yes"/>
      <point x="748" y="866"/>
      <point x="532" y="866" type="qcurve" smooth="yes"/>
      <point x="445" y="866"/>
      <point x="288" y="809"/>
      <point x="197" y="748" type="qcurve"/>
      <point x="98" y="956" type="line"/>
      <point x="313" y="1096"/>
      <point x="565" y="1096" type="qcurve" smooth="yes"/>
      <point x="808" y="1096"/>
      <point x="1075" y="863"/>
      <point x="1075" y="645" type="qcurve" smooth="yes"/>
      <point x="1075" y="365" type="line" smooth="yes"/>
      <point x="1075" y="316"/>
      <point x="1106" y="275"/>
      <point x="1145" y="272" type="qcurve"/>
      <point x="1145" y="0" type="line"/>
      <point x="1069" y="-16"/>
      <point x="1006" y="-16" type="qcurve" smooth="yes"/>
      <point x="831" y="-16"/>
      <point x="805" y="121" type="qcurve"/>
      <point x="799" y="168" type="line"/>
      <point x="728" y="77"/>
      <point x="529" y="-20"/>
      <point x="420" y="-20" type="qcurve" smooth="yes"/>
      <point x="259" y="-20"/>
      <point x="45" y="176"/>
    </contour>
    <contour>
      <point x="696" y="281" type="qcurve" smooth="yes"/>
      <point x="748" y="323"/>
      <point x="748" y="365" type="qcurve" smooth="yes"/>
      <point x="748" y="461" type="line"/>
      <point x="648" y="496"/>
      <point x="563" y="496" type="qcurve" smooth="yes"/>
      <point x="472" y="496"/>
      <point x="354" y="414"/>
      <point x="354" y="350" type="qcurve" smooth="yes"/>
      <point x="354" y="294"/>
      <point x="443" y="215"/>
      <point x="516" y="215" type="qcurve" smooth="yes"/>
      <point x="565" y="215"/>
      <point x="662" y="251"/>
    </contour>
  </outline>
</glyph>
<glyph name="igrave" format="2">
  <advance width="552"/>
  <unicode hex="00EC"/>
  <anchor x="0" y="0" name="Anchor-11"/>
  <anchor x="0" y="0" name="Anchor-10"/>
  <anchor x="201" y="1495" name="Anchor-9"/>
  <anchor x="0" y="0" name="Anchor-8"/>
  <anchor x="0" y="0" name="Anchor-7"/>
  <outline>
    <contour>
      <point x="-2" y="1495" type="line"/>
      <point x="295" y="1495" type="line"/>
      <point x="401" y="1229" type="line"/>
      <point x="195" y="1171" type="line"/>
    </contour>
    <contour>
      <point x="113" y="0" type="line"/>
      <point x="113" y="1075" type="line"/>
      <point x="440" y="1075" type="line"/>
      <point x="440" y="0" type="line"/>
    </contour>
  </outline>
</glyph>
<glyph name="icircumflex" format="2">
  <advance width="552"/>
  <unicode hex="00EE"/>
  <anchor x="0" y="0" name="Anchor-11"/>
  <anchor x="0" y="0" name="Anchor-10"/>
  <anchor x="276" y="1495" name="Anchor-9"/>
  <anchor x="0" y="0" name="Anchor-8"/>
  <anchor x="0" y="0" name="Anchor-7"/>
  <outline>
    <contour>
      <point x="-66" y="1274" type="line"/>
      <point x="160" y="1495" type="line"/>
      <point x="395" y="1495" type="line"/>
      <point x="618" y="1274" type="line"/>
      <point x="451" y="1200" type="line"/>
      <point x="276" y="1329" type="line"/>
      <point x="102" y="1200" type="line"/>
    </contour>
    <contour>
      <point x="113" y="0" type="line"/>
      <point x="113" y="1075" type="line"/>
      <point x="440" y="1075" type="line"/>
      <point x="440" y="0" type="line"/>
    </contour>
  </outline>
</glyph>
<glyph name="idieresis" format="2">
  <advance width="552"/>
  <unicode hex="00EF"/>
  <anchor x="0" y="0" name="Anchor-11"/>
  <anchor x="0" y="0" name="Anchor-10"/>
  <anchor x="276" y="1477" name="Anchor-9"/>
  <anchor x="0" y="0" name="Anchor-8"/>
  <anchor x="0" y="0" name="Anchor-7"/>
  <outline>
    <contour>
      <point x="-74" y="1217" type="line"/>
      <point x="-74" y="1481" type="line"/>
      <point x="197" y="1481" type="line"/>
      <point x="197" y="1217" type="line"/>
    </contour>
    <contour>
      <point x="356" y="1217" type="line"/>
      <point x="356" y="1481" type="line"/>
      <point x="627" y="1481" type="line"/>
      <point x="627" y="1217" type="line"/>
    </contour>
    <contour>
      <point x="113" y="0" type="line"/>
      <point x="113" y="1075" type="line"/>
      <point x="440" y="1075" type="line"/>
      <point x="440" y="0" type="line"/>
    </contour>
  </outline>
</glyph>
<glyph name="eth" format="2">
  <advance width="1263"/>
  <unicode hex="00F0"/>
  <outline>
    <contour>
      <point x="965" y="1262" type="line"/>
      <point x="1081" y="1123"/>
      <point x="1206" y="771"/>
      <point x="1206" y="596" type="qcurve" smooth="yes"/>
      <point x="1206" y="310"/>
      <point x="889" y="-20"/>
      <point x="627" y="-20" type="qcurve" smooth="yes"/>
      <point x="464" y="-20"/>
      <point x="202" y="108"/>
      <point x="55" y="336"/>
      <point x="55" y="479" type="qcurve" smooth="yes"/>
      <point x="55" y="682"/>
      <point x="341" y="967"/>
      <point x="547" y="967" type="qcurve" smooth="yes"/>
      <point x="641" y="967"/>
      <point x="810" y="897"/>
      <point x="868" y="836" type="qcurve"/>
      <point x="827" y="1010"/>
      <point x="715" y="1151" type="qcurve"/>
      <point x="541" y="1057" type="line"/>
      <point x="449" y="1182" type="line"/>
      <point x="606" y="1266" type="line"/>
      <point x="480" y="1381"/>
      <point x="262" y="1495" type="qcurve"/>
      <point x="670" y="1495" type="line"/>
      <point x="768" y="1447"/>
      <point x="854" y="1374" type="qcurve"/>
      <point x="1010" y="1458" type="line"/>
      <point x="1100" y="1333" type="line"/>
    </contour>
    <contour>
      <point x="629" y="256" type="qcurve" smooth="yes"/>
      <point x="734" y="256"/>
      <point x="868" y="385"/>
      <point x="868" y="483" type="qcurve" smooth="yes"/>
      <point x="868" y="580"/>
      <point x="735" y="705"/>
      <point x="527" y="705"/>
      <point x="391" y="577"/>
      <point x="391" y="479" type="qcurve" smooth="yes"/>
      <point x="391" y="382"/>
      <point x="526" y="256"/>
    </contour>
  </outline>
</glyph>
<glyph name="ntilde" format="2">
  <advance width="1253"/>
  <unicode hex="00F1"/>
  <anchor x="0" y="0" name="Anchor-11"/>
  <anchor x="0" y="0" name="Anchor-10"/>
  <anchor x="664" y="1495" name="Anchor-9"/>
  <anchor x="0" y="0" name="Anchor-8"/>
  <anchor x="627" y="0" name="Anchor-7"/>
  <outline>
    <contour>
      <point x="528" y="1298" type="qcurve" smooth="yes"/>
      <point x="503" y="1298"/>
      <point x="465" y="1278"/>
      <point x="446" y="1253"/>
      <point x="434" y="1221"/>
      <point x="432" y="1204"/>
      <point x="432" y="1200" type="qcurve"/>
      <point x="256" y="1200" type="line"/>
      <point x="256" y="1221"/>
      <point x="272" y="1287"/>
      <point x="312" y="1371"/>
      <point x="369" y="1442"/>
      <point x="461" y="1491"/>
      <point x="516" y="1491" type="qcurve" smooth="yes"/>
      <point x="559" y="1491"/>
      <point x="639" y="1460"/>
      <point x="690" y="1424"/>
      <point x="756" y="1393"/>
      <point x="788" y="1393" type="qcurve" smooth="yes"/>
      <point x="814" y="1393"/>
      <point x="856" y="1413"/>
      <point x="877" y="1441"/>
      <point x="891" y="1473"/>
      <point x="895" y="1491"/>
      <point x="895" y="1495" type="qcurve"/>
      <point x="1071" y="1495" type="line"/>
      <point x="1071" y="1483"/>
      <point x="1058" y="1434"/>
      <point x="1033" y="1367"/>
      <point x="989" y="1299"/>
      <point x="932" y="1241"/>
      <point x="849" y="1204"/>
      <point x="801" y="1204" type="qcurve" smooth="yes"/>
      <point x="759" y="1204"/>
      <point x="678" y="1233"/>
      <point x="626" y="1269"/>
      <point x="558" y="1298"/>
    </contour>
    <contour>
      <point x="1149" y="0" type="line"/>
      <point x="821" y="0" type="line"/>
      <point x="821" y="604" type="line" smooth="yes"/>
      <point x="821" y="706"/>
      <point x="743" y="807"/>
      <point x="676" y="807" type="qcurve" smooth="yes"/>
      <point x="607" y="807"/>
      <point x="469" y="698"/>
      <point x="440" y="616" type="qcurve"/>
      <point x="440" y="0" type="line"/>
      <point x="113" y="0" type="line"/>
      <point x="113" y="1075" type="line"/>
      <point x="408" y="1075" type="line"/>
      <point x="408" y="895" type="line"/>
      <point x="467" y="991"/>
      <point x="684" y="1096"/>
      <point x="825" y="1096" type="qcurve" smooth="yes"/>
      <point x="1149" y="1096"/>
      <point x="1149" y="688" type="qcurve" smooth="yes"/>
    </contour>
  </outline>
</glyph>
<glyph name="divide" format="2">
  <advance width="1021"/>
  <unicode hex="00F7"/>
  <outline>
    <contour>
      <point x="375" y="872" type="line"/>
      <point x="375" y="1165" type="line"/>
      <point x="649" y="1165" type="line"/>
      <point x="649" y="872" type="line"/>
    </contour>
    <contour>
      <point x="98" y="492" type="line"/>
      <point x="98" y="752" type="line"/>
      <point x="926" y="752" type="line"/>
      <point x="926" y="492" type="line"/>
    </contour>
    <contour>
      <point x="375" y="78" type="line"/>
      <point x="375" y="371" type="line"/>
      <point x="649" y="371" type="line"/>
      <point x="649" y="78" type="line"/>
    </contour>
  </outline>
</glyph>
<glyph name="ucircumflex" format="2">
  <advance width="1284"/>
  <unicode hex="00FB"/>
  <anchor x="1167" y="932" name="Anchor-11"/>
  <anchor x="0" y="0" name="Anchor-10"/>
  <anchor x="623" y="1495" name="Anchor-9"/>
  <anchor x="1212" y="0" name="Anchor-8"/>
  <anchor x="631" y="4" name="Anchor-7"/>
  <outline>
    <contour>
      <point x="281" y="1274" type="line"/>
      <point x="506" y="1495" type="line"/>
      <point x="741" y="1495" type="line"/>
      <point x="965" y="1274" type="line"/>
      <point x="797" y="1200" type="line"/>
      <point x="623" y="1329" type="line"/>
      <point x="449" y="1200" type="line"/>
    </contour>
    <contour>
      <point x="102" y="387" type="qcurve" smooth="yes"/>
      <point x="102" y="1075" type="line"/>
      <point x="430" y="1075" type="line"/>
      <point x="430" y="459" type="line" smooth="yes"/>
      <point x="430" y="361"/>
      <point x="508" y="256"/>
      <point x="580" y="256" type="qcurve" smooth="yes"/>
      <point x="728" y="256"/>
      <point x="815" y="412" type="qcurve"/>
      <point x="815" y="1075" type="line"/>
      <point x="1143" y="1075" type="line"/>
      <point x="1143" y="365" type="line" smooth="yes"/>
      <point x="1143" y="316"/>
      <point x="1174" y="275"/>
      <point x="1212" y="272" type="qcurve"/>
      <point x="1212" y="0" type="line"/>
      <point x="1131" y="-16"/>
      <point x="1073" y="-16" type="qcurve" smooth="yes"/>
      <point x="987" y="-16"/>
      <point x="884" y="55"/>
      <point x="872" y="121" type="qcurve"/>
      <point x="866" y="186" type="line"/>
      <point x="723" y="-20"/>
      <point x="438" y="-20" type="qcurve" smooth="yes"/>
      <point x="274" y="-20"/>
      <point x="102" y="188"/>
    </contour>
  </outline>
</glyph>
<glyph name="yacute" format="2">
  <advance width="1130"/>
  <unicode hex="00FD"/>
  <anchor x="0" y="0" name="Anchor-11"/>
  <anchor x="0" y="0" name="Anchor-10"/>
  <anchor x="692" y="1495" name="Anchor-9"/>
  <anchor x="0" y="0" name="Anchor-8"/>
  <anchor x="950" y="0" name="Anchor-7"/>
  <outline>
    <contour>
      <point x="698" y="1171" type="line"/>
      <point x="489" y="1229" type="line"/>
      <point x="596" y="1495" type="line"/>
      <point x="893" y="1495" type="line"/>
    </contour>
    <contour>
      <point x="121" y="-162" type="line"/>
      <point x="198" y="-188"/>
      <point x="262" y="-188" type="qcurve" smooth="yes"/>
      <point x="321" y="-188"/>
      <point x="388" y="-105"/>
      <point x="414" y="0" type="qcurve"/>
      <point x="4" y="1075" type="line"/>
      <point x="342" y="1075" type="line"/>
      <point x="592" y="336" type="line"/>
      <point x="805" y="1075" type="line"/>
      <point x="1114" y="1075" type="line"/>
      <point x="705" y="-174" type="line" smooth="yes"/>
      <point x="662" y="-308"/>
      <point x="437" y="-473"/>
      <point x="289" y="-473" type="qcurve" smooth="yes"/>
      <point x="198" y="-473"/>
      <point x="121" y="-442" type="qcurve"/>
    </contour>
  </outline>
</glyph>
<glyph name="thorn" format="2">
  <advance width="1228"/>
  <unicode hex="00FE"/>
  <outline>
    <contour>
      <point x="637" y="-55" type="qcurve" smooth="yes"/>
      <point x="561" y="-55"/>
      <point x="462" y="-9"/>
      <point x="449" y="16" type="qcurve"/>
      <point x="449" y="-436" type="line"/>
      <point x="113" y="-436" type="line"/>
      <point x="113" y="1454" type="line"/>
      <point x="449" y="1454" type="line"/>
      <point x="449" y="1030" type="line"/>
      <point x="468" y="1059"/>
      <point x="568" y="1108"/>
      <point x="653" y="1108" type="qcurve" smooth="yes"/>
      <point x="770" y="1108"/>
      <point x="973" y="1004"/>
      <point x="1106" y="837"/>
      <point x="1182" y="629"/>
      <point x="1182" y="524" type="qcurve" smooth="yes"/>
      <point x="1182" y="411"/>
      <point x="1094" y="198"/>
      <point x="948" y="40"/>
      <point x="746" y="-55"/>
    </contour>
    <contour>
      <point x="633" y="815" type="qcurve" smooth="yes"/>
      <point x="520" y="815"/>
      <point x="449" y="680" type="qcurve"/>
      <point x="449" y="362" type="line" smooth="yes"/>
      <point x="449" y="322"/>
      <point x="563" y="238"/>
      <point x="627" y="238" type="qcurve" smooth="yes"/>
      <point x="722" y="238"/>
      <point x="846" y="405"/>
      <point x="846" y="530" type="qcurve" smooth="yes"/>
      <point x="846" y="650"/>
      <point x="731" y="815"/>
    </contour>
  </outline>
</glyph>
<glyph name="ydieresis" format="2">
  <advance width="1130"/>
  <unicode hex="00FF"/>
  <anchor x="0" y="0" name="Anchor-11"/>
  <anchor x="0" y="0" name="Anchor-10"/>
  <anchor x="592" y="1477" name="Anchor-9"/>
  <anchor x="0" y="0" name="Anchor-8"/>
  <anchor x="950" y="0" name="Anchor-7"/>
  <outline>
    <contour>
      <point x="242" y="1217" type="line"/>
      <point x="242" y="1481" type="line"/>
      <point x="512" y="1481" type="line"/>
      <point x="512" y="1217" type="line"/>
    </contour>
    <contour>
      <point x="672" y="1217" type="line"/>
      <point x="672" y="1481" type="line"/>
      <point x="942" y="1481" type="line"/>
      <point x="942" y="1217" type="line"/>
    </contour>
    <contour>
      <point x="121" y="-162" type="line"/>
      <point x="198" y="-188"/>
      <point x="262" y="-188" type="qcurve" smooth="yes"/>
      <point x="321" y="-188"/>
      <point x="388" y="-105"/>
      <point x="414" y="0" type="qcurve"/>
      <point x="4" y="1075" type="line"/>
      <point x="342" y="1075" type="line"/>
      <point x="592" y="336" type="line"/>
      <point x="805" y="1075" type="line"/>
      <point x="1114" y="1075" type="line"/>
      <point x="705" y="-174" type="line" smooth="yes"/>
      <point x="662" y="-308"/>
      <point x="437" y="-473"/>
      <point x="289" y="-473" type="qcurve" smooth="yes"/>
      <point x="198" y="-473"/>
      <point x="121" y="-442" type="qcurve"/>
    </contour>
  </outline>
</glyph>
<glyph name="Amacron" format="2">
  <advance width="1372"/>
  <unicode hex="0100"/>
  <anchor x="0" y="0" name="Anchor-11"/>
  <anchor x="0" y="0" name="Anchor-10"/>
  <anchor x="688" y="1847" name="Anchor-9"/>
  <anchor x="1368" y="0" name="Anchor-8"/>
  <anchor x="709" y="0" name="Anchor-7"/>
  <outline>
    <contour>
      <point x="377" y="1649" type="line"/>
      <point x="377" y="1847" type="line"/>
      <point x="999" y="1847" type="line"/>
      <point x="999" y="1649" type="line"/>
    </contour>
    <contour>
      <point x="506" y="1454" type="line"/>
      <point x="868" y="1454" type="line"/>
      <point x="1368" y="0" type="line"/>
      <point x="1024" y="0" type="line"/>
      <point x="911" y="326" type="line"/>
      <point x="459" y="326" type="line"/>
      <point x="348" y="0" type="line"/>
      <point x="4" y="0" type="line"/>
    </contour>
    <contour>
      <point x="856" y="557" type="line"/>
      <point x="686" y="1116" type="line"/>
      <point x="512" y="557" type="line"/>
    </contour>
  </outline>
</glyph>
<glyph name="Abreve" format="2">
  <advance width="1372"/>
  <unicode hex="0102"/>
  <anchor x="0" y="0" name="Anchor-11"/>
  <anchor x="0" y="0" name="Anchor-10"/>
  <anchor x="686" y="1872" name="Anchor-9"/>
  <anchor x="1368" y="0" name="Anchor-8"/>
  <anchor x="709" y="0" name="Anchor-7"/>
  <outline>
    <contour>
      <point x="811" y="1872" type="qcurve"/>
      <point x="981" y="1872" type="line"/>
      <point x="981" y="1740"/>
      <point x="816" y="1571"/>
      <point x="686" y="1571" type="qcurve" smooth="yes"/>
      <point x="557" y="1571"/>
      <point x="391" y="1740"/>
      <point x="391" y="1872" type="qcurve"/>
      <point x="565" y="1872" type="line"/>
      <point x="565" y="1807"/>
      <point x="637" y="1714"/>
      <point x="686" y="1714" type="qcurve" smooth="yes"/>
      <point x="734" y="1714"/>
      <point x="805" y="1803"/>
    </contour>
    <contour>
      <point x="506" y="1454" type="line"/>
      <point x="868" y="1454" type="line"/>
      <point x="1368" y="0" type="line"/>
      <point x="1024" y="0" type="line"/>
      <point x="911" y="326" type="line"/>
      <point x="459" y="326" type="line"/>
      <point x="348" y="0" type="line"/>
      <point x="4" y="0" type="line"/>
    </contour>
    <contour>
      <point x="856" y="557" type="line"/>
      <point x="686" y="1116" type="line"/>
      <point x="512" y="557" type="line"/>
    </contour>
  </outline>
</glyph>
<glyph name="Aogonek" format="2">
  <advance width="1372"/>
  <unicode hex="0104"/>
  <anchor x="0" y="0" name="Anchor-11"/>
  <anchor x="0" y="0" name="Anchor-10"/>
  <anchor x="686" y="1452" name="Anchor-9"/>
  <anchor x="1368" y="0" name="Anchor-8"/>
  <anchor x="709" y="0" name="Anchor-7"/>
  <outline>
    <contour>
      <point x="1217" y="-170" type="qcurve" smooth="yes"/>
      <point x="1217" y="-245"/>
      <point x="1364" y="-248" type="qcurve"/>
      <point x="1303" y="-426" type="line"/>
      <point x="1155" y="-410"/>
      <point x="1012" y="-303"/>
      <point x="1012" y="-231" type="qcurve" smooth="yes"/>
      <point x="1012" y="-108"/>
      <point x="1159" y="0" type="qcurve"/>
      <point x="1024" y="0" type="line"/>
      <point x="911" y="326" type="line"/>
      <point x="459" y="326" type="line"/>
      <point x="348" y="0" type="line"/>
      <point x="4" y="0" type="line"/>
      <point x="506" y="1454" type="line"/>
      <point x="868" y="1454" type="line"/>
      <point x="1368" y="0" type="line"/>
      <point x="1217" y="-100"/>
    </contour>
    <contour>
      <point x="512" y="557" type="line"/>
      <point x="856" y="557" type="line"/>
      <point x="686" y="1116" type="line"/>
    </contour>
  </outline>
</glyph>
<glyph name="aogonek" format="2">
  <advance width="1200"/>
  <unicode hex="0105"/>
  <anchor x="0" y="0" name="Anchor-11"/>
  <anchor x="0" y="0" name="Anchor-10"/>
  <anchor x="565" y="1075" name="Anchor-9"/>
  <anchor x="1145" y="0" name="Anchor-8"/>
  <anchor x="612" y="0" name="Anchor-7"/>
  <outline>
    <contour>
      <point x="1145" y="0" type="line"/>
      <point x="993" y="-100"/>
      <point x="993" y="-170" type="qcurve" smooth="yes"/>
      <point x="993" y="-245"/>
      <point x="1141" y="-248" type="qcurve"/>
      <point x="1079" y="-426" type="line"/>
      <point x="931" y="-410"/>
      <point x="788" y="-303"/>
      <point x="788" y="-231" type="qcurve" smooth="yes"/>
      <point x="788" y="-111"/>
      <point x="926" y="-6" type="qcurve"/>
      <point x="824" y="20"/>
      <point x="805" y="121" type="qcurve"/>
      <point x="799" y="168" type="line"/>
      <point x="728" y="77"/>
      <point x="529" y="-20"/>
      <point x="420" y="-20" type="qcurve" smooth="yes"/>
      <point x="259" y="-20"/>
      <point x="45" y="176"/>
      <point x="45" y="322" type="qcurve" smooth="yes"/>
      <point x="45" y="481"/>
      <point x="303" y="680"/>
      <point x="508" y="680" type="qcurve" smooth="yes"/>
      <point x="648" y="680"/>
      <point x="748" y="637" type="qcurve"/>
      <point x="748" y="684" type="line" smooth="yes"/>
      <point x="748" y="866"/>
      <point x="532" y="866" type="qcurve" smooth="yes"/>
      <point x="445" y="866"/>
      <point x="288" y="809"/>
      <point x="197" y="748" type="qcurve"/>
      <point x="98" y="956" type="line"/>
      <point x="313" y="1096"/>
      <point x="565" y="1096" type="qcurve" smooth="yes"/>
      <point x="808" y="1096"/>
      <point x="1075" y="863"/>
      <point x="1075" y="645" type="qcurve" smooth="yes"/>
      <point x="1075" y="365" type="line" smooth="yes"/>
      <point x="1075" y="316"/>
      <point x="1106" y="275"/>
      <point x="1145" y="272" type="qcurve"/>
    </contour>
    <contour>
      <point x="748" y="365" type="qcurve" smooth="yes"/>
      <point x="748" y="461" type="line"/>
      <point x="648" y="496"/>
      <point x="563" y="496" type="qcurve" smooth="yes"/>
      <point x="472" y="496"/>
      <point x="354" y="414"/>
      <point x="354" y="350" type="qcurve" smooth="yes"/>
      <point x="354" y="294"/>
      <point x="443" y="215"/>
      <point x="516" y="215" type="qcurve" smooth="yes"/>
      <point x="565" y="215"/>
      <point x="662" y="251"/>
      <point x="696" y="281" type="qcurve" smooth="yes"/>
      <point x="748" y="323"/>
    </contour>
  </outline>
</glyph>
<glyph name="cdot" format="2">
  <advance width="1167"/>
  <unicode hex="010B"/>
  <anchor x="0" y="0" name="Anchor-11"/>
  <anchor x="0" y="0" name="Anchor-10"/>
  <anchor x="627" y="1495" name="Anchor-9"/>
  <anchor x="0" y="0" name="Anchor-8"/>
  <anchor x="627" y="0" name="Anchor-7"/>
  <outline>
    <contour>
      <point x="479" y="1214" type="line"/>
      <point x="479" y="1495" type="line"/>
      <point x="774" y="1495" type="line"/>
      <point x="774" y="1214" type="line"/>
    </contour>
    <contour>
      <point x="627" y="-20" type="qcurve" smooth="yes"/>
      <point x="495" y="-20"/>
      <point x="274" y="71"/>
      <point x="129" y="225"/>
      <point x="49" y="427"/>
      <point x="49" y="651"/>
      <point x="128" y="852"/>
      <point x="273" y="1006"/>
      <point x="494" y="1096"/>
      <point x="627" y="1096" type="qcurve" smooth="yes"/>
      <point x="806" y="1096"/>
      <point x="1064" y="942"/>
      <point x="1130" y="811" type="qcurve"/>
      <point x="811" y="715" type="line"/>
      <point x="748" y="817"/>
      <point x="625" y="817" type="qcurve" smooth="yes"/>
      <point x="522" y="817"/>
      <point x="385" y="663"/>
      <point x="385" y="539" type="qcurve" smooth="yes"/>
      <point x="385" y="414"/>
      <point x="523" y="256"/>
      <point x="625" y="256" type="qcurve" smooth="yes"/>
      <point x="686" y="256"/>
      <point x="788" y="314"/>
      <point x="813" y="362" type="qcurve"/>
      <point x="1133" y="264" type="line"/>
      <point x="1071" y="135"/>
      <point x="807" y="-20"/>
    </contour>
  </outline>
</glyph>
<glyph name="Emacron" format="2">
  <advance width="1226"/>
  <unicode hex="0112"/>
  <anchor x="0" y="0" name="Anchor-11"/>
  <anchor x="0" y="0" name="Anchor-10"/>
  <anchor x="659" y="1847" name="Anchor-9"/>
  <anchor x="1161" y="0" name="Anchor-8"/>
  <anchor x="657" y="0" name="Anchor-7"/>
  <outline>
    <contour>
      <point x="348" y="1649" type="line"/>
      <point x="348" y="1847" type="line"/>
      <point x="971" y="1847" type="line"/>
      <point x="971" y="1649" type="line"/>
    </contour>
    <contour>
      <point x="1161" y="295" type="line"/>
      <point x="1161" y="0" type="line"/>
      <point x="139" y="0" type="line"/>
      <point x="139" y="1454" type="line"/>
      <point x="1143" y="1454" type="line"/>
      <point x="1143" y="1159" type="line"/>
      <point x="475" y="1159" type="line"/>
      <point x="475" y="877" type="line"/>
      <point x="1049" y="877" type="line"/>
      <point x="1049" y="604" type="line"/>
      <point x="475" y="604" type="line"/>
      <point x="475" y="295" type="line"/>
    </contour>
  </outline>
</glyph>
<glyph name="Ebreve" format="2">
  <advance width="1226"/>
  <unicode hex="0114"/>
  <anchor x="0" y="0" name="Anchor-11"/>
  <anchor x="0" y="0" name="Anchor-10"/>
  <anchor x="657" y="1872" name="Anchor-9"/>
  <anchor x="1161" y="0" name="Anchor-8"/>
  <anchor x="657" y="0" name="Anchor-7"/>
  <outline>
    <contour>
      <point x="782" y="1872" type="qcurve"/>
      <point x="952" y="1872" type="line"/>
      <point x="952" y="1740"/>
      <point x="787" y="1571"/>
      <point x="657" y="1571" type="qcurve" smooth="yes"/>
      <point x="528" y="1571"/>
      <point x="362" y="1740"/>
      <point x="362" y="1872" type="qcurve"/>
      <point x="537" y="1872" type="line"/>
      <point x="537" y="1807"/>
      <point x="608" y="1714"/>
      <point x="657" y="1714" type="qcurve" smooth="yes"/>
      <point x="705" y="1714"/>
      <point x="776" y="1803"/>
    </contour>
    <contour>
      <point x="1161" y="295" type="line"/>
      <point x="1161" y="0" type="line"/>
      <point x="139" y="0" type="line"/>
      <point x="139" y="1454" type="line"/>
      <point x="1143" y="1454" type="line"/>
      <point x="1143" y="1159" type="line"/>
      <point x="475" y="1159" type="line"/>
      <point x="475" y="877" type="line"/>
      <point x="1049" y="877" type="line"/>
      <point x="1049" y="604" type="line"/>
      <point x="475" y="604" type="line"/>
      <point x="475" y="295" type="line"/>
    </contour>
  </outline>
</glyph>
<glyph name="ebreve" format="2">
  <advance width="1236"/>
  <unicode hex="0115"/>
  <anchor x="0" y="0" name="Anchor-11"/>
  <anchor x="0" y="0" name="Anchor-10"/>
  <anchor x="625" y="1495" name="Anchor-9"/>
  <anchor x="793" y="0" name="Anchor-8"/>
  <anchor x="625" y="0" name="Anchor-7"/>
  <outline>
    <contour>
      <point x="750" y="1495" type="qcurve"/>
      <point x="920" y="1495" type="line"/>
      <point x="920" y="1363"/>
      <point x="755" y="1194"/>
      <point x="625" y="1194" type="qcurve" smooth="yes"/>
      <point x="496" y="1194"/>
      <point x="330" y="1363"/>
      <point x="330" y="1495" type="qcurve"/>
      <point x="504" y="1495" type="line"/>
      <point x="504" y="1430"/>
      <point x="576" y="1337"/>
      <point x="625" y="1337" type="qcurve" smooth="yes"/>
      <point x="673" y="1337"/>
      <point x="744" y="1426"/>
    </contour>
    <contour>
      <point x="627" y="-20" type="qcurve" smooth="yes"/>
      <point x="495" y="-20"/>
      <point x="274" y="69"/>
      <point x="129" y="219"/>
      <point x="49" y="417"/>
      <point x="49" y="526" type="qcurve" smooth="yes"/>
      <point x="49" y="642"/>
      <point x="128" y="849"/>
      <point x="272" y="1005"/>
      <point x="493" y="1096"/>
      <point x="761" y="1096"/>
      <point x="981" y="1005"/>
      <point x="1123" y="851"/>
      <point x="1200" y="652"/>
      <point x="1200" y="541" type="qcurve" smooth="yes"/>
      <point x="1200" y="490"/>
      <point x="1192" y="436" type="qcurve"/>
      <point x="397" y="436" type="line"/>
      <point x="404" y="333"/>
      <point x="543" y="215"/>
      <point x="637" y="215" type="qcurve" smooth="yes"/>
      <point x="711" y="215"/>
      <point x="841" y="287"/>
      <point x="864" y="344" type="qcurve"/>
      <point x="1143" y="266" type="line"/>
      <point x="1078" y="136"/>
      <point x="808" y="-20"/>
    </contour>
    <contour>
      <point x="389" y="637" type="qcurve"/>
      <point x="856" y="637" type="line"/>
      <point x="846" y="738"/>
      <point x="717" y="860"/>
      <point x="623" y="860" type="qcurve" smooth="yes"/>
      <point x="528" y="860"/>
      <point x="399" y="738"/>
    </contour>
  </outline>
</glyph>
<glyph name="Edot" format="2">
  <advance width="1226"/>
  <unicode hex="0116"/>
  <anchor x="0" y="0" name="Anchor-11"/>
  <anchor x="0" y="0" name="Anchor-10"/>
  <anchor x="657" y="1872" name="Anchor-9"/>
  <anchor x="1161" y="0" name="Anchor-8"/>
  <anchor x="657" y="0" name="Anchor-7"/>
  <outline>
    <contour>
      <point x="510" y="1591" type="line"/>
      <point x="510" y="1872" type="line"/>
      <point x="805" y="1872" type="line"/>
      <point x="805" y="1591" type="line"/>
    </contour>
    <contour>
      <point x="1161" y="295" type="line"/>
      <point x="1161" y="0" type="line"/>
      <point x="139" y="0" type="line"/>
      <point x="139" y="1454" type="line"/>
      <point x="1143" y="1454" type="line"/>
      <point x="1143" y="1159" type="line"/>
      <point x="475" y="1159" type="line"/>
      <point x="475" y="877" type="line"/>
      <point x="1049" y="877" type="line"/>
      <point x="1049" y="604" type="line"/>
      <point x="475" y="604" type="line"/>
      <point x="475" y="295" type="line"/>
    </contour>
  </outline>
</glyph>
<glyph name="Eogonek" format="2">
  <advance width="1226"/>
  <unicode hex="0118"/>
  <anchor x="0" y="0" name="Anchor-11"/>
  <anchor x="0" y="0" name="Anchor-10"/>
  <anchor x="657" y="1452" name="Anchor-9"/>
  <anchor x="1161" y="0" name="Anchor-8"/>
  <anchor x="657" y="0" name="Anchor-7"/>
  <outline>
    <contour>
      <point x="1161" y="0" type="line"/>
      <point x="1010" y="-100"/>
      <point x="1010" y="-170" type="qcurve" smooth="yes"/>
      <point x="1010" y="-245"/>
      <point x="1157" y="-248" type="qcurve"/>
      <point x="1096" y="-426" type="line"/>
      <point x="948" y="-410"/>
      <point x="805" y="-303"/>
      <point x="805" y="-231" type="qcurve" smooth="yes"/>
      <point x="805" y="-108"/>
      <point x="952" y="0" type="qcurve"/>
      <point x="139" y="0" type="line"/>
      <point x="139" y="1454" type="line"/>
      <point x="1143" y="1454" type="line"/>
      <point x="1143" y="1159" type="line"/>
      <point x="475" y="1159" type="line"/>
      <point x="475" y="877" type="line"/>
      <point x="1049" y="877" type="line"/>
      <point x="1049" y="604" type="line"/>
      <point x="475" y="604" type="line"/>
      <point x="475" y="295" type="line"/>
      <point x="1161" y="295" type="line"/>
    </contour>
  </outline>
</glyph>
<glyph name="eogonek" format="2">
  <advance width="1236"/>
  <unicode hex="0119"/>
  <anchor x="0" y="0" name="Anchor-11"/>
  <anchor x="0" y="0" name="Anchor-10"/>
  <anchor x="625" y="1075" name="Anchor-9"/>
  <anchor x="793" y="0" name="Anchor-8"/>
  <anchor x="625" y="0" name="Anchor-7"/>
  <outline>
    <contour>
      <point x="1200" y="541" type="qcurve" smooth="yes"/>
      <point x="1200" y="490"/>
      <point x="1192" y="436" type="qcurve"/>
      <point x="397" y="436" type="line"/>
      <point x="404" y="333"/>
      <point x="543" y="215"/>
      <point x="637" y="215" type="qcurve" smooth="yes"/>
      <point x="711" y="215"/>
      <point x="841" y="287"/>
      <point x="864" y="344" type="qcurve"/>
      <point x="1143" y="266" type="line"/>
      <point x="1095" y="168"/>
      <point x="912" y="27"/>
      <point x="791" y="-2" type="qcurve"/>
      <point x="641" y="-103"/>
      <point x="641" y="-170" type="qcurve" smooth="yes"/>
      <point x="641" y="-245"/>
      <point x="788" y="-248" type="qcurve"/>
      <point x="727" y="-426" type="line"/>
      <point x="579" y="-410"/>
      <point x="436" y="-303"/>
      <point x="436" y="-231" type="qcurve" smooth="yes"/>
      <point x="436" y="-117"/>
      <point x="559" y="-18" type="qcurve"/>
      <point x="325" y="5"/>
      <point x="49" y="315"/>
      <point x="49" y="526" type="qcurve" smooth="yes"/>
      <point x="49" y="642"/>
      <point x="128" y="849"/>
      <point x="272" y="1005"/>
      <point x="493" y="1096"/>
      <point x="761" y="1096"/>
      <point x="981" y="1005"/>
      <point x="1123" y="851"/>
      <point x="1200" y="652"/>
    </contour>
    <contour>
      <point x="389" y="637" type="qcurve"/>
      <point x="856" y="637" type="line"/>
      <point x="846" y="738"/>
      <point x="717" y="860"/>
      <point x="623" y="860" type="qcurve" smooth="yes"/>
      <point x="528" y="860"/>
      <point x="399" y="738"/>
    </contour>
  </outline>
</glyph>
<glyph name="Ecaron" format="2">
  <advance width="1226"/>
  <unicode hex="011A"/>
  <anchor x="0" y="0" name="Anchor-11"/>
  <anchor x="0" y="0" name="Anchor-10"/>
  <anchor x="657" y="1872" name="Anchor-9"/>
  <anchor x="1161" y="0" name="Anchor-8"/>
  <anchor x="657" y="0" name="Anchor-7"/>
  <outline>
    <contour>
      <point x="483" y="1872" type="line"/>
      <point x="657" y="1743" type="line"/>
      <point x="831" y="1872" type="line"/>
      <point x="999" y="1796" type="line"/>
      <point x="776" y="1577" type="line"/>
      <point x="541" y="1577" type="line"/>
      <point x="315" y="1796" type="line"/>
    </contour>
    <contour>
      <point x="1161" y="295" type="line"/>
      <point x="1161" y="0" type="line"/>
      <point x="139" y="0" type="line"/>
      <point x="139" y="1454" type="line"/>
      <point x="1143" y="1454" type="line"/>
      <point x="1143" y="1159" type="line"/>
      <point x="475" y="1159" type="line"/>
      <point x="475" y="877" type="line"/>
      <point x="1049" y="877" type="line"/>
      <point x="1049" y="604" type="line"/>
      <point x="475" y="604" type="line"/>
      <point x="475" y="295" type="line"/>
    </contour>
  </outline>
</glyph>
<glyph name="Hcircumflex" format="2">
  <advance width="1529"/>
  <unicode hex="0124"/>
  <anchor x="0" y="0" name="Anchor-11"/>
  <anchor x="766" y="727" name="Anchor-10"/>
  <anchor x="772" y="1872" name="Anchor-9"/>
  <anchor x="0" y="0" name="Anchor-8"/>
  <anchor x="766" y="0" name="Anchor-7"/>
  <outline>
    <contour>
      <point x="430" y="1651" type="line"/>
      <point x="655" y="1872" type="line"/>
      <point x="891" y="1872" type="line"/>
      <point x="1114" y="1651" type="line"/>
      <point x="946" y="1577" type="line"/>
      <point x="772" y="1706" type="line"/>
      <point x="598" y="1577" type="line"/>
    </contour>
    <contour>
      <point x="1391" y="1454" type="line"/>
      <point x="1391" y="0" type="line"/>
      <point x="1055" y="0" type="line"/>
      <point x="1055" y="596" type="line"/>
      <point x="475" y="596" type="line"/>
      <point x="475" y="0" type="line"/>
      <point x="139" y="0" type="line"/>
      <point x="139" y="1454" type="line"/>
      <point x="475" y="1454" type="line"/>
      <point x="475" y="891" type="line"/>
      <point x="1055" y="891" type="line"/>
      <point x="1055" y="1454" type="line"/>
    </contour>
  </outline>
</glyph>
<glyph name="Hbar" format="2">
  <advance width="1546"/>
  <unicode hex="0126"/>
  <anchor x="0" y="0" name="Anchor-11"/>
  <anchor x="774" y="727" name="Anchor-10"/>
  <anchor x="780" y="1452" name="Anchor-9"/>
  <anchor x="0" y="0" name="Anchor-8"/>
  <anchor x="774" y="0" name="Anchor-7"/>
  <outline>
    <contour>
      <point x="1501" y="1264" type="line"/>
      <point x="1501" y="1096" type="line"/>
      <point x="1399" y="1096" type="line"/>
      <point x="1399" y="0" type="line"/>
      <point x="1063" y="0" type="line"/>
      <point x="1063" y="596" type="line"/>
      <point x="483" y="596" type="line"/>
      <point x="483" y="0" type="line"/>
      <point x="147" y="0" type="line"/>
      <point x="147" y="1096" type="line"/>
      <point x="45" y="1096" type="line"/>
      <point x="45" y="1264" type="line"/>
      <point x="147" y="1264" type="line"/>
      <point x="147" y="1454" type="line"/>
      <point x="483" y="1454" type="line"/>
      <point x="483" y="1264" type="line"/>
      <point x="1063" y="1264" type="line"/>
      <point x="1063" y="1454" type="line"/>
      <point x="1399" y="1454" type="line"/>
      <point x="1399" y="1264" type="line"/>
    </contour>
    <contour>
      <point x="1063" y="891" type="line"/>
      <point x="1063" y="1096" type="line"/>
      <point x="483" y="1096" type="line"/>
      <point x="483" y="891" type="line"/>
    </contour>
  </outline>
</glyph>
<glyph name="Itilde" format="2">
  <advance width="614"/>
  <unicode hex="0128"/>
  <anchor x="0" y="0" name="Anchor-11"/>
  <anchor x="0" y="0" name="Anchor-10"/>
  <anchor x="307" y="1872" name="Anchor-9"/>
  <anchor x="475" y="0" name="Anchor-8"/>
  <anchor x="307" y="0" name="Anchor-7"/>
  <outline>
    <contour>
      <point x="172" y="1675" type="qcurve" smooth="yes"/>
      <point x="147" y="1675"/>
      <point x="109" y="1655"/>
      <point x="90" y="1630"/>
      <point x="78" y="1598"/>
      <point x="76" y="1581"/>
      <point x="76" y="1577" type="qcurve"/>
      <point x="-100" y="1577" type="line"/>
      <point x="-100" y="1598"/>
      <point x="-84" y="1664"/>
      <point x="-44" y="1748"/>
      <point x="13" y="1819"/>
      <point x="105" y="1868"/>
      <point x="160" y="1868" type="qcurve" smooth="yes"/>
      <point x="203" y="1868"/>
      <point x="283" y="1837"/>
      <point x="334" y="1800"/>
      <point x="400" y="1769"/>
      <point x="432" y="1769" type="qcurve" smooth="yes"/>
      <point x="458" y="1769"/>
      <point x="500" y="1790"/>
      <point x="521" y="1817"/>
      <point x="535" y="1849"/>
      <point x="539" y="1868"/>
      <point x="539" y="1872" type="qcurve"/>
      <point x="715" y="1872" type="line"/>
      <point x="715" y="1856"/>
      <point x="698" y="1794"/>
      <point x="656" y="1708"/>
      <point x="597" y="1633"/>
      <point x="501" y="1581"/>
      <point x="444" y="1581" type="qcurve" smooth="yes"/>
      <point x="391" y="1581"/>
      <point x="294" y="1628"/>
      <point x="209" y="1675"/>
    </contour>
    <contour>
      <point x="139" y="0" type="line"/>
      <point x="139" y="1454" type="line"/>
      <point x="475" y="1454" type="line"/>
      <point x="475" y="0" type="line"/>
    </contour>
  </outline>
</glyph>
<glyph name="itilde" format="2">
  <advance width="552"/>
  <unicode hex="0129"/>
  <anchor x="0" y="0" name="Anchor-11"/>
  <anchor x="0" y="0" name="Anchor-10"/>
  <anchor x="276" y="1495" name="Anchor-9"/>
  <anchor x="0" y="0" name="Anchor-8"/>
  <anchor x="0" y="0" name="Anchor-7"/>
  <outline>
    <contour>
      <point x="141" y="1298" type="qcurve" smooth="yes"/>
      <point x="116" y="1298"/>
      <point x="78" y="1278"/>
      <point x="59" y="1253"/>
      <point x="47" y="1221"/>
      <point x="45" y="1204"/>
      <point x="45" y="1200" type="qcurve"/>
      <point x="-131" y="1200" type="line"/>
      <point x="-131" y="1221"/>
      <point x="-115" y="1287"/>
      <point x="-75" y="1371"/>
      <point x="-18" y="1442"/>
      <point x="74" y="1491"/>
      <point x="129" y="1491" type="qcurve" smooth="yes"/>
      <point x="172" y="1491"/>
      <point x="252" y="1460"/>
      <point x="303" y="1424"/>
      <point x="369" y="1393"/>
      <point x="401" y="1393" type="qcurve" smooth="yes"/>
      <point x="427" y="1393"/>
      <point x="469" y="1413"/>
      <point x="490" y="1441"/>
      <point x="504" y="1473"/>
      <point x="508" y="1491"/>
      <point x="508" y="1495" type="qcurve"/>
      <point x="684" y="1495" type="line"/>
      <point x="684" y="1483"/>
      <point x="671" y="1434"/>
      <point x="646" y="1367"/>
      <point x="602" y="1299"/>
      <point x="545" y="1241"/>
      <point x="462" y="1204"/>
      <point x="414" y="1204" type="qcurve" smooth="yes"/>
      <point x="372" y="1204"/>
      <point x="291" y="1233"/>
      <point x="239" y="1269"/>
      <point x="171" y="1298"/>
    </contour>
    <contour>
      <point x="113" y="0" type="line"/>
      <point x="113" y="1075" type="line"/>
      <point x="440" y="1075" type="line"/>
      <point x="440" y="0" type="line"/>
    </contour>
  </outline>
</glyph>
<glyph name="Imacron" format="2">
  <advance width="614"/>
  <unicode hex="012A"/>
  <anchor x="0" y="0" name="Anchor-11"/>
  <anchor x="0" y="0" name="Anchor-10"/>
  <anchor x="309" y="1847" name="Anchor-9"/>
  <anchor x="475" y="0" name="Anchor-8"/>
  <anchor x="307" y="0" name="Anchor-7"/>
  <outline>
    <contour>
      <point x="-2" y="1649" type="line"/>
      <point x="-2" y="1847" type="line"/>
      <point x="621" y="1847" type="line"/>
      <point x="621" y="1649" type="line"/>
    </contour>
    <contour>
      <point x="139" y="0" type="line"/>
      <point x="139" y="1454" type="line"/>
      <point x="475" y="1454" type="line"/>
      <point x="475" y="0" type="line"/>
    </contour>
  </outline>
</glyph>
<glyph name="imacron" format="2">
  <advance width="552"/>
  <unicode hex="012B"/>
  <anchor x="0" y="0" name="Anchor-11"/>
  <anchor x="0" y="0" name="Anchor-10"/>
  <anchor x="279" y="1470" name="Anchor-9"/>
  <anchor x="0" y="0" name="Anchor-8"/>
  <anchor x="0" y="0" name="Anchor-7"/>
  <outline>
    <contour>
      <point x="-33" y="1272" type="line"/>
      <point x="-33" y="1470" type="line"/>
      <point x="590" y="1470" type="line"/>
      <point x="590" y="1272" type="line"/>
    </contour>
    <contour>
      <point x="113" y="0" type="line"/>
      <point x="113" y="1075" type="line"/>
      <point x="440" y="1075" type="line"/>
      <point x="440" y="0" type="line"/>
    </contour>
  </outline>
</glyph>
<glyph name="Ibreve" format="2">
  <advance width="614"/>
  <unicode hex="012C"/>
  <anchor x="0" y="0" name="Anchor-11"/>
  <anchor x="0" y="0" name="Anchor-10"/>
  <anchor x="307" y="1872" name="Anchor-9"/>
  <anchor x="475" y="0" name="Anchor-8"/>
  <anchor x="307" y="0" name="Anchor-7"/>
  <outline>
    <contour>
      <point x="432" y="1872" type="qcurve"/>
      <point x="602" y="1872" type="line"/>
      <point x="602" y="1740"/>
      <point x="437" y="1571"/>
      <point x="307" y="1571" type="qcurve" smooth="yes"/>
      <point x="178" y="1571"/>
      <point x="12" y="1740"/>
      <point x="12" y="1872" type="qcurve"/>
      <point x="186" y="1872" type="line"/>
      <point x="186" y="1807"/>
      <point x="258" y="1714"/>
      <point x="307" y="1714" type="qcurve" smooth="yes"/>
      <point x="355" y="1714"/>
      <point x="426" y="1803"/>
    </contour>
    <contour>
      <point x="139" y="0" type="line"/>
      <point x="139" y="1454" type="line"/>
      <point x="475" y="1454" type="line"/>
      <point x="475" y="0" type="line"/>
    </contour>
  </outline>
</glyph>
<glyph name="ibreve" format="2">
  <advance width="552"/>
  <unicode hex="012D"/>
  <anchor x="0" y="0" name="Anchor-11"/>
  <anchor x="0" y="0" name="Anchor-10"/>
  <anchor x="276" y="1495" name="Anchor-9"/>
  <anchor x="0" y="0" name="Anchor-8"/>
  <anchor x="0" y="0" name="Anchor-7"/>
  <outline>
    <contour>
      <point x="401" y="1495" type="qcurve"/>
      <point x="571" y="1495" type="line"/>
      <point x="571" y="1363"/>
      <point x="406" y="1194"/>
      <point x="276" y="1194" type="qcurve" smooth="yes"/>
      <point x="147" y="1194"/>
      <point x="-18" y="1363"/>
      <point x="-18" y="1495" type="qcurve"/>
      <point x="156" y="1495" type="line"/>
      <point x="156" y="1430"/>
      <point x="227" y="1337"/>
      <point x="276" y="1337" type="qcurve" smooth="yes"/>
      <point x="324" y="1337"/>
      <point x="395" y="1426"/>
    </contour>
    <contour>
      <point x="113" y="0" type="line"/>
      <point x="113" y="1075" type="line"/>
      <point x="440" y="1075" type="line"/>
      <point x="440" y="0" type="line"/>
    </contour>
  </outline>
</glyph>
<glyph name="Iogonek" format="2">
  <advance width="614"/>
  <unicode hex="012E"/>
  <anchor x="0" y="0" name="Anchor-11"/>
  <anchor x="0" y="0" name="Anchor-10"/>
  <anchor x="307" y="1452" name="Anchor-9"/>
  <anchor x="475" y="0" name="Anchor-8"/>
  <anchor x="307" y="0" name="Anchor-7"/>
  <outline>
    <contour>
      <point x="475" y="0" type="line"/>
      <point x="324" y="-100"/>
      <point x="324" y="-170" type="qcurve" smooth="yes"/>
      <point x="324" y="-245"/>
      <point x="471" y="-248" type="qcurve"/>
      <point x="410" y="-426" type="line"/>
      <point x="262" y="-410"/>
      <point x="119" y="-303"/>
      <point x="119" y="-231" type="qcurve" smooth="yes"/>
      <point x="119" y="-108"/>
      <point x="266" y="0" type="qcurve"/>
      <point x="139" y="0" type="line"/>
      <point x="139" y="1454" type="line"/>
      <point x="475" y="1454" type="line"/>
    </contour>
  </outline>
</glyph>
<glyph name="iogonek" format="2">
  <advance width="552"/>
  <unicode hex="012F"/>
  <anchor x="0" y="0" name="Anchor-11"/>
  <anchor x="0" y="0" name="Anchor-10"/>
  <anchor x="0" y="0" name="Anchor-9"/>
  <anchor x="440" y="0" name="Anchor-8"/>
  <anchor x="276" y="0" name="Anchor-7"/>
  <outline>
    <contour>
      <point x="113" y="1495" type="line"/>
      <point x="440" y="1495" type="line"/>
      <point x="440" y="1198" type="line"/>
      <point x="113" y="1198" type="line"/>
    </contour>
    <contour>
      <point x="113" y="0" type="line"/>
      <point x="113" y="1075" type="line"/>
      <point x="440" y="1075" type="line"/>
      <point x="440" y="0" type="line"/>
      <point x="289" y="-100"/>
      <point x="289" y="-170" type="qcurve" smooth="yes"/>
      <point x="289" y="-245"/>
      <point x="436" y="-248" type="qcurve"/>
      <point x="375" y="-426" type="line"/>
      <point x="227" y="-410"/>
      <point x="84" y="-303"/>
      <point x="84" y="-231" type="qcurve" smooth="yes"/>
      <point x="84" y="-108"/>
      <point x="231" y="0" type="qcurve"/>
    </contour>
  </outline>
</glyph>
<glyph name="Idotaccent" format="2">
  <advance width="614"/>
  <unicode hex="0130"/>
  <anchor x="0" y="0" name="Anchor-11"/>
  <anchor x="0" y="0" name="Anchor-10"/>
  <anchor x="307" y="1872" name="Anchor-9"/>
  <anchor x="475" y="0" name="Anchor-8"/>
  <anchor x="307" y="0" name="Anchor-7"/>
  <outline>
    <contour>
      <point x="160" y="1591" type="line"/>
      <point x="160" y="1872" type="line"/>
      <point x="455" y="1872" type="line"/>
      <point x="455" y="1591" type="line"/>
    </contour>
    <contour>
      <point x="139" y="0" type="line"/>
      <point x="139" y="1454" type="line"/>
      <point x="475" y="1454" type="line"/>
      <point x="475" y="0" type="line"/>
    </contour>
  </outline>
</glyph>
<glyph name="Jcircumflex" format="2">
  <advance width="1011"/>
  <unicode hex="0134"/>
  <anchor x="0" y="0" name="Anchor-11"/>
  <anchor x="0" y="0" name="Anchor-10"/>
  <anchor x="725" y="1872" name="Anchor-9"/>
  <anchor x="0" y="0" name="Anchor-8"/>
  <anchor x="0" y="0" name="Anchor-7"/>
  <outline>
    <contour>
      <point x="383" y="1651" type="line"/>
      <point x="608" y="1872" type="line"/>
      <point x="844" y="1872" type="line"/>
      <point x="1067" y="1651" type="line"/>
      <point x="899" y="1577" type="line"/>
      <point x="725" y="1706" type="line"/>
      <point x="551" y="1577" type="line"/>
    </contour>
    <contour>
      <point x="82" y="342" type="line"/>
      <point x="111" y="321"/>
      <point x="246" y="276"/>
      <point x="326" y="276" type="qcurve" smooth="yes"/>
      <point x="385" y="276"/>
      <point x="465" y="308"/>
      <point x="516" y="368"/>
      <point x="543" y="476"/>
      <point x="553" y="605"/>
      <point x="553" y="702" type="qcurve" smooth="yes"/>
      <point x="553" y="1454" type="line"/>
      <point x="889" y="1454" type="line"/>
      <point x="889" y="715" type="line" smooth="yes"/>
      <point x="889" y="612"/>
      <point x="879" y="458"/>
      <point x="851" y="296"/>
      <point x="800" y="182"/>
      <point x="716" y="77"/>
      <point x="598" y="14"/>
      <point x="432" y="-23"/>
      <point x="326" y="-23" type="qcurve" smooth="yes"/>
      <point x="141" y="-23"/>
      <point x="8" y="68" type="qcurve"/>
    </contour>
  </outline>
</glyph>
<glyph name="jcircumflex" format="2">
  <advance width="552"/>
  <unicode hex="0135"/>
  <anchor x="0" y="0" name="Anchor-11"/>
  <anchor x="0" y="0" name="Anchor-10"/>
  <anchor x="276" y="1495" name="Anchor-9"/>
  <anchor x="0" y="0" name="Anchor-8"/>
  <anchor x="0" y="0" name="Anchor-7"/>
  <outline>
    <contour>
      <point x="-66" y="1274" type="line"/>
      <point x="160" y="1495" type="line"/>
      <point x="395" y="1495" type="line"/>
      <point x="618" y="1274" type="line"/>
      <point x="451" y="1200" type="line"/>
      <point x="276" y="1329" type="line"/>
      <point x="102" y="1200" type="line"/>
    </contour>
    <contour>
      <point x="-244" y="-311" type="qcurve"/>
      <point x="-106" y="-88" type="line"/>
      <point x="-63" y="-131"/>
      <point x="4" y="-131" type="qcurve" smooth="yes"/>
      <point x="51" y="-131"/>
      <point x="113" y="-68"/>
      <point x="113" y="-18" type="qcurve" smooth="yes"/>
      <point x="113" y="1075" type="line"/>
      <point x="440" y="1075" type="line"/>
      <point x="440" y="6" type="line" smooth="yes"/>
      <point x="440" y="-178"/>
      <point x="215" y="-414"/>
      <point x="45" y="-414" type="qcurve" smooth="yes"/>
      <point x="-123" y="-414"/>
    </contour>
  </outline>
</glyph>
<glyph name="kcedilla" format="2">
  <advance width="1165"/>
  <unicode hex="0137"/>
  <anchor x="0" y="0" name="Anchor-11"/>
  <anchor x="0" y="0" name="Anchor-10"/>
  <anchor x="0" y="0" name="Anchor-9"/>
  <anchor x="0" y="0" name="Anchor-8"/>
  <anchor x="602" y="0" name="Anchor-7"/>
  <outline>
    <contour>
      <point x="836" y="0" type="line"/>
      <point x="555" y="430" type="line"/>
      <point x="440" y="313" type="line"/>
      <point x="440" y="0" type="line"/>
      <point x="113" y="0" type="line"/>
      <point x="113" y="1495" type="line"/>
      <point x="440" y="1495" type="line"/>
      <point x="440" y="631" type="line"/>
      <point x="805" y="1075" type="line"/>
      <point x="1151" y="1075" type="line"/>
      <point x="764" y="612" type="line"/>
      <point x="1184" y="0" type="line"/>
    </contour>
    <contour>
      <point x="494" y="-436" type="line"/>
      <point x="557" y="-299" type="line"/>
      <point x="459" y="-299" type="line"/>
      <point x="459" y="-96" type="line"/>
      <point x="733" y="-96" type="line"/>
      <point x="733" y="-299" type="line"/>
      <point x="637" y="-436" type="line"/>
    </contour>
  </outline>
</glyph>
<glyph name="kgreenlandic" format="2">
  <advance width="1165"/>
  <unicode hex="0138"/>
  <outline>
    <contour>
      <point x="836" y="0" type="line"/>
      <point x="555" y="432" type="line"/>
      <point x="440" y="313" type="line"/>
      <point x="440" y="0" type="line"/>
      <point x="113" y="0" type="line"/>
      <point x="113" y="1075" type="line"/>
      <point x="440" y="1075" type="line"/>
      <point x="440" y="629" type="line"/>
      <point x="803" y="1075" type="line"/>
      <point x="1151" y="1075" type="line"/>
      <point x="764" y="612" type="line"/>
      <point x="1184" y="0" type="line"/>
    </contour>
  </outline>
</glyph>
<glyph name="Lacute" format="2">
  <advance width="1198"/>
  <unicode hex="0139"/>
  <anchor x="788" y="1077" name="Anchor-11"/>
  <anchor x="600" y="727" name="Anchor-10"/>
  <anchor x="410" y="1872" name="Anchor-9"/>
  <anchor x="0" y="0" name="Anchor-8"/>
  <anchor x="688" y="0" name="Anchor-7"/>
  <outline>
    <contour>
      <point x="416" y="1548" type="line"/>
      <point x="207" y="1606" type="line"/>
      <point x="313" y="1872" type="line"/>
      <point x="610" y="1872" type="line"/>
    </contour>
    <contour>
      <point x="139" y="0" type="line"/>
      <point x="139" y="1454" type="line"/>
      <point x="475" y="1454" type="line"/>
      <point x="475" y="295" type="line"/>
      <point x="1180" y="295" type="line"/>
      <point x="1180" y="0" type="line"/>
    </contour>
  </outline>
</glyph>
<glyph name="lacute" format="2">
  <advance width="686"/>
  <unicode hex="013A"/>
  <anchor x="578" y="1075" name="Anchor-11"/>
  <anchor x="344" y="537" name="Anchor-10"/>
  <anchor x="373" y="1874" name="Anchor-9"/>
  <anchor x="0" y="0" name="Anchor-8"/>
  <anchor x="399" y="0" name="Anchor-7"/>
  <outline>
    <contour>
      <point x="379" y="1550" type="line"/>
      <point x="170" y="1608" type="line"/>
      <point x="276" y="1874" type="line"/>
      <point x="573" y="1874" type="line"/>
    </contour>
    <contour>
      <point x="109" y="1495" type="line"/>
      <point x="436" y="1495" type="line"/>
      <point x="436" y="383" type="line" smooth="yes"/>
      <point x="436" y="258"/>
      <point x="530" y="258" type="qcurve" smooth="yes"/>
      <point x="585" y="258"/>
      <point x="649" y="289" type="qcurve"/>
      <point x="692" y="43" type="line"/>
      <point x="631" y="15"/>
      <point x="470" y="-18"/>
      <point x="401" y="-18" type="qcurve" smooth="yes"/>
      <point x="261" y="-18"/>
      <point x="109" y="130"/>
      <point x="109" y="268" type="qcurve" smooth="yes"/>
    </contour>
  </outline>
</glyph>
<glyph name="Lcedilla" format="2">
  <advance width="1198"/>
  <unicode hex="013B"/>
  <anchor x="788" y="1077" name="Anchor-11"/>
  <anchor x="600" y="727" name="Anchor-10"/>
  <anchor x="309" y="1452" name="Anchor-9"/>
  <anchor x="0" y="0" name="Anchor-8"/>
  <anchor x="688" y="0" name="Anchor-7"/>
  <outline>
    <contour>
      <point x="139" y="0" type="line"/>
      <point x="139" y="1454" type="line"/>
      <point x="475" y="1454" type="line"/>
      <point x="475" y="295" type="line"/>
      <point x="1180" y="295" type="line"/>
      <point x="1180" y="0" type="line"/>
    </contour>
    <contour>
      <point x="580" y="-436" type="line"/>
      <point x="643" y="-299" type="line"/>
      <point x="545" y="-299" type="line"/>
      <point x="545" y="-96" type="line"/>
      <point x="819" y="-96" type="line"/>
      <point x="819" y="-299" type="line"/>
      <point x="723" y="-436" type="line"/>
    </contour>
  </outline>
</glyph>
<glyph name="lcedilla" format="2">
  <advance width="686"/>
  <unicode hex="013C"/>
  <anchor x="578" y="1075" name="Anchor-11"/>
  <anchor x="344" y="537" name="Anchor-10"/>
  <anchor x="272" y="1454" name="Anchor-9"/>
  <anchor x="0" y="0" name="Anchor-8"/>
  <anchor x="399" y="0" name="Anchor-7"/>
  <outline>
    <contour>
      <point x="109" y="1495" type="line"/>
      <point x="436" y="1495" type="line"/>
      <point x="436" y="383" type="line" smooth="yes"/>
      <point x="436" y="258"/>
      <point x="530" y="258" type="qcurve" smooth="yes"/>
      <point x="585" y="258"/>
      <point x="649" y="289" type="qcurve"/>
      <point x="692" y="43" type="line"/>
      <point x="631" y="15"/>
      <point x="470" y="-18"/>
      <point x="401" y="-18" type="qcurve" smooth="yes"/>
      <point x="261" y="-18"/>
      <point x="109" y="130"/>
      <point x="109" y="268" type="qcurve" smooth="yes"/>
    </contour>
    <contour>
      <point x="291" y="-436" type="line"/>
      <point x="354" y="-299" type="line"/>
      <point x="256" y="-299" type="line"/>
      <point x="256" y="-96" type="line"/>
      <point x="530" y="-96" type="line"/>
      <point x="530" y="-299" type="line"/>
      <point x="434" y="-436" type="line"/>
    </contour>
  </outline>
</glyph>
<glyph name="Lcaron" format="2">
  <advance width="1198"/>
  <unicode hex="013D"/>
  <anchor x="788" y="1077" name="Anchor-11"/>
  <anchor x="600" y="727" name="Anchor-10"/>
  <anchor x="309" y="1452" name="Anchor-9"/>
  <anchor x="0" y="0" name="Anchor-8"/>
  <anchor x="688" y="0" name="Anchor-7"/>
  <outline>
    <contour>
      <point x="932" y="1174" type="line"/>
      <point x="723" y="1231" type="line"/>
      <point x="829" y="1497" type="line"/>
      <point x="1126" y="1497" type="line"/>
    </contour>
    <contour>
      <point x="139" y="0" type="line"/>
      <point x="139" y="1454" type="line"/>
      <point x="475" y="1454" type="line"/>
      <point x="475" y="295" type="line"/>
      <point x="1180" y="295" type="line"/>
      <point x="1180" y="0" type="line"/>
    </contour>
  </outline>
</glyph>
<glyph name="lcaron" format="2">
  <advance width="686"/>
  <unicode hex="013E"/>
  <anchor x="578" y="1075" name="Anchor-11"/>
  <anchor x="344" y="537" name="Anchor-10"/>
  <anchor x="272" y="1454" name="Anchor-9"/>
  <anchor x="0" y="0" name="Anchor-8"/>
  <anchor x="399" y="0" name="Anchor-7"/>
  <outline>
    <contour>
      <point x="109" y="1495" type="line"/>
      <point x="436" y="1495" type="line"/>
      <point x="436" y="383" type="line" smooth="yes"/>
      <point x="436" y="258"/>
      <point x="530" y="258" type="qcurve" smooth="yes"/>
      <point x="585" y="258"/>
      <point x="649" y="289" type="qcurve"/>
      <point x="692" y="43" type="line"/>
      <point x="631" y="15"/>
      <point x="470" y="-18"/>
      <point x="401" y="-18" type="qcurve" smooth="yes"/>
      <point x="261" y="-18"/>
      <point x="109" y="130"/>
      <point x="109" y="268" type="qcurve" smooth="yes"/>
    </contour>
    <contour>
      <point x="721" y="1171" type="line"/>
      <point x="512" y="1229" type="line"/>
      <point x="618" y="1495" type="line"/>
      <point x="915" y="1495" type="line"/>
    </contour>
  </outline>
</glyph>
<glyph name="Ldot" format="2">
  <advance width="1198"/>
  <unicode hex="013F"/>
  <anchor x="788" y="1077" name="Anchor-11"/>
  <anchor x="600" y="727" name="Anchor-10"/>
  <anchor x="309" y="1452" name="Anchor-9"/>
  <anchor x="0" y="0" name="Anchor-8"/>
  <anchor x="688" y="0" name="Anchor-7"/>
  <outline>
    <contour>
      <point x="139" y="0" type="line"/>
      <point x="139" y="1454" type="line"/>
      <point x="475" y="1454" type="line"/>
      <point x="475" y="295" type="line"/>
      <point x="1180" y="295" type="line"/>
      <point x="1180" y="0" type="line"/>
    </contour>
    <contour>
      <point x="745" y="666" type="line"/>
      <point x="745" y="1006" type="line"/>
      <point x="1014" y="1006" type="line"/>
      <point x="1014" y="666" type="line"/>
    </contour>
  </outline>
</glyph>
<glyph name="Lslash" format="2">
  <advance width="1218"/>
  <unicode hex="0141"/>
  <anchor x="811" y="1077" name="Anchor-11"/>
  <anchor x="623" y="727" name="Anchor-10"/>
  <anchor x="332" y="1452" name="Anchor-9"/>
  <anchor x="0" y="0" name="Anchor-8"/>
  <anchor x="711" y="0" name="Anchor-7"/>
  <outline>
    <contour>
      <point x="498" y="295" type="line"/>
      <point x="1202" y="295" type="line"/>
      <point x="1202" y="0" type="line"/>
      <point x="162" y="0" type="line"/>
      <point x="162" y="561" type="line"/>
      <point x="59" y="504" type="line"/>
      <point x="-18" y="680" type="line"/>
      <point x="162" y="782" type="line"/>
      <point x="162" y="1454" type="line"/>
      <point x="498" y="1454" type="line"/>
      <point x="498" y="971" type="line"/>
      <point x="686" y="1077" type="line"/>
      <point x="762" y="901" type="line"/>
      <point x="498" y="752" type="line"/>
    </contour>
  </outline>
</glyph>
<glyph name="lslash" format="2">
  <advance width="745"/>
  <unicode hex="0142"/>
  <anchor x="631" y="1075" name="Anchor-11"/>
  <anchor x="397" y="537" name="Anchor-10"/>
  <anchor x="326" y="1454" name="Anchor-9"/>
  <anchor x="0" y="0" name="Anchor-8"/>
  <anchor x="453" y="0" name="Anchor-7"/>
  <outline>
    <contour>
      <point x="702" y="289" type="qcurve"/>
      <point x="745" y="43" type="line"/>
      <point x="684" y="15"/>
      <point x="524" y="-18"/>
      <point x="455" y="-18" type="qcurve" smooth="yes"/>
      <point x="315" y="-18"/>
      <point x="162" y="130"/>
      <point x="162" y="268" type="qcurve" smooth="yes"/>
      <point x="162" y="586" type="line"/>
      <point x="68" y="535" type="line"/>
      <point x="-10" y="711" type="line"/>
      <point x="162" y="805" type="line"/>
      <point x="162" y="1495" type="line"/>
      <point x="489" y="1495" type="line"/>
      <point x="489" y="983" type="line"/>
      <point x="662" y="1077" type="line"/>
      <point x="739" y="901" type="line"/>
      <point x="489" y="764" type="line"/>
      <point x="489" y="383" type="line" smooth="yes"/>
      <point x="489" y="258"/>
      <point x="584" y="258" type="qcurve" smooth="yes"/>
      <point x="638" y="258"/>
    </contour>
  </outline>
</glyph>
<glyph name="Nacute" format="2">
  <advance width="1554"/>
  <unicode hex="0143"/>
  <anchor x="0" y="0" name="Anchor-11"/>
  <anchor x="0" y="0" name="Anchor-10"/>
  <anchor x="874" y="1872" name="Anchor-9"/>
  <anchor x="0" y="0" name="Anchor-8"/>
  <anchor x="774" y="0" name="Anchor-7"/>
  <outline>
    <contour>
      <point x="881" y="1548" type="line"/>
      <point x="672" y="1606" type="line"/>
      <point x="778" y="1872" type="line"/>
      <point x="1075" y="1872" type="line"/>
    </contour>
    <contour>
      <point x="475" y="831" type="line"/>
      <point x="475" y="0" type="line"/>
      <point x="139" y="0" type="line"/>
      <point x="139" y="1454" type="line"/>
      <point x="406" y="1454" type="line"/>
      <point x="1079" y="598" type="line"/>
      <point x="1079" y="1454" type="line"/>
      <point x="1415" y="1454" type="line"/>
      <point x="1415" y="0" type="line"/>
      <point x="1141" y="0" type="line"/>
    </contour>
  </outline>
</glyph>
<glyph name="ncedilla" format="2">
  <advance width="1253"/>
  <unicode hex="0146"/>
  <anchor x="0" y="0" name="Anchor-11"/>
  <anchor x="0" y="0" name="Anchor-10"/>
  <anchor x="664" y="1075" name="Anchor-9"/>
  <anchor x="0" y="0" name="Anchor-8"/>
  <anchor x="627" y="0" name="Anchor-7"/>
  <outline>
    <contour>
      <point x="1149" y="0" type="line"/>
      <point x="821" y="0" type="line"/>
      <point x="821" y="604" type="line" smooth="yes"/>
      <point x="821" y="706"/>
      <point x="743" y="807"/>
      <point x="676" y="807" type="qcurve" smooth="yes"/>
      <point x="607" y="807"/>
      <point x="469" y="698"/>
      <point x="440" y="616" type="qcurve"/>
      <point x="440" y="0" type="line"/>
      <point x="113" y="0" type="line"/>
      <point x="113" y="1075" type="line"/>
      <point x="408" y="1075" type="line"/>
      <point x="408" y="895" type="line"/>
      <point x="467" y="991"/>
      <point x="684" y="1096"/>
      <point x="825" y="1096" type="qcurve" smooth="yes"/>
      <point x="1149" y="1096"/>
      <point x="1149" y="688" type="qcurve" smooth="yes"/>
    </contour>
    <contour>
      <point x="518" y="-436" type="line"/>
      <point x="582" y="-299" type="line"/>
      <point x="483" y="-299" type="line"/>
      <point x="483" y="-96" type="line"/>
      <point x="758" y="-96" type="line"/>
      <point x="758" y="-299" type="line"/>
      <point x="662" y="-436" type="line"/>
    </contour>
  </outline>
</glyph>
<glyph name="Ncaron" format="2">
  <advance width="1554"/>
  <unicode hex="0147"/>
  <anchor x="0" y="0" name="Anchor-11"/>
  <anchor x="0" y="0" name="Anchor-10"/>
  <anchor x="774" y="1872" name="Anchor-9"/>
  <anchor x="0" y="0" name="Anchor-8"/>
  <anchor x="774" y="0" name="Anchor-7"/>
  <outline>
    <contour>
      <point x="600" y="1872" type="line"/>
      <point x="774" y="1743" type="line"/>
      <point x="948" y="1872" type="line"/>
      <point x="1116" y="1796" type="line"/>
      <point x="893" y="1577" type="line"/>
      <point x="657" y="1577" type="line"/>
      <point x="432" y="1796" type="line"/>
    </contour>
    <contour>
      <point x="475" y="831" type="line"/>
      <point x="475" y="0" type="line"/>
      <point x="139" y="0" type="line"/>
      <point x="139" y="1454" type="line"/>
      <point x="406" y="1454" type="line"/>
      <point x="1079" y="598" type="line"/>
      <point x="1079" y="1454" type="line"/>
      <point x="1415" y="1454" type="line"/>
      <point x="1415" y="0" type="line"/>
      <point x="1141" y="0" type="line"/>
    </contour>
  </outline>
</glyph>
<glyph name="ncaron" format="2">
  <advance width="1253"/>
  <unicode hex="0148"/>
  <anchor x="0" y="0" name="Anchor-11"/>
  <anchor x="0" y="0" name="Anchor-10"/>
  <anchor x="664" y="1495" name="Anchor-9"/>
  <anchor x="0" y="0" name="Anchor-8"/>
  <anchor x="627" y="0" name="Anchor-7"/>
  <outline>
    <contour>
      <point x="489" y="1495" type="line"/>
      <point x="664" y="1366" type="line"/>
      <point x="838" y="1495" type="line"/>
      <point x="1006" y="1419" type="line"/>
      <point x="782" y="1200" type="line"/>
      <point x="547" y="1200" type="line"/>
      <point x="322" y="1419" type="line"/>
    </contour>
    <contour>
      <point x="1149" y="0" type="line"/>
      <point x="821" y="0" type="line"/>
      <point x="821" y="604" type="line" smooth="yes"/>
      <point x="821" y="706"/>
      <point x="743" y="807"/>
      <point x="676" y="807" type="qcurve" smooth="yes"/>
      <point x="607" y="807"/>
      <point x="469" y="698"/>
      <point x="440" y="616" type="qcurve"/>
      <point x="440" y="0" type="line"/>
      <point x="113" y="0" type="line"/>
      <point x="113" y="1075" type="line"/>
      <point x="408" y="1075" type="line"/>
      <point x="408" y="895" type="line"/>
      <point x="467" y="991"/>
      <point x="684" y="1096"/>
      <point x="825" y="1096" type="qcurve" smooth="yes"/>
      <point x="1149" y="1096"/>
      <point x="1149" y="688" type="qcurve" smooth="yes"/>
    </contour>
  </outline>
</glyph>
<glyph name="Eng" format="2">
  <advance width="1521"/>
  <unicode hex="014A"/>
  <outline>
    <contour>
      <point x="475" y="821" type="line"/>
      <point x="475" y="0" type="line"/>
      <point x="139" y="0" type="line"/>
      <point x="139" y="1454" type="line"/>
      <point x="397" y="1454" type="line"/>
      <point x="1044" y="616" type="line"/>
      <point x="1044" y="1452" type="line"/>
      <point x="1380" y="1452" type="line"/>
      <point x="1380" y="-4" type="line" smooth="yes"/>
      <point x="1380" y="-186"/>
      <point x="1153" y="-414"/>
      <point x="985" y="-414" type="qcurve" smooth="yes"/>
      <point x="816" y="-414"/>
      <point x="698" y="-311" type="qcurve"/>
      <point x="836" y="-88" type="line"/>
      <point x="876" y="-131"/>
      <point x="944" y="-131" type="qcurve" smooth="yes"/>
      <point x="991" y="-131"/>
      <point x="1053" y="-68"/>
      <point x="1053" y="-18" type="qcurve" smooth="yes"/>
      <point x="1053" y="72" type="line"/>
    </contour>
  </outline>
</glyph>
<glyph name="eng" format="2">
  <advance width="1251"/>
  <unicode hex="014B"/>
  <outline>
    <contour>
      <point x="465" y="-311" type="qcurve"/>
      <point x="602" y="-88" type="line"/>
      <point x="645" y="-131"/>
      <point x="713" y="-131" type="qcurve" smooth="yes"/>
      <point x="759" y="-131"/>
      <point x="821" y="-68"/>
      <point x="821" y="-18" type="qcurve" smooth="yes"/>
      <point x="821" y="604" type="line" smooth="yes"/>
      <point x="821" y="706"/>
      <point x="743" y="807"/>
      <point x="676" y="807" type="qcurve" smooth="yes"/>
      <point x="607" y="807"/>
      <point x="469" y="698"/>
      <point x="440" y="616" type="qcurve"/>
      <point x="440" y="0" type="line"/>
      <point x="113" y="0" type="line"/>
      <point x="113" y="1075" type="line"/>
      <point x="408" y="1075" type="line"/>
      <point x="408" y="895" type="line"/>
      <point x="467" y="991"/>
      <point x="684" y="1096"/>
      <point x="825" y="1096" type="qcurve" smooth="yes"/>
      <point x="1149" y="1096"/>
      <point x="1149" y="688" type="qcurve" smooth="yes"/>
      <point x="1149" y="6" type="line" smooth="yes"/>
      <point x="1149" y="-178"/>
      <point x="923" y="-414"/>
      <point x="754" y="-414" type="qcurve" smooth="yes"/>
      <point x="586" y="-414"/>
    </contour>
  </outline>
</glyph>
<glyph name="OE" format="2">
  <advance width="2170"/>
  <unicode hex="0152"/>
  <outline>
    <contour>
      <point x="2105" y="295" type="line"/>
      <point x="2105" y="0" type="line"/>
      <point x="1116" y="0" type="line"/>
      <point x="1116" y="154" type="line"/>
      <point x="1044" y="79"/>
      <point x="853" y="-10"/>
      <point x="748" y="-10" type="qcurve" smooth="yes"/>
      <point x="597" y="-10"/>
      <point x="334" y="116"/>
      <point x="157" y="322"/>
      <point x="55" y="589"/>
      <point x="55" y="729" type="qcurve" smooth="yes"/>
      <point x="55" y="872"/>
      <point x="161" y="1140"/>
      <point x="344" y="1342"/>
      <point x="607" y="1464"/>
      <point x="754" y="1464" type="qcurve" smooth="yes"/>
      <point x="962" y="1464"/>
      <point x="1116" y="1303" type="qcurve"/>
      <point x="1116" y="1454" type="line"/>
      <point x="2087" y="1454" type="line"/>
      <point x="2087" y="1159" type="line"/>
      <point x="1452" y="1159" type="line"/>
      <point x="1452" y="887" type="line"/>
      <point x="1976" y="887" type="line"/>
      <point x="1976" y="594" type="line"/>
      <point x="1452" y="594" type="line"/>
      <point x="1452" y="295" type="line"/>
    </contour>
    <contour>
      <point x="1102" y="729" type="qcurve" smooth="yes"/>
      <point x="1102" y="844"/>
      <point x="1022" y="1040"/>
      <point x="858" y="1165"/>
      <point x="750" y="1165" type="qcurve" smooth="yes"/>
      <point x="682" y="1165"/>
      <point x="566" y="1116"/>
      <point x="484" y="1031"/>
      <point x="425" y="918"/>
      <point x="397" y="791"/>
      <point x="397" y="725" type="qcurve" smooth="yes"/>
      <point x="397" y="611"/>
      <point x="477" y="415"/>
      <point x="641" y="289"/>
      <point x="750" y="289" type="qcurve" smooth="yes"/>
      <point x="835" y="289"/>
      <point x="973" y="364"/>
      <point x="1057" y="490"/>
      <point x="1102" y="645"/>
    </contour>
  </outline>
</glyph>
